solid Default
  facet normal -8.301944e-01 -3.823801e-01 4.056635e-01
    outer loop
      vertex -4.635397e+01 -2.445514e+01 7.032501e+00
      vertex -4.155275e+01 -2.935944e+01 1.223543e+01
      vertex -4.155273e+01 -1.255003e+01 2.808009e+01
    endloop
  endfacet
  facet normal -9.785307e-01 1.555123e-01 1.352539e-01
    outer loop
      vertex -4.155273e+01 -1.255003e+01 2.808009e+01
      vertex -4.155275e+01 -1.055688e+01 2.578830e+01
      vertex -4.635397e+01 -2.445514e+01 7.032501e+00
    endloop
  endfacet
  facet normal 1.000000e+00 -1.360996e-06 4.808412e-07
    outer loop
      vertex 4.094725e+01 -1.055685e+01 2.578830e+01
      vertex 4.094725e+01 -1.255003e+01 2.808009e+01
      vertex 4.094724e+01 -2.935946e+01 1.223543e+01
    endloop
  endfacet
  facet normal 8.310194e-01 -3.252532e-01 4.512395e-01
    outer loop
      vertex 4.094724e+01 -2.935946e+01 1.223543e+01
      vertex 4.569189e+01 -2.445516e+01 7.032501e+00
      vertex 4.094725e+01 -1.055685e+01 2.578830e+01
    endloop
  endfacet
  facet normal -1.809456e-07 -7.276811e-01 -6.859156e-01
    outer loop
      vertex -4.155275e+01 -2.935944e+01 1.223543e+01
      vertex -4.635397e+01 -2.445514e+01 7.032501e+00
      vertex 4.569189e+01 -2.445516e+01 7.032501e+00
    endloop
  endfacet
  facet normal -1.345884e-07 -7.276815e-01 -6.859152e-01
    outer loop
      vertex 4.569189e+01 -2.445516e+01 7.032501e+00
      vertex 4.094724e+01 -2.935946e+01 1.223543e+01
      vertex -4.155275e+01 -2.935944e+01 1.223543e+01
    endloop
  endfacet
  facet normal 1.455877e-06 7.276810e-01 6.859156e-01
    outer loop
      vertex -5.255503e+01 -1.745431e+01 3.328302e+01
      vertex -4.155273e+01 -1.255003e+01 2.808009e+01
      vertex -5.255504e+01 -1.255002e+01 2.808011e+01
    endloop
  endfacet
  facet normal -1.455878e-06 -7.276800e-01 -6.859168e-01
    outer loop
      vertex -4.155275e+01 -2.935944e+01 1.223543e+01
      vertex -4.155277e+01 -3.426375e+01 1.743834e+01
      vertex -5.255508e+01 -3.426374e+01 1.743835e+01
    endloop
  endfacet
  facet normal -4.466766e-07 -7.276810e-01 -6.859156e-01
    outer loop
      vertex -5.255508e+01 -3.426374e+01 1.743835e+01
      vertex -5.255507e+01 -2.935945e+01 1.223544e+01
      vertex -4.155275e+01 -2.935944e+01 1.223543e+01
    endloop
  endfacet
  facet normal -1.484837e-06 6.859163e-01 -7.276804e-01
    outer loop
      vertex -4.155273e+01 -1.255003e+01 2.808009e+01
      vertex -4.155275e+01 -2.935944e+01 1.223543e+01
      vertex -5.255507e+01 -2.935945e+01 1.223544e+01
    endloop
  endfacet
  facet normal -5.335611e-07 6.859159e-01 -7.276807e-01
    outer loop
      vertex -5.255507e+01 -2.935945e+01 1.223544e+01
      vertex -5.255504e+01 -1.255002e+01 2.808011e+01
      vertex -4.155273e+01 -1.255003e+01 2.808009e+01
    endloop
  endfacet
  facet normal -1.000000e+00 2.539876e-06 1.945442e-07
    outer loop
      vertex -5.255507e+01 -2.935945e+01 1.223544e+01
      vertex -5.255508e+01 -3.426374e+01 1.743835e+01
      vertex -5.255503e+01 -1.745431e+01 3.328302e+01
    endloop
  endfacet
  facet normal -1.000000e+00 1.092697e-07 1.569368e-06
    outer loop
      vertex -5.255503e+01 -1.745431e+01 3.328302e+01
      vertex -5.255504e+01 -1.255002e+01 2.808011e+01
      vertex -5.255507e+01 -2.935945e+01 1.223544e+01
    endloop
  endfacet
  facet normal 2.407153e-06 7.276810e-01 6.859156e-01
    outer loop
      vertex 4.094725e+01 -1.255003e+01 2.808009e+01
      vertex 5.194957e+01 -1.745433e+01 3.328297e+01
      vertex 5.194956e+01 -1.255004e+01 2.808006e+01
    endloop
  endfacet
  facet normal -1.397956e-06 -7.276805e-01 -6.859162e-01
    outer loop
      vertex 4.094725e+01 -3.426376e+01 1.743834e+01
      vertex 4.094724e+01 -2.935946e+01 1.223543e+01
      vertex 5.194954e+01 -2.935945e+01 1.223540e+01
    endloop
  endfacet
  facet normal -1.397957e-06 -7.276805e-01 -6.859162e-01
    outer loop
      vertex 5.194954e+01 -2.935945e+01 1.223540e+01
      vertex 5.194955e+01 -3.426375e+01 1.743831e+01
      vertex 4.094725e+01 -3.426376e+01 1.743834e+01
    endloop
  endfacet
  facet normal -1.542760e-06 6.859161e-01 -7.276806e-01
    outer loop
      vertex 4.094724e+01 -2.935946e+01 1.223543e+01
      vertex 4.094725e+01 -1.255003e+01 2.808009e+01
      vertex 5.194956e+01 -1.255004e+01 2.808006e+01
    endloop
  endfacet
  facet normal -2.494038e-06 6.859164e-01 -7.276803e-01
    outer loop
      vertex 5.194956e+01 -1.255004e+01 2.808006e+01
      vertex 5.194954e+01 -2.935945e+01 1.223540e+01
      vertex 4.094724e+01 -2.935946e+01 1.223543e+01
    endloop
  endfacet
  facet normal 1.000000e+00 -1.147190e-07 -8.413198e-07
    outer loop
      vertex 5.194956e+01 -1.255004e+01 2.808006e+01
      vertex 5.194957e+01 -1.745433e+01 3.328297e+01
      vertex 5.194955e+01 -3.426375e+01 1.743831e+01
    endloop
  endfacet
  facet normal 1.000000e+00 3.768515e-07 -1.844333e-06
    outer loop
      vertex 5.194955e+01 -3.426375e+01 1.743831e+01
      vertex 5.194954e+01 -2.935945e+01 1.223540e+01
      vertex 5.194956e+01 -1.255004e+01 2.808006e+01
    endloop
  endfacet
  facet normal 6.729392e-08 7.276786e-01 6.859183e-01
    outer loop
      vertex 5.194957e+01 -1.745433e+01 3.328297e+01
      vertex 4.094725e+01 -1.255003e+01 2.808009e+01
      vertex -4.155273e+01 -1.255003e+01 2.808009e+01
    endloop
  endfacet
  facet normal 4.598267e-07 7.276821e-01 6.859145e-01
    outer loop
      vertex -5.255503e+01 -1.745431e+01 3.328302e+01
      vertex 5.194957e+01 -1.745433e+01 3.328297e+01
      vertex -4.155273e+01 -1.255003e+01 2.808009e+01
    endloop
  endfacet
  facet normal -1.345881e-07 -7.276800e-01 -6.859168e-01
    outer loop
      vertex -4.155277e+01 -3.426375e+01 1.743834e+01
      vertex -4.155275e+01 -2.935944e+01 1.223543e+01
      vertex 4.094724e+01 -2.935946e+01 1.223543e+01
    endloop
  endfacet
  facet normal -6.729407e-08 -7.276805e-01 -6.859162e-01
    outer loop
      vertex 4.094725e+01 -3.426376e+01 1.743834e+01
      vertex -4.155277e+01 -3.426375e+01 1.743834e+01
      vertex 4.094724e+01 -2.935946e+01 1.223543e+01
    endloop
  endfacet
  facet normal 6.593456e-01 -7.518400e-01 -7.896006e-08
    outer loop
      vertex 4.642159e+01 2.626106e+01 1.525879e-05
      vertex 4.642159e+01 2.626106e+01 3.185414e+01
      vertex 3.996522e+01 2.059898e+01 4.126439e+01
    endloop
  endfacet
  facet normal 6.593459e-01 -7.518398e-01 0.000000e+00
    outer loop
      vertex 3.996522e+01 2.059898e+01 4.126439e+01
      vertex 3.996522e+01 2.059898e+01 1.525879e-05
      vertex 4.642159e+01 2.626106e+01 1.525879e-05
    endloop
  endfacet
  facet normal 5.555700e-01 -8.314698e-01 -1.053674e-07
    outer loop
      vertex 3.282503e+01 1.582805e+01 5.021609e+01
      vertex 3.282503e+01 1.582806e+01 1.525879e-05
      vertex 3.996522e+01 2.059898e+01 1.525879e-05
    endloop
  endfacet
  facet normal 5.555705e-01 -8.314694e-01 0.000000e+00
    outer loop
      vertex 3.996522e+01 2.059898e+01 1.525879e-05
      vertex 3.996522e+01 2.059898e+01 4.126439e+01
      vertex 3.282503e+01 1.582805e+01 5.021609e+01
    endloop
  endfacet
  facet normal 7.479926e-01 -6.637070e-01 -4.715281e-08
    outer loop
      vertex 2.650176e+01 8.701782e+00 6.051317e+01
      vertex 2.650176e+01 8.701782e+00 1.525879e-05
      vertex 3.282503e+01 1.582806e+01 1.525879e-05
    endloop
  endfacet
  facet normal 7.479923e-01 -6.637073e-01 -1.072407e-07
    outer loop
      vertex 3.282503e+01 1.582806e+01 1.525879e-05
      vertex 3.282503e+01 1.582805e+01 5.021609e+01
      vertex 2.650176e+01 8.701782e+00 6.051317e+01
    endloop
  endfacet
  facet normal 8.820506e-01 -4.711548e-01 -5.176546e-08
    outer loop
      vertex 2.026979e+01 -2.965118e+00 6.500003e+01
      vertex 2.026978e+01 -2.965118e+00 1.525879e-05
      vertex 2.650176e+01 8.701782e+00 1.525879e-05
    endloop
  endfacet
  facet normal 8.820506e-01 -4.711548e-01 -5.560371e-08
    outer loop
      vertex 2.650176e+01 8.701782e+00 1.525879e-05
      vertex 2.650176e+01 8.701782e+00 6.051317e+01
      vertex 2.026979e+01 -2.965118e+00 6.500003e+01
    endloop
  endfacet
  facet normal 1.202278e-01 -9.927463e-01 -7.055887e-09
    outer loop
      vertex 1.012057e+01 -4.194252e+00 1.525879e-05
      vertex 2.026978e+01 -2.965118e+00 1.525879e-05
      vertex 2.026979e+01 -2.965118e+00 6.500003e+01
    endloop
  endfacet
  facet normal -1.202429e-01 -9.927445e-01 -7.056769e-09
    outer loop
      vertex -2.026973e+01 -2.965103e+00 6.500003e+01
      vertex -2.026972e+01 -2.965103e+00 1.525879e-05
      vertex -1.012167e+01 -4.194252e+00 1.525879e-05
    endloop
  endfacet
  facet normal -8.820503e-01 -4.711552e-01 0.000000e+00
    outer loop
      vertex -2.650170e+01 8.701797e+00 6.051317e+01
      vertex -2.650170e+01 8.701797e+00 1.525879e-05
      vertex -2.026972e+01 -2.965103e+00 1.525879e-05
    endloop
  endfacet
  facet normal -8.820505e-01 -4.711550e-01 -5.176545e-08
    outer loop
      vertex -2.026972e+01 -2.965103e+00 1.525879e-05
      vertex -2.026973e+01 -2.965103e+00 6.500003e+01
      vertex -2.650170e+01 8.701797e+00 6.051317e+01
    endloop
  endfacet
  facet normal -7.479922e-01 -6.637076e-01 0.000000e+00
    outer loop
      vertex -3.282497e+01 1.582806e+01 5.021611e+01
      vertex -3.282497e+01 1.582806e+01 1.525879e-05
      vertex -2.650170e+01 8.701797e+00 1.525879e-05
    endloop
  endfacet
  facet normal -7.479922e-01 -6.637076e-01 0.000000e+00
    outer loop
      vertex -2.650170e+01 8.701797e+00 1.525879e-05
      vertex -2.650170e+01 8.701797e+00 6.051317e+01
      vertex -3.282497e+01 1.582806e+01 5.021611e+01
    endloop
  endfacet
  facet normal -5.555703e-01 -8.314695e-01 5.135988e-08
    outer loop
      vertex -3.996516e+01 2.059899e+01 4.126437e+01
      vertex -3.996516e+01 2.059899e+01 1.525879e-05
      vertex -3.282497e+01 1.582806e+01 1.525879e-05
    endloop
  endfacet
  facet normal -5.555705e-01 -8.314694e-01 0.000000e+00
    outer loop
      vertex -3.282497e+01 1.582806e+01 1.525879e-05
      vertex -3.282497e+01 1.582806e+01 5.021611e+01
      vertex -3.996516e+01 2.059899e+01 4.126437e+01
    endloop
  endfacet
  facet normal -6.593456e-01 -7.518400e-01 1.689968e-07
    outer loop
      vertex -4.642153e+01 2.626107e+01 3.185414e+01
      vertex -4.642154e+01 2.626107e+01 1.525879e-05
      vertex -3.996516e+01 2.059899e+01 1.525879e-05
    endloop
  endfacet
  facet normal -6.593459e-01 -7.518397e-01 6.095345e-08
    outer loop
      vertex -3.996516e+01 2.059899e+01 1.525879e-05
      vertex -3.996516e+01 2.059899e+01 4.126437e+01
      vertex -4.642153e+01 2.626107e+01 3.185414e+01
    endloop
  endfacet
  facet normal 9.325660e-01 3.609988e-01 7.569763e-04
    outer loop
      vertex -9.919239e+00 -4.194244e+00 6.500003e+01
      vertex -9.919247e+00 -4.059677e+00 8.348694e-01
      vertex -1.524258e+01 9.635372e+00 2.786819e+01
    endloop
  endfacet
  facet normal 9.332494e-01 3.592291e-01 -9.709260e-08
    outer loop
      vertex -1.524258e+01 9.635372e+00 2.786819e+01
      vertex -1.524258e+01 9.635372e+00 6.453488e+01
      vertex -9.919239e+00 -4.194244e+00 6.500003e+01
    endloop
  endfacet
  facet normal -9.332409e-01 3.592504e-01 7.535603e-04
    outer loop
      vertex 9.918149e+00 -4.059677e+00 8.348694e-01
      vertex 9.918156e+00 -4.194252e+00 6.500002e+01
      vertex 1.524149e+01 9.635384e+00 6.453487e+01
    endloop
  endfacet
  facet normal -9.320627e-01 3.622970e-01 9.696918e-08
    outer loop
      vertex 1.524149e+01 9.635384e+00 6.453487e+01
      vertex 1.524148e+01 9.635384e+00 2.786819e+01
      vertex 9.918149e+00 -4.059677e+00 8.348694e-01
    endloop
  endfacet
  facet normal 9.332494e-01 3.592291e-01 -2.534833e-08
    outer loop
      vertex -1.524258e+01 9.635376e+00 8.348424e+01
      vertex -9.919239e+00 -4.194244e+00 6.500003e+01
      vertex -1.524258e+01 9.635372e+00 6.453488e+01
    endloop
  endfacet
  facet normal -9.332497e-01 3.592284e-01 9.393623e-08
    outer loop
      vertex 9.918156e+00 -4.194252e+00 6.500002e+01
      vertex 1.524149e+01 9.635384e+00 8.348424e+01
      vertex 1.524149e+01 9.635384e+00 6.453487e+01
    endloop
  endfacet
  facet normal 5.585997e-01 -8.294356e-01 -1.739560e-03
    outer loop
      vertex -1.012167e+01 -4.194252e+00 1.525879e-05
      vertex -9.919247e+00 -4.059677e+00 8.348694e-01
      vertex -9.919239e+00 -4.194244e+00 6.500003e+01
    endloop
  endfacet
  facet normal -5.585996e-01 -8.294356e-01 -1.739534e-03
    outer loop
      vertex 1.012057e+01 -4.194252e+00 1.525879e-05
      vertex 9.918156e+00 -4.194252e+00 6.500002e+01
      vertex 9.918149e+00 -4.059677e+00 8.348694e-01
    endloop
  endfacet
  facet normal 1.179098e-01 -9.930242e-01 3.671829e-04
    outer loop
      vertex 1.012057e+01 -4.194252e+00 1.525879e-05
      vertex 2.026979e+01 -2.965118e+00 6.500003e+01
      vertex 9.918156e+00 -4.194252e+00 6.500002e+01
    endloop
  endfacet
  facet normal -1.179234e-01 -9.930226e-01 3.673677e-04
    outer loop
      vertex -1.012167e+01 -4.194252e+00 1.525879e-05
      vertex -9.919239e+00 -4.194244e+00 6.500003e+01
      vertex -2.026973e+01 -2.965103e+00 6.500003e+01
    endloop
  endfacet
  facet normal -8.015788e-02 8.090562e-01 -5.822395e-01
    outer loop
      vertex -5.453676e-04 8.125267e+00 8.348424e+01
      vertex 1.524149e+01 9.635384e+00 8.348424e+01
      vertex 9.918156e+00 -4.194252e+00 6.500002e+01
    endloop
  endfacet
  facet normal 8.015749e-02 8.090562e-01 -5.822394e-01
    outer loop
      vertex -1.524258e+01 9.635376e+00 8.348424e+01
      vertex -5.453676e-04 8.125267e+00 8.348424e+01
      vertex -9.919239e+00 -4.194244e+00 6.500003e+01
    endloop
  endfacet
  facet normal 7.518393e-01 -6.593463e-01 -9.003667e-08
    outer loop
      vertex 4.642159e+01 2.626106e+01 3.185414e+01
      vertex 4.642159e+01 2.626106e+01 1.525879e-05
      vertex 5.208368e+01 3.271743e+01 1.525879e-05
    endloop
  endfacet
  facet normal 7.518395e-01 -6.593461e-01 0.000000e+00
    outer loop
      vertex 5.208368e+01 3.271743e+01 1.525879e-05
      vertex 5.208368e+01 3.271743e+01 2.271219e+01
      vertex 4.642159e+01 2.626106e+01 3.185414e+01
    endloop
  endfacet
  facet normal -7.518333e-01 -6.593533e-01 1.689969e-07
    outer loop
      vertex -4.642154e+01 2.626107e+01 1.525879e-05
      vertex -4.642153e+01 2.626107e+01 3.185414e+01
      vertex -5.208368e+01 3.271738e+01 2.271219e+01
    endloop
  endfacet
  facet normal -7.518336e-01 -6.593530e-01 0.000000e+00
    outer loop
      vertex -5.208368e+01 3.271738e+01 2.271219e+01
      vertex -5.208368e+01 3.271738e+01 1.525879e-05
      vertex -4.642154e+01 2.626107e+01 1.525879e-05
    endloop
  endfacet
  facet normal 8.314695e-01 -5.555703e-01 0.000000e+00
    outer loop
      vertex 5.208368e+01 3.271743e+01 2.271219e+01
      vertex 5.208368e+01 3.271743e+01 1.525879e-05
      vertex 5.685461e+01 3.985762e+01 1.525879e-05
    endloop
  endfacet
  facet normal 8.314698e-01 -5.555700e-01 1.412888e-07
    outer loop
      vertex 5.685461e+01 3.985762e+01 1.525879e-05
      vertex 5.685461e+01 3.985763e+01 1.500002e+01
      vertex 5.208368e+01 3.271743e+01 2.271219e+01
    endloop
  endfacet
  facet normal 0.000000e+00 0.000000e+00 1.000000e+00
    outer loop
      vertex 5.208368e+01 3.271743e+01 1.525879e-05
      vertex 5.629110e+01 -3.985763e+01 1.525879e-05
      vertex 5.685461e+01 3.985762e+01 1.525879e-05
    endloop
  endfacet
  facet normal -8.314698e-01 -5.555699e-01 0.000000e+00
    outer loop
      vertex -5.208368e+01 3.271738e+01 1.525879e-05
      vertex -5.208368e+01 3.271738e+01 2.271219e+01
      vertex -5.685460e+01 3.985758e+01 1.500002e+01
    endloop
  endfacet
  facet normal -8.314696e-01 -5.555702e-01 2.114537e-07
    outer loop
      vertex -5.685460e+01 3.985758e+01 1.500002e+01
      vertex -5.685461e+01 3.985758e+01 1.525879e-05
      vertex -5.208368e+01 3.271738e+01 1.525879e-05
    endloop
  endfacet
  facet normal 0.000000e+00 0.000000e+00 1.000000e+00
    outer loop
      vertex -5.208368e+01 3.271738e+01 1.525879e-05
      vertex -5.685461e+01 3.985758e+01 1.525879e-05
      vertex -5.629228e+01 -3.985760e+01 1.525879e-05
    endloop
  endfacet
  facet normal -9.999636e-01 7.068695e-03 -4.777314e-03
    outer loop
      vertex 5.629109e+01 -1.734092e+01 3.331898e+01
      vertex 5.685461e+01 3.985762e+01 1.525879e-05
      vertex 5.629110e+01 -3.985763e+01 1.525879e-05
    endloop
  endfacet
  facet normal -1.000000e+00 -8.420463e-08 -2.865659e-07
    outer loop
      vertex 5.629110e+01 -3.892931e+01 1.303900e+01
      vertex 5.629109e+01 -1.734092e+01 3.331898e+01
      vertex 5.629110e+01 -3.985763e+01 1.525879e-05
    endloop
  endfacet
  facet normal -9.999515e-01 9.851427e-03 -2.505347e-09
    outer loop
      vertex 5.629109e+01 -1.734092e+01 3.331898e+01
      vertex 5.685461e+01 3.985763e+01 1.500002e+01
      vertex 5.685461e+01 3.985762e+01 1.525879e-05
    endloop
  endfacet
  facet normal 9.999638e-01 7.053963e-03 -4.767349e-03
    outer loop
      vertex -5.629227e+01 -1.734094e+01 3.331898e+01
      vertex -5.629228e+01 -3.985760e+01 1.525879e-05
      vertex -5.685461e+01 3.985758e+01 1.525879e-05
    endloop
  endfacet
  facet normal 9.999517e-01 9.830746e-03 -2.543009e-07
    outer loop
      vertex -5.685460e+01 3.985758e+01 1.500002e+01
      vertex -5.629227e+01 -1.734094e+01 3.331898e+01
      vertex -5.685461e+01 3.985758e+01 1.525879e-05
    endloop
  endfacet
  facet normal 1.000000e+00 8.835816e-07 -9.405873e-07
    outer loop
      vertex -5.629227e+01 -1.734094e+01 3.331898e+01
      vertex -5.629227e+01 -3.892931e+01 1.303902e+01
      vertex -5.629228e+01 -3.985760e+01 1.525879e-05
    endloop
  endfacet
  facet normal -7.236426e-01 1.714047e-01 6.685520e-01
    outer loop
      vertex -5.629227e+01 -1.734094e+01 3.331898e+01
      vertex -3.282497e+01 1.582806e+01 5.021611e+01
      vertex -3.996516e+01 2.059899e+01 4.126437e+01
    endloop
  endfacet
  facet normal -7.518157e-01 1.913963e-01 6.309838e-01
    outer loop
      vertex -5.629227e+01 -1.734094e+01 3.331898e+01
      vertex -3.996516e+01 2.059899e+01 4.126437e+01
      vertex -4.642153e+01 2.626107e+01 3.185414e+01
    endloop
  endfacet
  facet normal -7.666964e-01 1.941259e-01 6.119573e-01
    outer loop
      vertex -5.629227e+01 -1.734094e+01 3.331898e+01
      vertex -4.642153e+01 2.626107e+01 3.185414e+01
      vertex -5.208368e+01 3.271738e+01 2.271219e+01
    endloop
  endfacet
  facet normal -7.407718e-01 1.982757e-01 6.418285e-01
    outer loop
      vertex -5.629227e+01 -1.734094e+01 3.331898e+01
      vertex -5.208368e+01 3.271738e+01 2.271219e+01
      vertex -5.685460e+01 3.985758e+01 1.500002e+01
    endloop
  endfacet
  facet normal -7.236497e-01 -1.713848e-01 -6.685494e-01
    outer loop
      vertex 5.629109e+01 -1.734092e+01 3.331898e+01
      vertex 3.282503e+01 1.582805e+01 5.021609e+01
      vertex 3.996522e+01 2.059898e+01 4.126439e+01
    endloop
  endfacet
  facet normal -7.518253e-01 -1.913772e-01 -6.309782e-01
    outer loop
      vertex 5.629109e+01 -1.734092e+01 3.331898e+01
      vertex 3.996522e+01 2.059898e+01 4.126439e+01
      vertex 4.642159e+01 2.626106e+01 3.185414e+01
    endloop
  endfacet
  facet normal -7.667087e-01 -1.941068e-01 -6.119480e-01
    outer loop
      vertex 5.629109e+01 -1.734092e+01 3.331898e+01
      vertex 4.642159e+01 2.626106e+01 3.185414e+01
      vertex 5.208368e+01 3.271743e+01 2.271219e+01
    endloop
  endfacet
  facet normal -7.407847e-01 -1.982573e-01 -6.418194e-01
    outer loop
      vertex 5.629109e+01 -1.734092e+01 3.331898e+01
      vertex 5.208368e+01 3.271743e+01 2.271219e+01
      vertex 5.685461e+01 3.985763e+01 1.500002e+01
    endloop
  endfacet
  facet normal -6.473648e-01 -5.339614e-02 7.603076e-01
    outer loop
      vertex -2.026973e+01 -2.965103e+00 6.500003e+01
      vertex -2.650170e+01 8.701797e+00 6.051317e+01
      vertex -5.629227e+01 -1.734094e+01 3.331898e+01
    endloop
  endfacet
  facet normal -7.557015e-01 2.205138e-01 6.166757e-01
    outer loop
      vertex -2.650170e+01 8.701797e+00 6.051317e+01
      vertex -3.282497e+01 1.582806e+01 5.021611e+01
      vertex -5.629227e+01 -1.734094e+01 3.331898e+01
    endloop
  endfacet
  facet normal -6.473752e-01 5.340512e-02 -7.602981e-01
    outer loop
      vertex 2.026979e+01 -2.965118e+00 6.500003e+01
      vertex 2.650176e+01 8.701782e+00 6.051317e+01
      vertex 5.629109e+01 -1.734092e+01 3.331898e+01
    endloop
  endfacet
  facet normal -7.557117e-01 -2.204967e-01 -6.166692e-01
    outer loop
      vertex 2.650176e+01 8.701782e+00 6.051317e+01
      vertex 3.282503e+01 1.582805e+01 5.021609e+01
      vertex 5.629109e+01 -1.734092e+01 3.331898e+01
    endloop
  endfacet
  facet normal -5.908059e-02 -9.014019e-01 4.289338e-01
    outer loop
      vertex -9.919247e+00 -4.059677e+00 8.348694e-01
      vertex -4.959902e+00 -4.384727e+00 8.348694e-01
      vertex -8.240178e+00 8.694130e+00 2.786819e+01
    endloop
  endfacet
  facet normal -1.202940e-01 -8.949312e-01 4.296831e-01
    outer loop
      vertex -8.240178e+00 8.694130e+00 2.786819e+01
      vertex -1.524258e+01 9.635372e+00 2.786819e+01
      vertex -9.919247e+00 -4.059677e+00 8.348694e-01
    endloop
  endfacet
  facet normal 5.866967e-02 -8.951334e-01 4.419208e-01
    outer loop
      vertex 4.958799e+00 -4.384727e+00 8.348694e-01
      vertex 9.918149e+00 -4.059677e+00 8.348694e-01
      vertex 1.524148e+01 9.635384e+00 2.786819e+01
    endloop
  endfacet
  facet normal 1.208753e-01 -8.992531e-01 4.203961e-01
    outer loop
      vertex 1.524148e+01 9.635384e+00 2.786819e+01
      vertex 8.239076e+00 8.694138e+00 2.786819e+01
      vertex 4.958799e+00 -4.384727e+00 8.348694e-01
    endloop
  endfacet
  facet normal -1.332189e-01 -9.910867e-01 1.483301e-08
    outer loop
      vertex -1.524258e+01 9.635372e+00 2.786819e+01
      vertex -8.240178e+00 8.694130e+00 2.786819e+01
      vertex -8.240173e+00 8.694130e+00 7.069412e+01
    endloop
  endfacet
  facet normal -1.332189e-01 -9.910867e-01 1.385972e-08
    outer loop
      vertex -8.240173e+00 8.694130e+00 7.069412e+01
      vertex -1.524258e+01 9.635372e+00 6.453488e+01
      vertex -1.524258e+01 9.635372e+00 2.786819e+01
    endloop
  endfacet
  facet normal 1.332194e-01 -9.910866e-01 -1.385977e-08
    outer loop
      vertex 8.239076e+00 8.694138e+00 2.786819e+01
      vertex 1.524148e+01 9.635384e+00 2.786819e+01
      vertex 1.524149e+01 9.635384e+00 6.453487e+01
    endloop
  endfacet
  facet normal 1.332193e-01 -9.910866e-01 -1.186645e-08
    outer loop
      vertex 1.524149e+01 9.635384e+00 6.453487e+01
      vertex 8.239079e+00 8.694138e+00 7.069411e+01
      vertex 8.239076e+00 8.694138e+00 2.786819e+01
    endloop
  endfacet
  facet normal -9.857433e-02 -9.949434e-01 1.925153e-02
    outer loop
      vertex -8.240173e+00 8.694130e+00 7.069412e+01
      vertex -5.453676e-04 8.125267e+00 8.348424e+01
      vertex -1.524258e+01 9.635376e+00 8.348424e+01
    endloop
  endfacet
  facet normal -1.332191e-01 -9.910866e-01 1.928112e-07
    outer loop
      vertex -1.524258e+01 9.635372e+00 6.453488e+01
      vertex -8.240173e+00 8.694130e+00 7.069412e+01
      vertex -1.524258e+01 9.635376e+00 8.348424e+01
    endloop
  endfacet
  facet normal -1.304214e-01 -9.906531e-01 3.995883e-02
    outer loop
      vertex -8.240173e+00 8.694130e+00 7.069412e+01
      vertex -5.494282e-04 7.609367e+00 7.069412e+01
      vertex -5.453676e-04 8.125267e+00 8.348424e+01
    endloop
  endfacet
  facet normal 9.857480e-02 -9.949434e-01 1.925120e-02
    outer loop
      vertex 8.239079e+00 8.694138e+00 7.069411e+01
      vertex 1.524149e+01 9.635384e+00 8.348424e+01
      vertex -5.453676e-04 8.125267e+00 8.348424e+01
    endloop
  endfacet
  facet normal 1.304223e-01 -9.906530e-01 3.995875e-02
    outer loop
      vertex -5.494282e-04 7.609367e+00 7.069412e+01
      vertex 8.239079e+00 8.694138e+00 7.069411e+01
      vertex -5.453676e-04 8.125267e+00 8.348424e+01
    endloop
  endfacet
  facet normal 1.332193e-01 -9.910866e-01 -1.340919e-08
    outer loop
      vertex 8.239079e+00 8.694138e+00 7.069411e+01
      vertex 1.524149e+01 9.635384e+00 6.453487e+01
      vertex 1.524149e+01 9.635384e+00 8.348424e+01
    endloop
  endfacet
  facet normal -6.440485e-02 -9.826351e-01 1.740125e-01
    outer loop
      vertex -4.959902e+00 -4.384727e+00 8.348694e-01
      vertex -9.919247e+00 -4.059677e+00 8.348694e-01
      vertex -1.012167e+01 -4.194252e+00 1.525879e-05
    endloop
  endfacet
  facet normal -6.440414e-02 -9.826359e-01 1.740079e-01
    outer loop
      vertex -1.012167e+01 -4.194252e+00 1.525879e-05
      vertex -5.061111e+00 -4.525932e+00 1.525879e-05
      vertex -4.959902e+00 -4.384727e+00 8.348694e-01
    endloop
  endfacet
  facet normal 6.440473e-02 -9.826343e-01 1.740169e-01
    outer loop
      vertex 9.918149e+00 -4.059677e+00 8.348694e-01
      vertex 4.958799e+00 -4.384727e+00 8.348694e-01
      vertex 5.060010e+00 -4.525940e+00 1.525879e-05
    endloop
  endfacet
  facet normal 6.440553e-02 -9.826350e-01 1.740126e-01
    outer loop
      vertex 5.060010e+00 -4.525940e+00 1.525879e-05
      vertex 1.012057e+01 -4.194252e+00 1.525879e-05
      vertex 9.918149e+00 -4.059677e+00 8.348694e-01
    endloop
  endfacet
  facet normal -1.256448e-01 -9.543709e-01 2.709051e-01
    outer loop
      vertex -5.494282e-04 7.609367e+00 7.069412e+01
      vertex -8.240173e+00 8.694130e+00 7.069412e+01
      vertex -4.959898e+00 -7.416916e+00 1.545793e+01
    endloop
  endfacet
  facet normal -1.772553e-16 -9.649327e-01 2.624973e-01
    outer loop
      vertex -4.959898e+00 -7.416916e+00 1.545793e+01
      vertex -5.472116e-04 -7.416916e+00 1.545793e+01
      vertex -5.494282e-04 7.609367e+00 7.069412e+01
    endloop
  endfacet
  facet normal -1.772553e-16 -9.649327e-01 2.624973e-01
    outer loop
      vertex -5.494282e-04 7.609367e+00 7.069412e+01
      vertex -5.472116e-04 -7.416916e+00 1.545793e+01
      vertex 4.958803e+00 -7.416916e+00 1.545793e+01
    endloop
  endfacet
  facet normal 1.256461e-01 -9.543707e-01 2.709051e-01
    outer loop
      vertex 4.958803e+00 -7.416916e+00 1.545793e+01
      vertex 8.239079e+00 8.694138e+00 7.069411e+01
      vertex -5.494282e-04 7.609367e+00 7.069412e+01
    endloop
  endfacet
  facet normal -9.926955e-01 -1.181344e-01 -2.449565e-02
    outer loop
      vertex -4.959902e+00 -4.384727e+00 8.348694e-01
      vertex -4.959898e+00 -7.416916e+00 1.545793e+01
      vertex -8.240173e+00 8.694130e+00 7.069412e+01
    endloop
  endfacet
  facet normal -9.699579e-01 -2.432730e-01 1.079981e-07
    outer loop
      vertex -8.240173e+00 8.694130e+00 7.069412e+01
      vertex -8.240178e+00 8.694130e+00 2.786819e+01
      vertex -4.959902e+00 -4.384727e+00 8.348694e-01
    endloop
  endfacet
  facet normal 9.699579e-01 -2.432725e-01 -8.639853e-08
    outer loop
      vertex 4.958799e+00 -4.384727e+00 8.348694e-01
      vertex 8.239076e+00 8.694138e+00 2.786819e+01
      vertex 8.239079e+00 8.694138e+00 7.069411e+01
    endloop
  endfacet
  facet normal 9.926956e-01 -1.181333e-01 -2.449598e-02
    outer loop
      vertex 8.239079e+00 8.694138e+00 7.069411e+01
      vertex 4.958803e+00 -7.416916e+00 1.545793e+01
      vertex 4.958799e+00 -4.384727e+00 8.348694e-01
    endloop
  endfacet
  facet normal 4.950201e-01 8.507835e-01 1.764155e-01
    outer loop
      vertex 4.958799e+00 -4.384727e+00 8.348694e-01
      vertex 4.958803e+00 -7.416916e+00 1.545793e+01
      vertex 1.134611e+01 -7.928009e+00 1.525879e-05
    endloop
  endfacet
  facet normal -5.034367e-01 8.460351e-01 1.754311e-01
    outer loop
      vertex -4.959898e+00 -7.416916e+00 1.545793e+01
      vertex -4.959902e+00 -4.384727e+00 8.348694e-01
      vertex -1.120539e+01 -7.928017e+00 1.525879e-05
    endloop
  endfacet
  facet normal 4.740084e-01 8.758386e-01 -9.067956e-02
    outer loop
      vertex 5.060010e+00 -4.525940e+00 1.525879e-05
      vertex 4.958799e+00 -4.384727e+00 8.348694e-01
      vertex 1.134611e+01 -7.928009e+00 1.525879e-05
    endloop
  endfacet
  facet normal -4.824842e-01 8.713824e-01 -8.889167e-02
    outer loop
      vertex -4.959902e+00 -4.384727e+00 8.348694e-01
      vertex -5.061111e+00 -4.525932e+00 1.525879e-05
      vertex -1.120539e+01 -7.928017e+00 1.525879e-05
    endloop
  endfacet
  facet normal -1.351911e-07 -9.974752e-01 7.101552e-02
    outer loop
      vertex -5.515553e-04 -3.985762e+01 1.525879e-05
      vertex 5.629110e+01 -3.985763e+01 1.525879e-05
      vertex 5.629110e+01 -3.892931e+01 1.303900e+01
    endloop
  endfacet
  facet normal -2.703819e-07 -9.974753e-01 7.101428e-02
    outer loop
      vertex -5.629228e+01 -3.985760e+01 1.525879e-05
      vertex -5.515553e-04 -3.985762e+01 1.525879e-05
      vertex -5.629227e+01 -3.892931e+01 1.303902e+01
    endloop
  endfacet
  facet normal -5.797061e-08 -9.974752e-01 7.101519e-02
    outer loop
      vertex -5.515553e-04 -3.985762e+01 1.525879e-05
      vertex 5.629110e+01 -3.892931e+01 1.303900e+01
      vertex -5.629227e+01 -3.892931e+01 1.303902e+01
    endloop
  endfacet
  facet normal -8.531857e-07 8.321186e-01 -5.545978e-01
    outer loop
      vertex -5.419403e-04 -4.194252e+00 6.500003e+01
      vertex -5.453676e-04 8.125267e+00 8.348424e+01
      vertex 9.918156e+00 -4.194252e+00 6.500002e+01
    endloop
  endfacet
  facet normal 6.400600e-07 8.321186e-01 -5.545978e-01
    outer loop
      vertex -9.919239e+00 -4.194244e+00 6.500003e+01
      vertex -5.453676e-04 8.125267e+00 8.348424e+01
      vertex -5.419403e-04 -4.194252e+00 6.500003e+01
    endloop
  endfacet
  facet normal 7.104513e-07 9.236318e-01 -3.832810e-01
    outer loop
      vertex -9.919239e+00 -4.194244e+00 6.500003e+01
      vertex -5.419403e-04 -4.194252e+00 6.500003e+01
      vertex -5.629227e+01 -1.734094e+01 3.331898e+01
    endloop
  endfacet
  facet normal 1.017998e-01 8.572472e-01 -5.047415e-01
    outer loop
      vertex -2.026973e+01 -2.965103e+00 6.500003e+01
      vertex -9.919239e+00 -4.194244e+00 6.500003e+01
      vertex -5.629227e+01 -1.734094e+01 3.331898e+01
    endloop
  endfacet
  facet normal -5.896330e-07 9.236321e-01 -3.832802e-01
    outer loop
      vertex 5.629109e+01 -1.734092e+01 3.331898e+01
      vertex -5.419403e-04 -4.194252e+00 6.500003e+01
      vertex 9.918156e+00 -4.194252e+00 6.500002e+01
    endloop
  endfacet
  facet normal -1.017883e-01 8.572567e-01 -5.047277e-01
    outer loop
      vertex 2.026979e+01 -2.965118e+00 6.500003e+01
      vertex 5.629109e+01 -1.734092e+01 3.331898e+01
      vertex 9.918156e+00 -4.194252e+00 6.500002e+01
    endloop
  endfacet
  facet normal -2.034234e-02 9.101308e-01 -4.138213e-01
    outer loop
      vertex 5.629109e+01 -1.734092e+01 3.331898e+01
      vertex 5.194957e+01 -1.745433e+01 3.328297e+01
      vertex -5.419403e-04 -4.194252e+00 6.500003e+01
    endloop
  endfacet
  facet normal 3.310917e-08 9.226153e-01 -3.857215e-01
    outer loop
      vertex 5.194957e+01 -1.745433e+01 3.328297e+01
      vertex -5.255503e+01 -1.745431e+01 3.328302e+01
      vertex -5.419403e-04 -4.194252e+00 6.500003e+01
    endloop
  endfacet
  facet normal 2.351250e-02 9.078991e-01 -4.185287e-01
    outer loop
      vertex -5.255503e+01 -1.745431e+01 3.328302e+01
      vertex -5.629227e+01 -1.734094e+01 3.331898e+01
      vertex -5.419403e-04 -4.194252e+00 6.500003e+01
    endloop
  endfacet
  facet normal 1.380246e-02 6.858506e-01 -7.276115e-01
    outer loop
      vertex -5.255503e+01 -1.745431e+01 3.328302e+01
      vertex -5.255508e+01 -3.426374e+01 1.743835e+01
      vertex -5.629227e+01 -1.734094e+01 3.331898e+01
    endloop
  endfacet
  facet normal 3.224913e-03 6.846717e-01 -7.288445e-01
    outer loop
      vertex -5.255508e+01 -3.426374e+01 1.743835e+01
      vertex -5.629227e+01 -3.892931e+01 1.303902e+01
      vertex -5.629227e+01 -1.734094e+01 3.331898e+01
    endloop
  endfacet
  facet normal -5.333047e-07 6.860442e-01 -7.275599e-01
    outer loop
      vertex -4.155277e+01 -3.426375e+01 1.743834e+01
      vertex -5.629227e+01 -3.892931e+01 1.303902e+01
      vertex -5.255508e+01 -3.426374e+01 1.743835e+01
    endloop
  endfacet
  facet normal 6.344354e-08 6.860431e-01 -7.275609e-01
    outer loop
      vertex -4.155277e+01 -3.426375e+01 1.743834e+01
      vertex 4.094725e+01 -3.426376e+01 1.743834e+01
      vertex -5.629227e+01 -3.892931e+01 1.303902e+01
    endloop
  endfacet
  facet normal -5.211761e-08 6.860444e-01 -7.275597e-01
    outer loop
      vertex 4.094725e+01 -3.426376e+01 1.743834e+01
      vertex 5.629110e+01 -3.892931e+01 1.303900e+01
      vertex -5.629227e+01 -3.892931e+01 1.303902e+01
    endloop
  endfacet
  facet normal -2.493802e-06 6.860402e-01 -7.275637e-01
    outer loop
      vertex 4.094725e+01 -3.426376e+01 1.743834e+01
      vertex 5.194955e+01 -3.426375e+01 1.743831e+01
      vertex 5.629110e+01 -3.892931e+01 1.303900e+01
    endloop
  endfacet
  facet normal -2.771363e-03 6.846724e-01 -7.288457e-01
    outer loop
      vertex 5.194955e+01 -3.426375e+01 1.743831e+01
      vertex 5.629109e+01 -1.734092e+01 3.331898e+01
      vertex 5.629110e+01 -3.892931e+01 1.303900e+01
    endloop
  endfacet
  facet normal -1.188118e-02 6.858679e-01 -7.276291e-01
    outer loop
      vertex 5.194955e+01 -3.426375e+01 1.743831e+01
      vertex 5.194957e+01 -1.745433e+01 3.328297e+01
      vertex 5.629109e+01 -1.734092e+01 3.331898e+01
    endloop
  endfacet
  facet normal -1.524769e-07 -6.131926e-01 7.899335e-01
    outer loop
      vertex 4.569189e+01 -2.445516e+01 7.032501e+00
      vertex -4.635397e+01 -2.445514e+01 7.032501e+00
      vertex -5.059473e+01 -3.351460e+01 1.525879e-05
    endloop
  endfacet
  facet normal -1.395338e-07 -6.131926e-01 7.899334e-01
    outer loop
      vertex -5.059473e+01 -3.351460e+01 1.525879e-05
      vertex 4.998922e+01 -3.351463e+01 1.525879e-05
      vertex 4.569189e+01 -2.445516e+01 7.032501e+00
    endloop
  endfacet
  facet normal 0.000000e+00 0.000000e+00 1.000000e+00
    outer loop
      vertex -5.515553e-04 -3.985762e+01 1.525879e-05
      vertex 5.629110e+01 -3.985763e+01 1.525879e-05
      vertex 4.998922e+01 -3.351463e+01 1.525879e-05
    endloop
  endfacet
  facet normal 0.000000e+00 0.000000e+00 1.000000e+00
    outer loop
      vertex -5.515553e-04 -3.985762e+01 1.525879e-05
      vertex 4.998922e+01 -3.351463e+01 1.525879e-05
      vertex -5.059473e+01 -3.351460e+01 1.525879e-05
    endloop
  endfacet
  facet normal 0.000000e+00 0.000000e+00 1.000000e+00
    outer loop
      vertex -5.629228e+01 -3.985760e+01 1.525879e-05
      vertex -5.515553e-04 -3.985762e+01 1.525879e-05
      vertex -5.059473e+01 -3.351460e+01 1.525879e-05
    endloop
  endfacet
  facet normal 6.977930e-08 7.545542e-01 6.562378e-01
    outer loop
      vertex -4.155273e+01 -1.255003e+01 2.808009e+01
      vertex 4.094725e+01 -1.255003e+01 2.808009e+01
      vertex 4.094725e+01 -1.055685e+01 2.578830e+01
    endloop
  endfacet
  facet normal -2.093392e-07 7.545591e-01 6.562321e-01
    outer loop
      vertex -4.155273e+01 -1.255003e+01 2.808009e+01
      vertex 4.094725e+01 -1.055685e+01 2.578830e+01
      vertex -4.155275e+01 -1.055688e+01 2.578830e+01
    endloop
  endfacet
  facet normal 4.901725e-07 7.335948e-07 -1.000000e+00
    outer loop
      vertex -3.282497e+01 1.582806e+01 1.525879e-05
      vertex -5.023944e+01 6.664017e+00 0.000000e+00
      vertex -3.996516e+01 2.059899e+01 1.525879e-05
    endloop
  endfacet
  facet normal 0.000000e+00 -0.000000e+00 -1.000000e+00
    outer loop
      vertex 4.957993e+01 6.664032e+00 1.525879e-05
      vertex 3.282503e+01 1.582806e+01 1.525879e-05
      vertex 3.996522e+01 2.059898e+01 1.525879e-05
    endloop
  endfacet
  facet normal -6.146236e-07 -3.283068e-07 1.000000e+00
    outer loop
      vertex -5.023944e+01 6.664017e+00 0.000000e+00
      vertex -2.026972e+01 -2.965103e+00 1.525879e-05
      vertex -2.650170e+01 8.701797e+00 1.525879e-05
    endloop
  endfacet
  facet normal -5.973088e-07 -5.300034e-07 1.000000e+00
    outer loop
      vertex -3.282497e+01 1.582806e+01 1.525879e-05
      vertex -5.023944e+01 6.664017e+00 0.000000e+00
      vertex -2.650170e+01 8.701797e+00 1.525879e-05
    endloop
  endfacet
  facet normal 0.000000e+00 0.000000e+00 1.000000e+00
    outer loop
      vertex -1.120539e+01 -7.928017e+00 1.525879e-05
      vertex -5.061111e+00 -4.525932e+00 1.525879e-05
      vertex -1.012167e+01 -4.194252e+00 1.525879e-05
    endloop
  endfacet
  facet normal -1.232241e-06 -2.250583e-06 1.000000e+00
    outer loop
      vertex -2.026972e+01 -2.965103e+00 1.525879e-05
      vertex -5.023944e+01 6.664017e+00 0.000000e+00
      vertex -1.120539e+01 -7.928017e+00 1.525879e-05
    endloop
  endfacet
  facet normal 0.000000e+00 0.000000e+00 1.000000e+00
    outer loop
      vertex -2.026972e+01 -2.965103e+00 1.525879e-05
      vertex -1.120539e+01 -7.928017e+00 1.525879e-05
      vertex -1.012167e+01 -4.194252e+00 1.525879e-05
    endloop
  endfacet
  facet normal 0.000000e+00 0.000000e+00 1.000000e+00
    outer loop
      vertex 1.134611e+01 -7.928009e+00 1.525879e-05
      vertex 4.957993e+01 6.664032e+00 1.525879e-05
      vertex 2.026978e+01 -2.965118e+00 1.525879e-05
    endloop
  endfacet
  facet normal 0.000000e+00 0.000000e+00 1.000000e+00
    outer loop
      vertex 1.134611e+01 -7.928009e+00 1.525879e-05
      vertex 2.026978e+01 -2.965118e+00 1.525879e-05
      vertex 1.012057e+01 -4.194252e+00 1.525879e-05
    endloop
  endfacet
  facet normal 0.000000e+00 0.000000e+00 1.000000e+00
    outer loop
      vertex 1.134611e+01 -7.928009e+00 1.525879e-05
      vertex 1.012057e+01 -4.194252e+00 1.525879e-05
      vertex 5.060010e+00 -4.525940e+00 1.525879e-05
    endloop
  endfacet
  facet normal 0.000000e+00 0.000000e+00 1.000000e+00
    outer loop
      vertex 4.957993e+01 6.664032e+00 1.525879e-05
      vertex 3.282503e+01 1.582806e+01 1.525879e-05
      vertex 2.650176e+01 8.701782e+00 1.525879e-05
    endloop
  endfacet
  facet normal 0.000000e+00 0.000000e+00 1.000000e+00
    outer loop
      vertex 4.957993e+01 6.664032e+00 1.525879e-05
      vertex 2.650176e+01 8.701782e+00 1.525879e-05
      vertex 2.026978e+01 -2.965118e+00 1.525879e-05
    endloop
  endfacet
  facet normal -9.567704e-01 -5.491558e-02 2.856130e-01
    outer loop
      vertex -4.635397e+01 -2.445514e+01 7.032501e+00
      vertex -4.155275e+01 -1.055688e+01 2.578830e+01
      vertex -5.023944e+01 6.664017e+00 0.000000e+00
    endloop
  endfacet
  facet normal -8.606286e-01 7.610680e-03 5.091763e-01
    outer loop
      vertex -4.635397e+01 -2.445514e+01 7.032501e+00
      vertex -5.023944e+01 6.664017e+00 0.000000e+00
      vertex -5.059473e+01 -3.351460e+01 1.525879e-05
    endloop
  endfacet
  facet normal -4.270010e-07 3.835498e-07 1.000000e+00
    outer loop
      vertex -5.629228e+01 -3.985760e+01 1.525879e-05
      vertex -5.059473e+01 -3.351460e+01 1.525879e-05
      vertex -5.023944e+01 6.664017e+00 0.000000e+00
    endloop
  endfacet
  facet normal 9.573969e-01 -5.557833e-02 2.833763e-01
    outer loop
      vertex 4.094725e+01 -1.055685e+01 2.578830e+01
      vertex 4.569189e+01 -2.445516e+01 7.032501e+00
      vertex 4.957993e+01 6.664032e+00 1.525879e-05
    endloop
  endfacet
  facet normal 8.582371e-01 8.742737e-03 5.131788e-01
    outer loop
      vertex 4.569189e+01 -2.445516e+01 7.032501e+00
      vertex 4.998922e+01 -3.351463e+01 1.525879e-05
      vertex 4.957993e+01 6.664032e+00 1.525879e-05
    endloop
  endfacet
  facet normal 0.000000e+00 0.000000e+00 1.000000e+00
    outer loop
      vertex 5.629110e+01 -3.985763e+01 1.525879e-05
      vertex 4.957993e+01 6.664032e+00 1.525879e-05
      vertex 4.998922e+01 -3.351463e+01 1.525879e-05
    endloop
  endfacet
  facet normal 1.757574e-16 9.567786e-01 2.908171e-01
    outer loop
      vertex -4.155275e+01 -1.055688e+01 2.578830e+01
      vertex -5.472116e-04 -7.416916e+00 1.545793e+01
      vertex -4.959898e+00 -7.416916e+00 1.545793e+01
    endloop
  endfacet
  facet normal 1.757575e-16 9.567792e-01 2.908152e-01
    outer loop
      vertex 4.094725e+01 -1.055685e+01 2.578830e+01
      vertex 4.958803e+00 -7.416916e+00 1.545793e+01
      vertex -5.472116e-04 -7.416916e+00 1.545793e+01
    endloop
  endfacet
  facet normal -2.654416e-07 9.567789e-01 2.908162e-01
    outer loop
      vertex 4.094725e+01 -1.055685e+01 2.578830e+01
      vertex -5.472116e-04 -7.416916e+00 1.545793e+01
      vertex -4.155275e+01 -1.055688e+01 2.578830e+01
    endloop
  endfacet
  facet normal 5.831963e-07 6.650083e-07 -1.000000e+00
    outer loop
      vertex -3.996516e+01 2.059899e+01 1.525879e-05
      vertex -5.023944e+01 6.664017e+00 0.000000e+00
      vertex -4.642154e+01 2.626107e+01 1.525879e-05
    endloop
  endfacet
  facet normal 0.000000e+00 -0.000000e+00 -1.000000e+00
    outer loop
      vertex 4.642159e+01 2.626106e+01 1.525879e-05
      vertex 4.957993e+01 6.664032e+00 1.525879e-05
      vertex 3.996522e+01 2.059898e+01 1.525879e-05
    endloop
  endfacet
  facet normal 4.547982e-06 -2.637359e-07 1.000000e+00
    outer loop
      vertex -5.629228e+01 -3.985760e+01 1.525879e-05
      vertex -5.023944e+01 6.664017e+00 0.000000e+00
      vertex -5.208368e+01 3.271738e+01 1.525879e-05
    endloop
  endfacet
  facet normal -7.264573e-07 -6.370981e-07 1.000000e+00
    outer loop
      vertex -5.023944e+01 6.664017e+00 0.000000e+00
      vertex -4.642154e+01 2.626107e+01 1.525879e-05
      vertex -5.208368e+01 3.271738e+01 1.525879e-05
    endloop
  endfacet
  facet normal 0.000000e+00 0.000000e+00 1.000000e+00
    outer loop
      vertex 4.642159e+01 2.626106e+01 1.525879e-05
      vertex 4.957993e+01 6.664032e+00 1.525879e-05
      vertex 5.208368e+01 3.271743e+01 1.525879e-05
    endloop
  endfacet
  facet normal 0.000000e+00 0.000000e+00 1.000000e+00
    outer loop
      vertex 4.957993e+01 6.664032e+00 1.525879e-05
      vertex 5.629110e+01 -3.985763e+01 1.525879e-05
      vertex 5.208368e+01 3.271743e+01 1.525879e-05
    endloop
  endfacet
  facet normal 1.464562e-02 9.991337e-01 -3.895267e-02
    outer loop
      vertex -1.120539e+01 -7.928017e+00 1.525879e-05
      vertex -3.135355e+01 -7.129982e+00 1.289415e+01
      vertex -4.959898e+00 -7.416916e+00 1.545793e+01
    endloop
  endfacet
  facet normal -1.344749e-02 9.689521e-01 2.468828e-01
    outer loop
      vertex -3.135355e+01 -7.129982e+00 1.289415e+01
      vertex -4.155275e+01 -1.055688e+01 2.578830e+01
      vertex -4.959898e+00 -7.416916e+00 1.545793e+01
    endloop
  endfacet
  facet normal 1.360073e-02 9.688907e-01 2.471149e-01
    outer loop
      vertex 4.094725e+01 -1.055685e+01 2.578830e+01
      vertex 3.109930e+01 -7.129974e+00 1.289417e+01
      vertex 4.958803e+00 -7.416916e+00 1.545793e+01
    endloop
  endfacet
  facet normal -1.480726e-02 9.991235e-01 -3.915299e-02
    outer loop
      vertex 3.109930e+01 -7.129974e+00 1.289417e+01
      vertex 1.134611e+01 -7.928009e+00 1.525879e-05
      vertex 4.958803e+00 -7.416916e+00 1.545793e+01
    endloop
  endfacet
  facet normal -3.203932e-01 8.394890e-01 4.388694e-01
    outer loop
      vertex 1.134611e+01 -7.928009e+00 1.525879e-05
      vertex 3.109930e+01 -7.129974e+00 1.289417e+01
      vertex 4.957993e+01 6.664032e+00 1.525879e-05
    endloop
  endfacet
  facet normal -3.058972e-01 8.358768e-01 4.557817e-01
    outer loop
      vertex 3.109930e+01 -7.129974e+00 1.289417e+01
      vertex 4.094725e+01 -1.055685e+01 2.578830e+01
      vertex 4.957993e+01 6.664032e+00 1.525879e-05
    endloop
  endfacet
  facet normal 2.983796e-01 8.371088e-01 4.584959e-01
    outer loop
      vertex -4.155275e+01 -1.055688e+01 2.578830e+01
      vertex -3.135355e+01 -7.129982e+00 1.289415e+01
      vertex -5.023944e+01 6.664017e+00 0.000000e+00
    endloop
  endfacet
  facet normal 3.145426e-01 8.414097e-01 4.394232e-01
    outer loop
      vertex -3.135355e+01 -7.129982e+00 1.289415e+01
      vertex -1.120539e+01 -7.928017e+00 1.525879e-05
      vertex -5.023944e+01 6.664017e+00 0.000000e+00
    endloop
  endfacet
endsolid Default
