solid Default
  facet normal -2.823302e-03 3.131491e-04 -9.999959e-01
    outer loop
      vertex -8.637380e+01 3.494544e+01 6.530253e-02
      vertex -6.241561e+01 4.242549e+01 3.423542e-06
      vertex -6.338069e+01 3.372276e+01 2.883375e-06
    endloop
  endfacet
  facet normal -2.583183e-03 -4.559461e-04 -9.999965e-01
    outer loop
      vertex -8.637380e+01 3.494544e+01 6.530253e-02
      vertex -8.817734e+01 4.515405e+01 6.530683e-02
      vertex -6.241561e+01 4.242549e+01 3.423542e-06
    endloop
  endfacet
  facet normal 3.957327e-03 4.098835e-04 -9.999921e-01
    outer loop
      vertex -5.688346e+01 2.613104e+01 3.017485e-06
      vertex -4.144554e+01 2.900479e+01 6.227430e-02
      vertex -4.205164e+01 2.448391e+01 5.802273e-02
    endloop
  endfacet
  facet normal 3.985423e-03 2.589530e-04 -9.999920e-01
    outer loop
      vertex -5.688346e+01 2.613104e+01 3.017485e-06
      vertex -5.738115e+01 3.379400e+01 3.851950e-06
      vertex -4.144554e+01 2.900479e+01 6.227430e-02
    endloop
  endfacet
  facet normal 3.776514e-03 -4.361796e-04 -9.999928e-01
    outer loop
      vertex -5.738115e+01 3.379400e+01 3.851950e-06
      vertex -5.650009e+01 4.142239e+01 3.863126e-06
      vertex -4.144554e+01 2.900479e+01 6.227430e-02
    endloop
  endfacet
  facet normal -2.375660e-03 1.503369e-03 -9.999961e-01
    outer loop
      vertex -6.241561e+01 4.242549e+01 3.423542e-06
      vertex -8.817734e+01 4.515405e+01 6.530683e-02
      vertex -8.163286e+01 5.549699e+01 6.530862e-02
    endloop
  endfacet
  facet normal 3.311400e-03 -1.000069e-03 -9.999940e-01
    outer loop
      vertex -4.144554e+01 2.900479e+01 6.227430e-02
      vertex -5.650009e+01 4.142239e+01 3.863126e-06
      vertex -5.476856e+01 4.715409e+01 5.546957e-06
    endloop
  endfacet
  facet normal -3.174663e-03 -2.204793e-04 -9.999949e-01
    outer loop
      vertex -6.277350e+01 2.498777e+01 1.143664e-06
      vertex -8.334535e+01 2.503096e+01 6.530064e-02
      vertex -6.338069e+01 3.372276e+01 2.883375e-06
    endloop
  endfacet
  facet normal -3.177160e-03 -1.411228e-03 -9.999940e-01
    outer loop
      vertex -6.277350e+01 2.498777e+01 1.143664e-06
      vertex -7.913672e+01 1.555700e+01 6.529906e-02
      vertex -8.334535e+01 2.503096e+01 6.530064e-02
    endloop
  endfacet
  facet normal -2.886834e-03 -8.816137e-04 -9.999955e-01
    outer loop
      vertex -8.637380e+01 3.494544e+01 6.530253e-02
      vertex -6.338069e+01 3.372276e+01 2.883375e-06
      vertex -8.334535e+01 2.503096e+01 6.530064e-02
    endloop
  endfacet
  facet normal -3.480036e-03 -8.857097e-04 -9.999936e-01
    outer loop
      vertex -6.061359e+01 1.650227e+01 2.719462e-07
      vertex -7.913672e+01 1.555700e+01 6.529906e-02
      vertex -6.277350e+01 2.498777e+01 1.143664e-06
    endloop
  endfacet
  facet normal -3.420682e-03 -2.048668e-03 -9.999921e-01
    outer loop
      vertex -6.061359e+01 1.650227e+01 2.719462e-07
      vertex -7.381005e+01 6.663474e+00 6.529810e-02
      vertex -7.913672e+01 1.555700e+01 6.529906e-02
    endloop
  endfacet
  facet normal 4.023391e-03 1.004790e-03 -9.999914e-01
    outer loop
      vertex -5.688346e+01 2.613104e+01 3.017485e-06
      vertex -4.205164e+01 2.448391e+01 5.802273e-02
      vertex -5.502306e+01 1.868071e+01 2.127141e-06
    endloop
  endfacet
  facet normal 3.658825e-03 1.819679e-03 -9.999917e-01
    outer loop
      vertex -4.101370e+01 2.007952e+01 5.380576e-02
      vertex -5.502306e+01 1.868071e+01 2.127141e-06
      vertex -4.205164e+01 2.448391e+01 5.802273e-02
    endloop
  endfacet
  facet normal 3.674661e-03 1.661081e-03 -9.999919e-01
    outer loop
      vertex -4.101370e+01 2.007952e+01 5.380576e-02
      vertex -5.185994e+01 1.168333e+01 2.276152e-06
      vertex -5.502306e+01 1.868071e+01 2.127141e-06
    endloop
  endfacet
  facet normal -3.689534e-03 -1.688063e-03 -9.999918e-01
    outer loop
      vertex -5.697065e+01 8.539991e+00 3.278255e-07
      vertex -7.381005e+01 6.663474e+00 6.529810e-02
      vertex -6.061359e+01 1.650227e+01 2.719462e-07
    endloop
  endfacet
  facet normal -3.568206e-03 -2.776765e-03 -9.999898e-01
    outer loop
      vertex -5.697065e+01 8.539991e+00 3.278255e-07
      vertex -6.744399e+01 -1.518328e+00 6.530162e-02
      vertex -7.381005e+01 6.663474e+00 6.529810e-02
    endloop
  endfacet
  facet normal 2.952744e-03 2.593659e-03 -9.999923e-01
    outer loop
      vertex -3.889753e+01 1.602696e+01 4.954326e-02
      vertex -5.185994e+01 1.168333e+01 2.276152e-06
      vertex -4.101370e+01 2.007952e+01 5.380576e-02
    endloop
  endfacet
  facet normal 3.103623e-03 2.143408e-03 -9.999929e-01
    outer loop
      vertex -3.889753e+01 1.602696e+01 4.954326e-02
      vertex -4.749617e+01 5.364611e+00 2.194196e-06
      vertex -5.185994e+01 1.168333e+01 2.276152e-06
    endloop
  endfacet
  facet normal -2.828965e-03 8.369337e-04 -9.999956e-01
    outer loop
      vertex -6.241561e+01 4.242549e+01 3.423542e-06
      vertex -8.163286e+01 5.549699e+01 6.530862e-02
      vertex -6.048475e+01 4.895510e+01 5.926937e-06
    endloop
  endfacet
  facet normal -3.734170e-03 -2.603952e-03 -9.999896e-01
    outer loop
      vertex -5.196218e+01 1.357781e+00 0.000000e+00
      vertex -6.744399e+01 -1.518328e+00 6.530162e-02
      vertex -5.697065e+01 8.539991e+00 3.278255e-07
    endloop
  endfacet
  facet normal -3.637453e-03 -3.124546e-03 -9.999885e-01
    outer loop
      vertex -5.196218e+01 1.357781e+00 0.000000e+00
      vertex -6.013254e+01 -8.867556e+00 6.166954e-02
      vertex -6.744399e+01 -1.518328e+00 6.530162e-02
    endloop
  endfacet
  facet normal -3.339592e-03 -3.362548e-03 -9.999888e-01
    outer loop
      vertex -4.574976e+01 -4.812685e+00 1.531094e-06
      vertex -6.013254e+01 -8.867556e+00 6.166954e-02
      vertex -5.196218e+01 1.357781e+00 0.000000e+00
    endloop
  endfacet
  facet normal -3.469367e-03 -2.902247e-03 -9.999897e-01
    outer loop
      vertex -4.574976e+01 -4.812685e+00 1.531094e-06
      vertex -5.198367e+01 -1.527572e+01 5.199611e-02
      vertex -6.013254e+01 -8.867556e+00 6.166954e-02
    endloop
  endfacet
  facet normal 1.907952e-03 3.107659e-03 -9.999933e-01
    outer loop
      vertex -3.529548e+01 1.225028e+01 4.467914e-02
      vertex -4.749617e+01 5.364611e+00 2.194196e-06
      vertex -3.889753e+01 1.602696e+01 4.954326e-02
    endloop
  endfacet
  facet normal 2.342728e-03 2.337289e-03 -9.999945e-01
    outer loop
      vertex -3.529548e+01 1.225028e+01 4.467914e-02
      vertex -4.207251e+01 -7.160512e-02 2.346933e-06
      vertex -4.749617e+01 5.364611e+00 2.194196e-06
    endloop
  endfacet
  facet normal -2.423211e-03 -3.525556e-03 -9.999908e-01
    outer loop
      vertex -3.853376e+01 -9.772358e+00 1.247972e-06
      vertex -5.198367e+01 -1.527572e+01 5.199611e-02
      vertex -4.574976e+01 -4.812685e+00 1.531094e-06
    endloop
  endfacet
  facet normal -2.746904e-03 -2.734482e-03 -9.999925e-01
    outer loop
      vertex -3.853376e+01 -9.772358e+00 1.247972e-06
      vertex -4.311772e+01 -2.064817e+01 4.233298e-02
      vertex -5.198367e+01 -1.527572e+01 5.199611e-02
    endloop
  endfacet
  facet normal 9.407671e-04 3.108367e-03 -9.999948e-01
    outer loop
      vertex -2.995129e+01 8.709551e+00 3.870085e-02
      vertex -4.207251e+01 -7.160512e-02 2.346933e-06
      vertex -3.529548e+01 1.225028e+01 4.467914e-02
    endloop
  endfacet
  facet normal 1.562199e-03 2.250569e-03 -9.999962e-01
    outer loop
      vertex -2.995129e+01 8.709551e+00 3.870085e-02
      vertex -3.576390e+01 -4.449962e+00 3.863126e-06
      vertex -4.207251e+01 -7.160512e-02 2.346933e-06
    endloop
  endfacet
  facet normal 1.120409e-04 2.891108e-03 -9.999958e-01
    outer loop
      vertex -2.415723e+01 5.832368e+00 3.103174e-02
      vertex -3.576390e+01 -4.449962e+00 3.863126e-06
      vertex -2.995129e+01 8.709551e+00 3.870085e-02
    endloop
  endfacet
  facet normal 9.068820e-04 1.993899e-03 -9.999976e-01
    outer loop
      vertex -2.415723e+01 5.832368e+00 3.103174e-02
      vertex -2.877385e+01 -7.629217e+00 3.900379e-06
      vertex -3.576390e+01 -4.449962e+00 3.863126e-06
    endloop
  endfacet
  facet normal -3.334533e-08 9.735838e-08 -1.000000e+00
    outer loop
      vertex 7.859250e+01 -3.626840e+01 3.102422e-02
      vertex -2.415723e+01 5.832368e+00 3.103174e-02
      vertex 8.150508e+01 -2.685283e+01 3.102504e-02
    endloop
  endfacet
  facet normal 8.279941e-04 2.020953e-03 -9.999976e-01
    outer loop
      vertex 7.859250e+01 -3.626840e+01 3.102422e-02
      vertex -2.877385e+01 -7.629217e+00 3.900379e-06
      vertex -2.415723e+01 5.832368e+00 3.103174e-02
    endloop
  endfacet
  facet normal -9.163706e-09 1.786834e-07 -1.000000e+00
    outer loop
      vertex -9.457433e+01 4.716102e+01 6.530724e-02
      vertex -8.163286e+01 5.549699e+01 6.530862e-02
      vertex -8.817734e+01 4.515405e+01 6.530683e-02
    endloop
  endfacet
  facet normal 1.988913e-03 -1.970886e-03 -9.999961e-01
    outer loop
      vertex -5.476856e+01 4.715409e+01 5.546957e-06
      vertex -2.961479e+01 3.940591e+01 6.530523e-02
      vertex -4.144554e+01 2.900479e+01 6.227430e-02
    endloop
  endfacet
  facet normal 3.373043e-04 -9.226220e-05 -9.999999e-01
    outer loop
      vertex -2.961479e+01 3.940591e+01 6.530523e-02
      vertex -3.275424e+01 2.803781e+01 6.529513e-02
      vertex -4.144554e+01 2.900479e+01 6.227430e-02
    endloop
  endfacet
  facet normal -1.470286e-03 -3.272559e-03 -9.999936e-01
    outer loop
      vertex -3.853376e+01 -9.772358e+00 1.247972e-06
      vertex -3.054697e+01 -1.336124e+01 3.226101e-06
      vertex -4.311772e+01 -2.064817e+01 4.233298e-02
    endloop
  endfacet
  facet normal -2.144832e-03 -2.108902e-03 -9.999955e-01
    outer loop
      vertex -3.054697e+01 -1.336124e+01 3.226101e-06
      vertex -3.366558e+01 -2.490558e+01 3.103812e-02
      vertex -4.311772e+01 -2.064817e+01 4.233298e-02
    endloop
  endfacet
  facet normal 3.164554e-07 8.013211e-07 -1.000000e+00
    outer loop
      vertex -2.961479e+01 3.940591e+01 6.530523e-02
      vertex -1.197875e+01 3.449596e+01 6.530688e-02
      vertex -3.275424e+01 2.803781e+01 6.529513e-02
    endloop
  endfacet
  facet normal -5.447170e-04 -2.541163e-03 -9.999966e-01
    outer loop
      vertex -3.054697e+01 -1.336124e+01 3.226101e-06
      vertex 7.490928e+01 -4.817522e+01 3.102751e-02
      vertex -3.366558e+01 -2.490558e+01 3.103812e-02
    endloop
  endfacet
  facet normal -1.713244e-07 -3.434471e-07 -1.000000e+00
    outer loop
      vertex 7.490928e+01 -4.817522e+01 3.102751e-02
      vertex 7.199671e+01 -5.759078e+01 3.103124e-02
      vertex -3.366558e+01 -2.490558e+01 3.103812e-02
    endloop
  endfacet
  facet normal 2.076659e-03 6.702135e-03 -9.999754e-01
    outer loop
      vertex 7.859250e+01 -3.626840e+01 3.102422e-02
      vertex 9.228860e+01 -4.513675e+01 2.871454e-05
      vertex -2.877385e+01 -7.629217e+00 3.900379e-06
    endloop
  endfacet
  facet normal -4.144495e-03 -1.344530e-02 -9.999010e-01
    outer loop
      vertex -3.054697e+01 -1.336124e+01 3.226101e-06
      vertex 9.056867e+01 -5.069681e+01 2.773479e-05
      vertex 7.490928e+01 -4.817522e+01 3.102751e-02
    endloop
  endfacet
  facet normal 2.925723e-01 9.472931e-01 -1.305267e-01
    outer loop
      vertex -2.961479e+01 3.940591e+01 6.530523e-02
      vertex -5.464857e+01 4.754198e+01 3.000006e+00
      vertex -2.896711e+01 4.149970e+01 1.671271e+01
    endloop
  endfacet
  facet normal 2.920412e-01 9.469550e-01 -1.341200e-01
    outer loop
      vertex -5.476856e+01 4.715409e+01 5.546957e-06
      vertex -5.464857e+01 4.754198e+01 3.000006e+00
      vertex -2.961479e+01 3.940591e+01 6.530523e-02
    endloop
  endfacet
  facet normal 2.932933e-01 9.470701e-01 -1.305264e-01
    outer loop
      vertex -8.098518e+01 5.759078e+01 1.671272e+01
      vertex -6.037265e+01 4.931748e+01 3.000006e+00
      vertex -8.163286e+01 5.549699e+01 6.530862e-02
    endloop
  endfacet
  facet normal 2.928326e-01 9.478993e-01 -1.254431e-01
    outer loop
      vertex -6.037265e+01 4.931748e+01 3.000006e+00
      vertex -6.048475e+01 4.895510e+01 5.926937e-06
      vertex -8.163286e+01 5.549699e+01 6.530862e-02
    endloop
  endfacet
  facet normal 2.937503e-01 9.470266e-01 -1.298131e-01
    outer loop
      vertex -8.098518e+01 5.759078e+01 1.671272e+01
      vertex -5.464857e+01 4.754198e+01 3.000006e+00
      vertex -6.037265e+01 4.931748e+01 3.000006e+00
    endloop
  endfacet
  facet normal 2.929597e-01 9.470588e-01 -1.313553e-01
    outer loop
      vertex -2.896711e+01 4.149970e+01 1.671271e+01
      vertex -5.464857e+01 4.754198e+01 3.000006e+00
      vertex -8.098518e+01 5.759078e+01 1.671272e+01
    endloop
  endfacet
  facet normal 9.553364e-01 -2.955205e-01 2.998020e-06
    outer loop
      vertex 9.056867e+01 -5.069679e+01 2.850024e+00
      vertex 9.228860e+01 -4.513674e+01 2.850024e+00
      vertex 8.893486e+01 -5.597844e+01 4.790488e+00
    endloop
  endfacet
  facet normal 9.553367e-01 -2.955195e-01 9.006450e-06
    outer loop
      vertex 9.228860e+01 -4.513674e+01 2.850024e+00
      vertex 9.457433e+01 -3.774754e+01 4.790487e+00
      vertex 8.893486e+01 -5.597844e+01 4.790488e+00
    endloop
  endfacet
  facet normal -9.553367e-01 2.955195e-01 1.240827e-12
    outer loop
      vertex 7.490928e+01 -4.817522e+01 3.102751e-02
      vertex 7.199671e+01 -5.759078e+01 3.103124e-02
      vertex 7.199671e+01 -5.759077e+01 4.790493e+00
    endloop
  endfacet
  facet normal -9.553367e-01 2.955195e-01 3.722597e-12
    outer loop
      vertex 7.199671e+01 -5.759077e+01 4.790493e+00
      vertex 7.490929e+01 -4.817519e+01 4.790490e+00
      vertex 7.490928e+01 -4.817522e+01 3.102751e-02
    endloop
  endfacet
  facet normal 9.553364e-01 -2.955206e-01 6.205049e-13
    outer loop
      vertex 7.859250e+01 -3.626840e+01 3.102422e-02
      vertex 8.150508e+01 -2.685283e+01 3.102504e-02
      vertex 8.150508e+01 -2.685282e+01 4.790482e+00
    endloop
  endfacet
  facet normal 9.553364e-01 -2.955206e-01 6.205043e-13
    outer loop
      vertex 8.150508e+01 -2.685282e+01 4.790482e+00
      vertex 7.859250e+01 -3.626839e+01 4.790486e+00
      vertex 7.859250e+01 -3.626840e+01 3.102422e-02
    endloop
  endfacet
  facet normal -2.929924e-01 -9.471633e-01 1.305267e-01
    outer loop
      vertex -1.148508e+01 3.609186e+01 1.671272e+01
      vertex -2.896711e+01 4.149970e+01 1.671271e+01
      vertex -2.961479e+01 3.940591e+01 6.530523e-02
    endloop
  endfacet
  facet normal -2.668648e-01 -9.585521e-01 9.980547e-02
    outer loop
      vertex -2.961479e+01 3.940591e+01 6.530523e-02
      vertex -1.197875e+01 3.449596e+01 6.530688e-02
      vertex -1.148508e+01 3.609186e+01 1.671272e+01
    endloop
  endfacet
  facet normal -1.598172e-01 4.943698e-02 -9.859079e-01
    outer loop
      vertex -2.415720e+01 5.832367e+00 4.790489e+00
      vertex -3.366558e+01 -2.490558e+01 4.790500e+00
      vertex -4.311772e+01 -2.064817e+01 6.536190e+00
    endloop
  endfacet
  facet normal -1.720072e-01 5.833270e-02 -9.833671e-01
    outer loop
      vertex -4.311772e+01 -2.064817e+01 6.536190e+00
      vertex -2.995129e+01 8.709558e+00 5.974644e+00
      vertex -2.415720e+01 5.832367e+00 4.790489e+00
    endloop
  endfacet
  facet normal -1.400436e-01 4.388653e-02 -9.891723e-01
    outer loop
      vertex -2.995129e+01 8.709558e+00 5.974644e+00
      vertex -4.311772e+01 -2.064817e+01 6.536190e+00
      vertex -5.198369e+01 -1.527571e+01 8.029762e+00
    endloop
  endfacet
  facet normal -1.411554e-01 4.492534e-02 -9.889676e-01
    outer loop
      vertex -5.198369e+01 -1.527571e+01 8.029762e+00
      vertex -3.529547e+01 1.225028e+01 6.898261e+00
      vertex -2.995129e+01 8.709558e+00 5.974644e+00
    endloop
  endfacet
  facet normal -1.443125e-01 4.686187e-02 -9.884219e-01
    outer loop
      vertex -3.529547e+01 1.225028e+01 6.898261e+00
      vertex -5.198369e+01 -1.527571e+01 8.029762e+00
      vertex -6.013254e+01 -8.867556e+00 9.523334e+00
    endloop
  endfacet
  facet normal -1.499039e-01 5.358399e-02 -9.872475e-01
    outer loop
      vertex -6.013254e+01 -8.867556e+00 9.523334e+00
      vertex -3.889751e+01 1.602696e+01 7.650180e+00
      vertex -3.529547e+01 1.225028e+01 6.898261e+00
    endloop
  endfacet
  facet normal -8.181670e-02 -5.200680e-03 -9.966338e-01
    outer loop
      vertex -3.889751e+01 1.602696e+01 7.650180e+00
      vertex -6.013254e+01 -8.867556e+00 9.523334e+00
      vertex -6.744398e+01 -1.518320e+00 1.008520e+01
    endloop
  endfacet
  facet normal -1.383027e-01 8.811457e-02 -9.864625e-01
    outer loop
      vertex -6.744398e+01 -1.518320e+00 1.008520e+01
      vertex -4.101370e+01 2.007952e+01 8.308861e+00
      vertex -3.889751e+01 1.602696e+01 7.650180e+00
    endloop
  endfacet
  facet normal -4.103022e-02 -3.192443e-02 -9.986477e-01
    outer loop
      vertex -4.101370e+01 2.007952e+01 8.308861e+00
      vertex -6.744398e+01 -1.518320e+00 1.008520e+01
      vertex -7.381005e+01 6.663474e+00 1.008520e+01
    endloop
  endfacet
  facet normal -1.032846e-01 1.217800e-01 -9.871686e-01
    outer loop
      vertex -7.381005e+01 6.663474e+00 1.008520e+01
      vertex -4.205162e+01 2.448391e+01 8.960794e+00
      vertex -4.101370e+01 2.007952e+01 8.308861e+00
    endloop
  endfacet
  facet normal -2.648645e-02 -1.586418e-02 -9.995233e-01
    outer loop
      vertex -4.205162e+01 2.448391e+01 8.960794e+00
      vertex -7.381005e+01 6.663474e+00 1.008520e+01
      vertex -7.913673e+01 1.555701e+01 1.008520e+01
    endloop
  endfacet
  facet normal -6.655034e-02 1.522650e-01 -9.860966e-01
    outer loop
      vertex -7.913673e+01 1.555701e+01 1.008520e+01
      vertex -4.144553e+01 2.900478e+01 9.617966e+00
      vertex -4.205162e+01 2.448391e+01 8.960794e+00
    endloop
  endfacet
  facet normal -1.064774e-02 -1.880952e-03 -9.999415e-01
    outer loop
      vertex -4.144553e+01 2.900478e+01 9.617966e+00
      vertex -8.637380e+01 3.494546e+01 1.008520e+01
      vertex -8.817735e+01 4.515406e+01 1.008521e+01
    endloop
  endfacet
  facet normal 8.081858e-02 2.616942e-01 -9.617611e-01
    outer loop
      vertex -8.817735e+01 4.515406e+01 1.008521e+01
      vertex -3.275422e+01 2.803781e+01 1.008520e+01
      vertex -4.144553e+01 2.900478e+01 9.617966e+00
    endloop
  endfacet
  facet normal 1.264658e-01 4.095018e-01 -9.035013e-01
    outer loop
      vertex -1.148508e+01 3.609186e+01 1.671272e+01
      vertex -3.275422e+01 2.803781e+01 1.008520e+01
      vertex -8.817735e+01 4.515406e+01 1.008521e+01
    endloop
  endfacet
  facet normal 1.263954e-01 4.086009e-01 -9.039190e-01
    outer loop
      vertex -8.817735e+01 4.515406e+01 1.008521e+01
      vertex -2.896711e+01 4.149970e+01 1.671271e+01
      vertex -1.148508e+01 3.609186e+01 1.671272e+01
    endloop
  endfacet
  facet normal 1.263278e-01 4.026590e-01 -9.065908e-01
    outer loop
      vertex -2.896711e+01 4.149970e+01 1.671271e+01
      vertex -8.817735e+01 4.515406e+01 1.008521e+01
      vertex -9.457433e+01 4.716103e+01 1.008521e+01
    endloop
  endfacet
  facet normal 1.265939e-01 4.092441e-01 -9.036002e-01
    outer loop
      vertex -9.457433e+01 4.716103e+01 1.008521e+01
      vertex -8.098518e+01 5.759078e+01 1.671272e+01
      vertex -2.896711e+01 4.149970e+01 1.671271e+01
    endloop
  endfacet
  facet normal 6.609023e-07 3.942563e-07 -1.000000e+00
    outer loop
      vertex -7.913673e+01 1.555701e+01 1.008520e+01
      vertex -8.334536e+01 2.503097e+01 1.008520e+01
      vertex -8.637380e+01 3.494546e+01 1.008520e+01
    endloop
  endfacet
  facet normal -1.093879e-02 -4.082943e-03 -9.999318e-01
    outer loop
      vertex -8.637380e+01 3.494546e+01 1.008520e+01
      vertex -4.144553e+01 2.900478e+01 9.617966e+00
      vertex -7.913673e+01 1.555701e+01 1.008520e+01
    endloop
  endfacet
  facet normal 2.993500e-01 9.541433e-01 -7.614176e-07
    outer loop
      vertex -9.457433e+01 4.716102e+01 6.530724e-02
      vertex -9.457433e+01 4.716103e+01 1.008521e+01
      vertex -8.817735e+01 4.515406e+01 1.008521e+01
    endloop
  endfacet
  facet normal 2.993500e-01 9.541433e-01 -7.553095e-07
    outer loop
      vertex -8.817735e+01 4.515406e+01 1.008521e+01
      vertex -8.817734e+01 4.515405e+01 6.530683e-02
      vertex -9.457433e+01 4.716102e+01 6.530724e-02
    endloop
  endfacet
  facet normal 4.106808e-01 9.117792e-01 7.524793e-18
    outer loop
      vertex -3.366558e+01 -2.490558e+01 4.790500e+00
      vertex -3.366558e+01 -2.490558e+01 3.103812e-02
      vertex -4.311772e+01 -2.064817e+01 4.233298e-02
    endloop
  endfacet
  facet normal 4.106808e-01 9.117792e-01 7.524793e-18
    outer loop
      vertex -4.311772e+01 -2.064817e+01 4.233298e-02
      vertex -4.311772e+01 -2.064817e+01 6.536190e+00
      vertex -3.366558e+01 -2.490558e+01 4.790500e+00
    endloop
  endfacet
  facet normal 4.447574e-01 8.956511e-01 -2.609555e-06
    outer loop
      vertex -2.415720e+01 5.832367e+00 4.790489e+00
      vertex -2.415723e+01 5.832368e+00 3.103174e-02
      vertex -2.995129e+01 8.709551e+00 3.870085e-02
    endloop
  endfacet
  facet normal 4.447565e-01 8.956515e-01 -1.268686e-06
    outer loop
      vertex -2.995129e+01 8.709551e+00 3.870085e-02
      vertex -2.995129e+01 8.709558e+00 5.974644e+00
      vertex -2.415720e+01 5.832367e+00 4.790489e+00
    endloop
  endfacet
  facet normal 5.523158e-01 8.336351e-01 -1.233391e-06
    outer loop
      vertex -2.995129e+01 8.709558e+00 5.974644e+00
      vertex -2.995129e+01 8.709551e+00 3.870085e-02
      vertex -3.529548e+01 1.225028e+01 4.467914e-02
    endloop
  endfacet
  facet normal 5.523153e-01 8.336353e-01 -6.262649e-07
    outer loop
      vertex -3.529548e+01 1.225028e+01 4.467914e-02
      vertex -3.529547e+01 1.225028e+01 6.898261e+00
      vertex -2.995129e+01 8.709558e+00 5.974644e+00
    endloop
  endfacet
  facet normal 5.182414e-01 8.552344e-01 1.484002e-17
    outer loop
      vertex -4.311772e+01 -2.064817e+01 6.536190e+00
      vertex -4.311772e+01 -2.064817e+01 4.233298e-02
      vertex -5.198367e+01 -1.527572e+01 5.199611e-02
    endloop
  endfacet
  facet normal 5.182416e-01 8.552343e-01 -4.642754e-07
    outer loop
      vertex -5.198367e+01 -1.527572e+01 5.199611e-02
      vertex -5.198369e+01 -1.527571e+01 8.029762e+00
      vertex -4.311772e+01 -2.064817e+01 6.536190e+00
    endloop
  endfacet
  facet normal 6.181486e-01 7.860613e-01 -2.076604e-07
    outer loop
      vertex -5.198369e+01 -1.527571e+01 8.029762e+00
      vertex -5.198367e+01 -1.527572e+01 5.199611e-02
      vertex -6.013254e+01 -8.867556e+00 6.166954e-02
    endloop
  endfacet
  facet normal 6.181484e-01 7.860613e-01 2.193604e-17
    outer loop
      vertex -6.013254e+01 -8.867556e+00 6.166954e-02
      vertex -6.013254e+01 -8.867556e+00 9.523334e+00
      vertex -5.198369e+01 -1.527571e+01 8.029762e+00
    endloop
  endfacet
  facet normal 7.236388e-01 6.901788e-01 -1.085049e-06
    outer loop
      vertex -3.529547e+01 1.225028e+01 6.898261e+00
      vertex -3.529548e+01 1.225028e+01 4.467914e-02
      vertex -3.889753e+01 1.602696e+01 4.954326e-02
    endloop
  endfacet
  facet normal 7.236395e-01 6.901781e-01 -1.854910e-06
    outer loop
      vertex -3.889753e+01 1.602696e+01 4.954326e-02
      vertex -3.889751e+01 1.602696e+01 7.650180e+00
      vertex -3.529547e+01 1.225028e+01 6.898261e+00
    endloop
  endfacet
  facet normal 8.864245e-01 4.628733e-01 -2.132284e-06
    outer loop
      vertex -3.889751e+01 1.602696e+01 7.650180e+00
      vertex -3.889753e+01 1.602696e+01 4.954326e-02
      vertex -4.101370e+01 2.007952e+01 5.380576e-02
    endloop
  endfacet
  facet normal 8.864228e-01 4.628764e-01 4.347758e-17
    outer loop
      vertex -4.101370e+01 2.007952e+01 5.380576e-02
      vertex -4.101370e+01 2.007952e+01 8.308861e+00
      vertex -3.889751e+01 1.602696e+01 7.650180e+00
    endloop
  endfacet
  facet normal 7.089267e-01 7.052822e-01 2.870807e-17
    outer loop
      vertex -6.013254e+01 -8.867556e+00 9.523334e+00
      vertex -6.013254e+01 -8.867556e+00 6.166954e-02
      vertex -6.744399e+01 -1.518328e+00 6.530162e-02
    endloop
  endfacet
  facet normal 7.089271e-01 7.052817e-01 -6.725535e-07
    outer loop
      vertex -6.744399e+01 -1.518328e+00 6.530162e-02
      vertex -6.744398e+01 -1.518320e+00 1.008520e+01
      vertex -6.013254e+01 -8.867556e+00 9.523334e+00
    endloop
  endfacet
  facet normal 7.892382e-01 6.140871e-01 -6.242884e-07
    outer loop
      vertex -6.744398e+01 -1.518320e+00 1.008520e+01
      vertex -6.744399e+01 -1.518328e+00 6.530162e-02
      vertex -7.381005e+01 6.663474e+00 6.529810e-02
    endloop
  endfacet
  facet normal 7.892379e-01 6.140876e-01 3.505628e-17
    outer loop
      vertex -7.381005e+01 6.663474e+00 6.529810e-02
      vertex -7.381005e+01 6.663474e+00 1.008520e+01
      vertex -6.744398e+01 -1.518320e+00 1.008520e+01
    endloop
  endfacet
  facet normal 9.733376e-01 2.293771e-01 5.278713e-17
    outer loop
      vertex -4.101370e+01 2.007952e+01 8.308861e+00
      vertex -4.101370e+01 2.007952e+01 5.380576e-02
      vertex -4.205164e+01 2.448391e+01 5.802273e-02
    endloop
  endfacet
  facet normal 9.733382e-01 2.293745e-01 -1.477552e-06
    outer loop
      vertex -4.205164e+01 2.448391e+01 5.802273e-02
      vertex -4.205162e+01 2.448391e+01 8.960794e+00
      vertex -4.101370e+01 2.007952e+01 8.308861e+00
    endloop
  endfacet
  facet normal 9.911326e-01 -1.328763e-01 -1.690169e-06
    outer loop
      vertex -4.205162e+01 2.448391e+01 8.960794e+00
      vertex -4.205164e+01 2.448391e+01 5.802273e-02
      vertex -4.144554e+01 2.900479e+01 6.227430e-02
    endloop
  endfacet
  facet normal 9.911327e-01 -1.328761e-01 -1.574684e-06
    outer loop
      vertex -4.144554e+01 2.900479e+01 6.227430e-02
      vertex -4.144553e+01 2.900478e+01 9.617966e+00
      vertex -4.205162e+01 2.448391e+01 8.960794e+00
    endloop
  endfacet
  facet normal 8.578947e-01 5.138256e-01 4.088681e-17
    outer loop
      vertex -7.381005e+01 6.663474e+00 1.008520e+01
      vertex -7.381005e+01 6.663474e+00 6.529810e-02
      vertex -7.913672e+01 1.555700e+01 6.529906e-02
    endloop
  endfacet
  facet normal 8.578944e-01 5.138260e-01 4.500488e-07
    outer loop
      vertex -7.913672e+01 1.555700e+01 6.529906e-02
      vertex -7.913673e+01 1.555701e+01 1.008520e+01
      vertex -7.381005e+01 6.663474e+00 1.008520e+01
    endloop
  endfacet
  facet normal 9.138838e-01 4.059759e-01 6.458934e-07
    outer loop
      vertex -7.913673e+01 1.555701e+01 1.008520e+01
      vertex -7.913672e+01 1.555700e+01 6.529906e-02
      vertex -8.334535e+01 2.503096e+01 6.530064e-02
    endloop
  endfacet
  facet normal 9.138838e-01 4.059759e-01 6.458934e-07
    outer loop
      vertex -8.334535e+01 2.503096e+01 6.530064e-02
      vertex -8.334536e+01 2.503097e+01 1.008520e+01
      vertex -7.913673e+01 1.555701e+01 1.008520e+01
    endloop
  endfacet
  facet normal 9.563778e-01 2.921326e-01 8.321978e-07
    outer loop
      vertex -8.334536e+01 2.503097e+01 1.008520e+01
      vertex -8.334535e+01 2.503096e+01 6.530064e-02
      vertex -8.637380e+01 3.494544e+01 6.530253e-02
    endloop
  endfacet
  facet normal 9.563783e-01 2.921311e-01 -8.554030e-07
    outer loop
      vertex -8.637380e+01 3.494544e+01 6.530253e-02
      vertex -8.637380e+01 3.494546e+01 1.008520e+01
      vertex -8.334536e+01 2.503097e+01 1.008520e+01
    endloop
  endfacet
  facet normal 9.847502e-01 1.739744e-01 -6.962732e-07
    outer loop
      vertex -8.637380e+01 3.494546e+01 1.008520e+01
      vertex -8.637380e+01 3.494544e+01 6.530253e-02
      vertex -8.817734e+01 4.515405e+01 6.530683e-02
    endloop
  endfacet
  facet normal 9.847499e-01 1.739760e-01 1.006214e-06
    outer loop
      vertex -8.817734e+01 4.515405e+01 6.530683e-02
      vertex -8.817735e+01 4.515406e+01 1.008521e+01
      vertex -8.637380e+01 3.494546e+01 1.008520e+01
    endloop
  endfacet
  facet normal -1.105756e-01 -9.938677e-01 -3.003169e-07
    outer loop
      vertex -4.144553e+01 2.900478e+01 9.617966e+00
      vertex -4.144554e+01 2.900479e+01 6.227430e-02
      vertex -3.275424e+01 2.803781e+01 6.529513e-02
    endloop
  endfacet
  facet normal -1.105748e-01 -9.938678e-01 4.614315e-07
    outer loop
      vertex -3.275424e+01 2.803781e+01 6.529513e-02
      vertex -3.275422e+01 2.803781e+01 1.008520e+01
      vertex -4.144553e+01 2.900478e+01 9.617966e+00
    endloop
  endfacet
  facet normal 6.088504e-01 -7.932850e-01 4.400470e-07
    outer loop
      vertex -8.098518e+01 5.759078e+01 1.671272e+01
      vertex -9.457433e+01 4.716103e+01 1.008521e+01
      vertex -9.457433e+01 4.716102e+01 6.530724e-02
    endloop
  endfacet
  facet normal 5.395829e-01 -8.376948e-01 8.436606e-02
    outer loop
      vertex -9.457433e+01 4.716102e+01 6.530724e-02
      vertex -8.163286e+01 5.549699e+01 6.530862e-02
      vertex -8.098518e+01 5.759078e+01 1.671272e+01
    endloop
  endfacet
  facet normal 3.541332e-01 -9.351950e-01 -3.354820e-07
    outer loop
      vertex -1.148508e+01 3.609186e+01 1.671272e+01
      vertex -3.275422e+01 2.803781e+01 1.008520e+01
      vertex -3.275424e+01 2.803781e+01 6.529513e-02
    endloop
  endfacet
  facet normal 2.958318e-01 -9.516743e-01 8.245960e-02
    outer loop
      vertex -3.275424e+01 2.803781e+01 6.529513e-02
      vertex -1.197875e+01 3.449596e+01 6.530688e-02
      vertex -1.148508e+01 3.609186e+01 1.671272e+01
    endloop
  endfacet
  facet normal 2.955203e-01 9.553365e-01 -1.602995e-06
    outer loop
      vertex -3.366558e+01 -2.490558e+01 4.790500e+00
      vertex 7.199671e+01 -5.759077e+01 4.790493e+00
      vertex 7.199671e+01 -5.759078e+01 3.103124e-02
    endloop
  endfacet
  facet normal 2.955204e-01 9.553365e-01 1.267151e-23
    outer loop
      vertex 7.199671e+01 -5.759078e+01 3.103124e-02
      vertex -3.366558e+01 -2.490558e+01 3.103812e-02
      vertex -3.366558e+01 -2.490558e+01 4.790500e+00
    endloop
  endfacet
  facet normal 2.955203e-01 9.553365e-01 -1.602997e-06
    outer loop
      vertex -2.415720e+01 5.832367e+00 4.790489e+00
      vertex 8.150508e+01 -2.685282e+01 4.790482e+00
      vertex 8.150508e+01 -2.685283e+01 3.102504e-02
    endloop
  endfacet
  facet normal 2.955203e-01 9.553365e-01 -1.602998e-06
    outer loop
      vertex 8.150508e+01 -2.685283e+01 3.102504e-02
      vertex -2.415723e+01 5.832368e+00 3.103174e-02
      vertex -2.415720e+01 5.832367e+00 4.790489e+00
    endloop
  endfacet
  facet normal -1.550062e-07 -2.724306e-07 -1.000000e+00
    outer loop
      vertex 7.859250e+01 -3.626839e+01 4.790486e+00
      vertex 7.490929e+01 -4.817519e+01 4.790490e+00
      vertex -3.366558e+01 -2.490558e+01 4.790500e+00
    endloop
  endfacet
  facet normal -1.601031e-07 -3.227858e-07 -1.000000e+00
    outer loop
      vertex -3.366558e+01 -2.490558e+01 4.790500e+00
      vertex -2.415720e+01 5.832367e+00 4.790489e+00
      vertex 7.859250e+01 -3.626839e+01 4.790486e+00
    endloop
  endfacet
  facet normal -1.720440e-07 -3.519282e-07 -1.000000e+00
    outer loop
      vertex 8.150508e+01 -2.685282e+01 4.790482e+00
      vertex 7.859250e+01 -3.626839e+01 4.790486e+00
      vertex -2.415720e+01 5.832367e+00 4.790489e+00
    endloop
  endfacet
  facet normal -1.720440e-07 -3.519283e-07 -1.000000e+00
    outer loop
      vertex 7.490929e+01 -4.817519e+01 4.790490e+00
      vertex 7.199671e+01 -5.759077e+01 4.790493e+00
      vertex -3.366558e+01 -2.490558e+01 4.790500e+00
    endloop
  endfacet
  facet normal 2.945847e-01 9.556254e-01 -5.353966e-06
    outer loop
      vertex 9.056867e+01 -5.069679e+01 2.850024e+00
      vertex 9.056867e+01 -5.069681e+01 2.773479e-05
      vertex -3.054697e+01 -1.336124e+01 3.226101e-06
    endloop
  endfacet
  facet normal 2.945846e-01 9.556254e-01 -2.676983e-06
    outer loop
      vertex -3.054697e+01 -1.336124e+01 3.226101e-06
      vertex -3.054697e+01 -1.336124e+01 2.849999e+00
      vertex 9.056867e+01 -5.069679e+01 2.850024e+00
    endloop
  endfacet
  facet normal 4.098738e-01 9.121423e-01 -2.656984e-06
    outer loop
      vertex -3.054697e+01 -1.336124e+01 2.849999e+00
      vertex -3.054697e+01 -1.336124e+01 3.226101e-06
      vertex -3.853376e+01 -9.772358e+00 1.247972e-06
    endloop
  endfacet
  facet normal 4.098729e-01 9.121426e-01 7.470958e-18
    outer loop
      vertex -3.853376e+01 -9.772358e+00 1.247972e-06
      vertex -3.853376e+01 -9.772358e+00 3.000002e+00
      vertex -3.054697e+01 -1.336124e+01 2.849999e+00
    endloop
  endfacet
  facet normal 5.664259e-01 8.241127e-01 1.822185e-17
    outer loop
      vertex -3.853376e+01 -9.772358e+00 3.000002e+00
      vertex -3.853376e+01 -9.772358e+00 1.247972e-06
      vertex -4.574976e+01 -4.812685e+00 1.531094e-06
    endloop
  endfacet
  facet normal 5.664266e-01 8.241122e-01 -2.427915e-06
    outer loop
      vertex -4.574976e+01 -4.812685e+00 1.531094e-06
      vertex -4.574976e+01 -4.812678e+00 3.000001e+00
      vertex -3.853376e+01 -9.772358e+00 3.000002e+00
    endloop
  endfacet
  facet normal 7.047068e-01 7.094986e-01 -2.253381e-06
    outer loop
      vertex -4.574976e+01 -4.812678e+00 3.000001e+00
      vertex -4.574976e+01 -4.812685e+00 1.531094e-06
      vertex -5.196218e+01 1.357781e+00 0.000000e+00
    endloop
  endfacet
  facet normal 7.047063e-01 7.094992e-01 2.838488e-17
    outer loop
      vertex -5.196218e+01 1.357781e+00 0.000000e+00
      vertex -5.196218e+01 1.357781e+00 3.000000e+00
      vertex -4.574976e+01 -4.812678e+00 3.000001e+00
    endloop
  endfacet
  facet normal 8.202544e-01 5.719988e-01 3.763228e-17
    outer loop
      vertex -5.196218e+01 1.357781e+00 3.000000e+00
      vertex -5.196218e+01 1.357781e+00 0.000000e+00
      vertex -5.697065e+01 8.539991e+00 3.278255e-07
    endloop
  endfacet
  facet normal 8.202544e-01 5.719988e-01 3.763228e-17
    outer loop
      vertex -5.697065e+01 8.539991e+00 3.278255e-07
      vertex -5.697065e+01 8.539991e+00 3.000000e+00
      vertex -5.196218e+01 1.357781e+00 3.000000e+00
    endloop
  endfacet
  facet normal 9.093429e-01 4.160475e-01 4.566573e-17
    outer loop
      vertex -5.697065e+01 8.539991e+00 3.000000e+00
      vertex -5.697065e+01 8.539991e+00 3.278255e-07
      vertex -6.061359e+01 1.650227e+01 2.719462e-07
    endloop
  endfacet
  facet normal 9.093423e-01 4.160487e-01 3.793218e-06
    outer loop
      vertex -6.061359e+01 1.650227e+01 2.719462e-07
      vertex -6.061361e+01 1.650227e+01 3.000001e+00
      vertex -5.697065e+01 8.539991e+00 3.000000e+00
    endloop
  endfacet
  facet normal 9.690982e-01 2.466754e-01 4.338161e-06
    outer loop
      vertex -6.061361e+01 1.650227e+01 3.000001e+00
      vertex -6.061359e+01 1.650227e+01 2.719462e-07
      vertex -6.277350e+01 2.498777e+01 1.143664e-06
    endloop
  endfacet
  facet normal 9.690985e-01 2.466740e-01 5.222617e-17
    outer loop
      vertex -6.277350e+01 2.498777e+01 1.143664e-06
      vertex -6.277350e+01 2.498777e+01 3.000002e+00
      vertex -6.061361e+01 1.650227e+01 3.000001e+00
    endloop
  endfacet
  facet normal 9.975927e-01 6.934506e-02 5.710185e-17
    outer loop
      vertex -6.277350e+01 2.498777e+01 3.000002e+00
      vertex -6.277350e+01 2.498777e+01 1.143664e-06
      vertex -6.338069e+01 3.372276e+01 2.883375e-06
    endloop
  endfacet
  facet normal 9.975927e-01 6.934506e-02 5.710185e-17
    outer loop
      vertex -6.338069e+01 3.372276e+01 2.883375e-06
      vertex -6.338069e+01 3.372276e+01 3.000003e+00
      vertex -6.277350e+01 2.498777e+01 3.000002e+00
    endloop
  endfacet
  facet normal 9.939074e-01 -1.102183e-01 6.013553e-17
    outer loop
      vertex -6.338069e+01 3.372276e+01 3.000003e+00
      vertex -6.338069e+01 3.372276e+01 2.883375e-06
      vertex -6.241561e+01 4.242549e+01 3.423542e-06
    endloop
  endfacet
  facet normal 9.939074e-01 -1.102184e-01 -4.791870e-07
    outer loop
      vertex -6.241561e+01 4.242549e+01 3.423542e-06
      vertex -6.241561e+01 4.242550e+01 3.000004e+00
      vertex -6.338069e+01 3.372276e+01 3.000003e+00
    endloop
  endfacet
  facet normal 9.589514e-01 -2.835705e-01 -3.174908e-08
    outer loop
      vertex -6.241561e+01 4.242550e+01 3.000004e+00
      vertex -6.241561e+01 4.242549e+01 3.423542e-06
      vertex -6.048475e+01 4.895510e+01 5.926937e-06
    endloop
  endfacet
  facet normal 9.587633e-01 -2.842019e-01 -1.495241e-03
    outer loop
      vertex -6.048475e+01 4.895510e+01 5.926937e-06
      vertex -6.037265e+01 4.931748e+01 3.000006e+00
      vertex -6.241561e+01 4.242550e+01 3.000004e+00
    endloop
  endfacet
  facet normal -2.959416e-01 -9.552060e-01 2.677280e-06
    outer loop
      vertex 9.228860e+01 -4.513675e+01 2.871454e-05
      vertex 9.228860e+01 -4.513674e+01 2.850024e+00
      vertex -2.877385e+01 -7.629217e+00 2.850000e+00
    endloop
  endfacet
  facet normal -2.959417e-01 -9.552060e-01 -2.701489e-20
    outer loop
      vertex -2.877385e+01 -7.629217e+00 2.850000e+00
      vertex -2.877385e+01 -7.629217e+00 3.900379e-06
      vertex 9.228860e+01 -4.513675e+01 2.871454e-05
    endloop
  endfacet
  facet normal -4.140144e-01 -9.102703e-01 -7.747104e-18
    outer loop
      vertex -2.877385e+01 -7.629217e+00 3.900379e-06
      vertex -2.877385e+01 -7.629217e+00 2.850000e+00
      vertex -3.576390e+01 -4.449962e+00 3.000003e+00
    endloop
  endfacet
  facet normal -4.140144e-01 -9.102703e-01 -7.747104e-18
    outer loop
      vertex -3.576390e+01 -4.449962e+00 3.000003e+00
      vertex -3.576390e+01 -4.449962e+00 3.863126e-06
      vertex -2.877385e+01 -7.629217e+00 3.900379e-06
    endloop
  endfacet
  facet normal -5.701661e-01 -8.215294e-01 -1.848738e-17
    outer loop
      vertex -3.576390e+01 -4.449962e+00 3.863126e-06
      vertex -3.576390e+01 -4.449962e+00 3.000003e+00
      vertex -4.207251e+01 -7.159783e-02 3.000002e+00
    endloop
  endfacet
  facet normal -5.701653e-01 -8.215300e-01 2.424451e-06
    outer loop
      vertex -4.207251e+01 -7.159783e-02 3.000002e+00
      vertex -4.207251e+01 -7.160512e-02 2.346933e-06
      vertex -3.576390e+01 -4.449962e+00 3.863126e-06
    endloop
  endfacet
  facet normal -7.079232e-01 -7.062895e-01 2.248001e-06
    outer loop
      vertex -4.207251e+01 -7.160512e-02 2.346933e-06
      vertex -4.207251e+01 -7.159783e-02 3.000002e+00
      vertex -4.749617e+01 5.364611e+00 3.000002e+00
    endloop
  endfacet
  facet normal -7.079238e-01 -7.062888e-01 -2.863119e-17
    outer loop
      vertex -4.749617e+01 5.364611e+00 3.000002e+00
      vertex -4.749617e+01 5.364611e+00 2.194196e-06
      vertex -4.207251e+01 -7.160512e-02 2.346933e-06
    endloop
  endfacet
  facet normal -8.228446e-01 -5.682665e-01 -3.785133e-17
    outer loop
      vertex -4.749617e+01 5.364611e+00 2.194196e-06
      vertex -4.749617e+01 5.364611e+00 3.000002e+00
      vertex -5.185996e+01 1.168333e+01 3.000002e+00
    endloop
  endfacet
  facet normal -8.228452e-01 -5.682655e-01 -3.144125e-06
    outer loop
      vertex -5.185996e+01 1.168333e+01 3.000002e+00
      vertex -5.185994e+01 1.168333e+01 2.276152e-06
      vertex -4.749617e+01 5.364611e+00 2.194196e-06
    endloop
  endfacet
  facet normal -9.112244e-01 -4.119104e-01 -3.808584e-06
    outer loop
      vertex -5.185994e+01 1.168333e+01 2.276152e-06
      vertex -5.185996e+01 1.168333e+01 3.000002e+00
      vertex -5.502306e+01 1.868071e+01 3.000002e+00
    endloop
  endfacet
  facet normal -9.112238e-01 -4.119118e-01 -4.585059e-17
    outer loop
      vertex -5.502306e+01 1.868071e+01 3.000002e+00
      vertex -5.502306e+01 1.868071e+01 2.127141e-06
      vertex -5.185994e+01 1.168333e+01 2.276152e-06
    endloop
  endfacet
  facet normal -9.702092e-01 -2.422684e-01 -5.237086e-17
    outer loop
      vertex -5.502306e+01 1.868071e+01 2.127141e-06
      vertex -5.502306e+01 1.868071e+01 3.000002e+00
      vertex -5.688346e+01 2.613104e+01 3.000003e+00
    endloop
  endfacet
  facet normal -9.702092e-01 -2.422684e-01 -5.237086e-17
    outer loop
      vertex -5.688346e+01 2.613104e+01 3.000003e+00
      vertex -5.688346e+01 2.613104e+01 3.017485e-06
      vertex -5.502306e+01 1.868071e+01 2.127141e-06
    endloop
  endfacet
  facet normal -9.978975e-01 -6.481119e-02 -5.720172e-17
    outer loop
      vertex -5.688346e+01 2.613104e+01 3.017485e-06
      vertex -5.688346e+01 2.613104e+01 3.000003e+00
      vertex -5.738115e+01 3.379400e+01 3.000003e+00
    endloop
  endfacet
  facet normal -9.978975e-01 -6.481119e-02 -5.720172e-17
    outer loop
      vertex -5.738115e+01 3.379400e+01 3.000003e+00
      vertex -5.738115e+01 3.379400e+01 3.851950e-06
      vertex -5.688346e+01 2.613104e+01 3.017485e-06
    endloop
  endfacet
  facet normal -9.933960e-01 1.147358e-01 -6.018736e-17
    outer loop
      vertex -5.738115e+01 3.379400e+01 3.851950e-06
      vertex -5.738115e+01 3.379400e+01 3.000003e+00
      vertex -5.650008e+01 4.142239e+01 3.000004e+00
    endloop
  endfacet
  facet normal -9.933960e-01 1.147356e-01 4.678282e-07
    outer loop
      vertex -5.650008e+01 4.142239e+01 3.000004e+00
      vertex -5.650009e+01 4.142239e+01 3.863126e-06
      vertex -5.738115e+01 3.379400e+01 3.851950e-06
    endloop
  endfacet
  facet normal -9.572718e-01 2.891885e-01 8.960793e-04
    outer loop
      vertex -5.464857e+01 4.754198e+01 3.000006e+00
      vertex -5.476856e+01 4.715409e+01 5.546957e-06
      vertex -5.650009e+01 4.142239e+01 3.863126e-06
    endloop
  endfacet
  facet normal -9.571505e-01 2.895911e-01 1.576834e-08
    outer loop
      vertex -5.650009e+01 4.142239e+01 3.863126e-06
      vertex -5.650008e+01 4.142239e+01 3.000004e+00
      vertex -5.464857e+01 4.754198e+01 3.000006e+00
    endloop
  endfacet
  facet normal 1.972297e-07 -1.812972e-08 -1.000000e+00
    outer loop
      vertex -2.877385e+01 -7.629217e+00 2.850000e+00
      vertex 9.228860e+01 -4.513674e+01 2.850024e+00
      vertex 9.056867e+01 -5.069679e+01 2.850024e+00
    endloop
  endfacet
  facet normal 1.968121e-07 -1.928694e-08 -1.000000e+00
    outer loop
      vertex 9.056867e+01 -5.069679e+01 2.850024e+00
      vertex -3.054697e+01 -1.336124e+01 2.849999e+00
      vertex -2.877385e+01 -7.629217e+00 2.850000e+00
    endloop
  endfacet
  facet normal -1.648688e-02 5.100030e-03 -9.998510e-01
    outer loop
      vertex -2.877385e+01 -7.629217e+00 2.850000e+00
      vertex -3.054697e+01 -1.336124e+01 2.849999e+00
      vertex -3.853376e+01 -9.772358e+00 3.000002e+00
    endloop
  endfacet
  facet normal -1.734894e-02 9.028844e-03 -9.998087e-01
    outer loop
      vertex -3.853376e+01 -9.772358e+00 3.000002e+00
      vertex -3.576390e+01 -4.449962e+00 3.000003e+00
      vertex -2.877385e+01 -7.629217e+00 2.850000e+00
    endloop
  endfacet
  facet normal 2.610583e-07 4.332248e-08 -1.000000e+00
    outer loop
      vertex -3.576390e+01 -4.449962e+00 3.000003e+00
      vertex -3.853376e+01 -9.772358e+00 3.000002e+00
      vertex -4.574976e+01 -4.812678e+00 3.000001e+00
    endloop
  endfacet
  facet normal 2.589681e-07 1.008677e-07 -1.000000e+00
    outer loop
      vertex -4.574976e+01 -4.812678e+00 3.000001e+00
      vertex -4.207251e+01 -7.159783e-02 3.000002e+00
      vertex -3.576390e+01 -4.449962e+00 3.000003e+00
    endloop
  endfacet
  facet normal 1.909576e-07 1.536176e-07 -1.000000e+00
    outer loop
      vertex -4.207251e+01 -7.159783e-02 3.000002e+00
      vertex -4.574976e+01 -4.812678e+00 3.000001e+00
      vertex -5.196218e+01 1.357781e+00 3.000000e+00
    endloop
  endfacet
  facet normal 1.971893e-07 1.967342e-07 -1.000000e+00
    outer loop
      vertex -5.196218e+01 1.357781e+00 3.000000e+00
      vertex -4.749617e+01 5.364611e+00 3.000002e+00
      vertex -4.207251e+01 -7.159783e-02 3.000002e+00
    endloop
  endfacet
  facet normal 2.481961e-07 1.398821e-07 -1.000000e+00
    outer loop
      vertex -4.749617e+01 5.364611e+00 3.000002e+00
      vertex -5.196218e+01 1.357781e+00 3.000000e+00
      vertex -5.697065e+01 8.539991e+00 3.000000e+00
    endloop
  endfacet
  facet normal 2.619438e-07 1.809016e-07 -1.000000e+00
    outer loop
      vertex -5.697065e+01 8.539991e+00 3.000000e+00
      vertex -5.185996e+01 1.168333e+01 3.000002e+00
      vertex -4.749617e+01 5.364611e+00 3.000002e+00
    endloop
  endfacet
  facet normal 2.625046e-07 1.799899e-07 -1.000000e+00
    outer loop
      vertex -5.185996e+01 1.168333e+01 3.000002e+00
      vertex -5.697065e+01 8.539991e+00 3.000000e+00
      vertex -6.061361e+01 1.650227e+01 3.000001e+00
    endloop
  endfacet
  facet normal 2.425300e-07 1.437059e-07 -1.000000e+00
    outer loop
      vertex -6.061361e+01 1.650227e+01 3.000001e+00
      vertex -5.502306e+01 1.868071e+01 3.000002e+00
      vertex -5.185996e+01 1.168333e+01 3.000002e+00
    endloop
  endfacet
  facet normal 2.317473e-07 1.713777e-07 -1.000000e+00
    outer loop
      vertex -5.502306e+01 1.868071e+01 3.000002e+00
      vertex -6.061361e+01 1.650227e+01 3.000001e+00
      vertex -6.277350e+01 2.498777e+01 3.000002e+00
    endloop
  endfacet
  facet normal 1.811864e-07 1.092457e-07 -1.000000e+00
    outer loop
      vertex -6.277350e+01 2.498777e+01 3.000002e+00
      vertex -5.688346e+01 2.613104e+01 3.000003e+00
      vertex -5.502306e+01 1.868071e+01 3.000002e+00
    endloop
  endfacet
  facet normal 1.735596e-07 1.485378e-07 -1.000000e+00
    outer loop
      vertex -5.688346e+01 2.613104e+01 3.000003e+00
      vertex -6.277350e+01 2.498777e+01 3.000002e+00
      vertex -6.338069e+01 3.372276e+01 3.000003e+00
    endloop
  endfacet
  facet normal 3.933971e-08 3.366817e-08 -1.000000e+00
    outer loop
      vertex -6.338069e+01 3.372276e+01 3.000003e+00
      vertex -5.738115e+01 3.379400e+01 3.000003e+00
      vertex -5.688346e+01 2.613104e+01 3.000003e+00
    endloop
  endfacet
  facet normal 3.816325e-08 1.327470e-07 -1.000000e+00
    outer loop
      vertex -5.738115e+01 3.379400e+01 3.000003e+00
      vertex -6.338069e+01 3.372276e+01 3.000003e+00
      vertex -6.241561e+01 4.242550e+01 3.000004e+00
    endloop
  endfacet
  facet normal -2.393570e-08 9.652682e-08 -1.000000e+00
    outer loop
      vertex -6.241561e+01 4.242550e+01 3.000004e+00
      vertex -5.650008e+01 4.142239e+01 3.000004e+00
      vertex -5.738115e+01 3.379400e+01 3.000003e+00
    endloop
  endfacet
  facet normal 7.240011e-08 3.676941e-07 -1.000000e+00
    outer loop
      vertex -6.037265e+01 4.931748e+01 3.000006e+00
      vertex -5.464857e+01 4.754198e+01 3.000006e+00
      vertex -5.650008e+01 4.142239e+01 3.000004e+00
    endloop
  endfacet
  facet normal 1.747836e-08 3.407548e-07 -1.000000e+00
    outer loop
      vertex -5.650008e+01 4.142239e+01 3.000004e+00
      vertex -6.241561e+01 4.242550e+01 3.000004e+00
      vertex -6.037265e+01 4.931748e+01 3.000006e+00
    endloop
  endfacet
  facet normal 9.553361e-01 -2.955215e-01 7.388490e-12
    outer loop
      vertex 9.056867e+01 -5.069681e+01 2.773479e-05
      vertex 9.056867e+01 -5.069679e+01 2.850024e+00
      vertex 8.893486e+01 -5.597844e+01 4.790488e+00
    endloop
  endfacet
  facet normal 9.553357e-01 -2.955228e-01 -1.602984e-06
    outer loop
      vertex 8.893486e+01 -5.597844e+01 4.790488e+00
      vertex 8.893485e+01 -5.597845e+01 3.101856e-02
      vertex 9.056867e+01 -5.069681e+01 2.773479e-05
    endloop
  endfacet
  facet normal 9.553373e-01 -2.955176e-01 -4.348182e-12
    outer loop
      vertex 9.228860e+01 -4.513675e+01 2.871454e-05
      vertex 9.457433e+01 -3.774754e+01 3.102414e-02
      vertex 9.457433e+01 -3.774754e+01 4.790487e+00
    endloop
  endfacet
  facet normal 9.553374e-01 -2.955172e-01 -6.692546e-07
    outer loop
      vertex 9.457433e+01 -3.774754e+01 4.790487e+00
      vertex 9.228860e+01 -4.513674e+01 2.850024e+00
      vertex 9.228860e+01 -4.513675e+01 2.871454e-05
    endloop
  endfacet
  facet normal 1.021241e-04 3.652766e-03 -9.999933e-01
    outer loop
      vertex 7.859250e+01 -3.626840e+01 3.102422e-02
      vertex 9.368634e+01 -3.669055e+01 3.102366e-02
      vertex 9.228860e+01 -4.513675e+01 2.871454e-05
    endloop
  endfacet
  facet normal 3.649692e-03 3.065670e-03 -9.999886e-01
    outer loop
      vertex 9.368634e+01 -3.669055e+01 3.102366e-02
      vertex 9.457433e+01 -3.774754e+01 3.102414e-02
      vertex 9.228860e+01 -4.513675e+01 2.871454e-05
    endloop
  endfacet
  facet normal 1.786642e-03 -6.420197e-03 -9.999778e-01
    outer loop
      vertex 8.893485e+01 -5.597845e+01 3.101856e-02
      vertex 8.760513e+01 -5.634943e+01 3.102458e-02
      vertex 9.056867e+01 -5.069681e+01 2.773479e-05
    endloop
  endfacet
  facet normal -2.639753e-03 -4.099597e-03 -9.999881e-01
    outer loop
      vertex 8.760513e+01 -5.634943e+01 3.102458e-02
      vertex 7.490928e+01 -4.817522e+01 3.102751e-02
      vertex 9.056867e+01 -5.069681e+01 2.773479e-05
    endloop
  endfacet
  facet normal 2.687230e-01 -9.632175e-01 3.175501e-06
    outer loop
      vertex 8.893486e+01 -5.597844e+01 4.790488e+00
      vertex 8.760515e+01 -5.634941e+01 4.790488e+00
      vertex 8.760513e+01 -5.634943e+01 3.102458e-02
    endloop
  endfacet
  facet normal 2.687275e-01 -9.632162e-01 1.827712e-06
    outer loop
      vertex 8.760513e+01 -5.634943e+01 3.102458e-02
      vertex 8.893485e+01 -5.597845e+01 3.101856e-02
      vertex 8.893486e+01 -5.597844e+01 4.790488e+00
    endloop
  endfacet
  facet normal -5.413475e-01 -8.407990e-01 4.632135e-06
    outer loop
      vertex 8.760515e+01 -5.634941e+01 4.790488e+00
      vertex 7.490929e+01 -4.817519e+01 4.790490e+00
      vertex 7.490928e+01 -4.817522e+01 3.102751e-02
    endloop
  endfacet
  facet normal -5.413476e-01 -8.407989e-01 5.062852e-06
    outer loop
      vertex 7.490928e+01 -4.817522e+01 3.102751e-02
      vertex 8.760513e+01 -5.634943e+01 3.102458e-02
      vertex 8.760515e+01 -5.634941e+01 4.790488e+00
    endloop
  endfacet
  facet normal 7.656657e-01 6.432389e-01 3.314985e-17
    outer loop
      vertex 9.457433e+01 -3.774754e+01 3.102414e-02
      vertex 9.368634e+01 -3.669055e+01 3.102366e-02
      vertex 9.368634e+01 -3.669055e+01 4.790485e+00
    endloop
  endfacet
  facet normal 7.656626e-01 6.432424e-01 -1.347769e-06
    outer loop
      vertex 9.368634e+01 -3.669055e+01 4.790485e+00
      vertex 9.457433e+01 -3.774754e+01 4.790487e+00
      vertex 9.457433e+01 -3.774754e+01 3.102414e-02
    endloop
  endfacet
  facet normal 2.795724e-02 9.996091e-01 -1.544045e-06
    outer loop
      vertex 9.368634e+01 -3.669055e+01 3.102366e-02
      vertex 7.859250e+01 -3.626840e+01 3.102422e-02
      vertex 7.859250e+01 -3.626839e+01 4.790486e+00
    endloop
  endfacet
  facet normal 2.795773e-02 9.996091e-01 -1.645286e-17
    outer loop
      vertex 7.859250e+01 -3.626839e+01 4.790486e+00
      vertex 9.368634e+01 -3.669055e+01 4.790485e+00
      vertex 9.368634e+01 -3.669055e+01 3.102366e-02
    endloop
  endfacet
  facet normal 4.443651e-08 -1.592793e-07 -1.000000e+00
    outer loop
      vertex 8.893486e+01 -5.597844e+01 4.790488e+00
      vertex 8.760515e+01 -5.634941e+01 4.790488e+00
      vertex 9.368634e+01 -3.669055e+01 4.790485e+00
    endloop
  endfacet
  facet normal 1.109158e-06 -4.215683e-07 -1.000000e+00
    outer loop
      vertex 9.368634e+01 -3.669055e+01 4.790485e+00
      vertex 9.457433e+01 -3.774754e+01 4.790487e+00
      vertex 8.893486e+01 -5.597844e+01 4.790488e+00
    endloop
  endfacet
  facet normal -2.659778e-07 -2.381030e-07 -1.000000e+00
    outer loop
      vertex 8.760515e+01 -5.634941e+01 4.790488e+00
      vertex 7.490929e+01 -4.817519e+01 4.790490e+00
      vertex 7.859250e+01 -3.626839e+01 4.790486e+00
    endloop
  endfacet
  facet normal -3.535599e-08 -1.345966e-07 -1.000000e+00
    outer loop
      vertex 7.859250e+01 -3.626839e+01 4.790486e+00
      vertex 9.368634e+01 -3.669055e+01 4.790485e+00
      vertex 8.760515e+01 -5.634941e+01 4.790488e+00
    endloop
  endfacet
endsolid Default
