solid Default
  facet normal -2.188068e-07 -1.000000e+00 -1.224647e-16
    outer loop
      vertex -3.610129e+01 4.121900e+01 7.720880e+00
      vertex -7.096947e+01 4.121901e+01 7.720878e+00
      vertex -7.096947e+01 4.121901e+01 1.960886e+00
    endloop
  endfacet
  facet normal -1.358532e-13 -1.000000e+00 -1.324548e-06
    outer loop
      vertex -7.096947e+01 4.121901e+01 1.960886e+00
      vertex -3.610130e+01 4.121901e+01 1.960883e+00
      vertex -3.610129e+01 4.121900e+01 7.720880e+00
    endloop
  endfacet
  facet normal -1.449101e-13 1.000000e+00 -1.324548e-06
    outer loop
      vertex -7.096947e+01 4.721901e+01 7.720884e+00
      vertex -3.610129e+01 4.721901e+01 7.720881e+00
      vertex -3.610130e+01 4.721900e+01 1.960883e+00
    endloop
  endfacet
  facet normal -1.358532e-13 1.000000e+00 -1.324548e-06
    outer loop
      vertex -3.610130e+01 4.721900e+01 1.960883e+00
      vertex -7.096947e+01 4.721900e+01 1.960887e+00
      vertex -7.096947e+01 4.721901e+01 7.720884e+00
    endloop
  endfacet
  facet normal -4.786400e-08 -7.947276e-08 1.000000e+00
    outer loop
      vertex -7.096947e+01 4.121901e+01 7.720878e+00
      vertex -3.610129e+01 4.121900e+01 7.720880e+00
      vertex -3.610129e+01 4.721901e+01 7.720881e+00
    endloop
  endfacet
  facet normal 1.094034e-07 -9.934107e-07 1.000000e+00
    outer loop
      vertex -3.610129e+01 4.721901e+01 7.720881e+00
      vertex -7.096947e+01 4.721901e+01 7.720884e+00
      vertex -7.096947e+01 4.121901e+01 7.720878e+00
    endloop
  endfacet
  facet normal -1.025657e-07 7.947296e-08 -1.000000e+00
    outer loop
      vertex -7.096947e+01 4.721900e+01 1.960887e+00
      vertex -3.610130e+01 4.721900e+01 1.960883e+00
      vertex -3.610130e+01 4.121901e+01 1.960883e+00
    endloop
  endfacet
  facet normal -1.025657e-07 7.947296e-08 -1.000000e+00
    outer loop
      vertex -3.610130e+01 4.121901e+01 1.960883e+00
      vertex -7.096947e+01 4.121901e+01 1.960886e+00
      vertex -7.096947e+01 4.721900e+01 1.960887e+00
    endloop
  endfacet
  facet normal -7.551950e-08 -2.495722e-08 -1.000000e+00
    outer loop
      vertex 6.560436e+01 -4.238454e+01 1.960874e+00
      vertex 7.137191e+01 -4.073072e+01 1.960874e+00
      vertex 7.430834e+01 -5.916933e+01 1.960874e+00
    endloop
  endfacet
  facet normal 8.002802e-08 5.570406e-08 -1.000000e+00
    outer loop
      vertex 7.430834e+01 -5.916933e+01 1.960874e+00
      vertex 6.834997e+01 -5.916934e+01 1.960874e+00
      vertex 6.560436e+01 -4.238454e+01 1.960874e+00
    endloop
  endfacet
  facet normal -1.345999e-07 -1.072441e-07 1.000000e+00
    outer loop
      vertex 7.137191e+01 -4.073072e+01 7.720875e+00
      vertex 6.560436e+01 -4.238454e+01 7.720874e+00
      vertex 6.834997e+01 -5.916934e+01 7.720873e+00
    endloop
  endfacet
  facet normal 8.002820e-08 -1.424199e-07 1.000000e+00
    outer loop
      vertex 6.834997e+01 -5.916934e+01 7.720873e+00
      vertex 7.430834e+01 -5.916933e+01 7.720872e+00
      vertex 7.137191e+01 -4.073072e+01 7.720875e+00
    endloop
  endfacet
  facet normal 9.875552e-01 1.572726e-01 -5.207875e-08
    outer loop
      vertex 7.137191e+01 -4.073072e+01 1.960874e+00
      vertex 7.137191e+01 -4.073072e+01 7.720875e+00
      vertex 7.430834e+01 -5.916933e+01 7.720872e+00
    endloop
  endfacet
  facet normal 9.875552e-01 1.572726e-01 -4.120998e-17
    outer loop
      vertex 7.430834e+01 -5.916933e+01 7.720872e+00
      vertex 7.430834e+01 -5.916933e+01 1.960874e+00
      vertex 7.137191e+01 -4.073072e+01 1.960874e+00
    endloop
  endfacet
  facet normal -9.868839e-01 -1.614315e-01 4.065956e-17
    outer loop
      vertex 6.560436e+01 -4.238454e+01 7.720874e+00
      vertex 6.560436e+01 -4.238454e+01 1.960874e+00
      vertex 6.834997e+01 -5.916934e+01 1.960874e+00
    endloop
  endfacet
  facet normal -9.868839e-01 -1.614315e-01 -2.672796e-08
    outer loop
      vertex 6.834997e+01 -5.916934e+01 1.960874e+00
      vertex 6.834997e+01 -5.916934e+01 7.720873e+00
      vertex 6.560436e+01 -4.238454e+01 7.720874e+00
    endloop
  endfacet
  facet normal -9.499483e-01 -3.124072e-01 1.990871e-17
    outer loop
      vertex 6.009350e+01 -2.562745e+01 7.720875e+00
      vertex 6.009350e+01 -2.562745e+01 1.960876e+00
      vertex 6.560436e+01 -4.238454e+01 1.960874e+00
    endloop
  endfacet
  facet normal -9.499483e-01 -3.124072e-01 1.990871e-17
    outer loop
      vertex 6.560436e+01 -4.238454e+01 1.960874e+00
      vertex 6.560436e+01 -4.238454e+01 7.720874e+00
      vertex 6.009350e+01 -2.562745e+01 7.720875e+00
    endloop
  endfacet
  facet normal 9.492601e-01 3.144920e-01 -1.961126e-17
    outer loop
      vertex 6.552023e+01 -2.306804e+01 1.960876e+00
      vertex 6.552023e+01 -2.306804e+01 7.720875e+00
      vertex 7.137191e+01 -4.073072e+01 7.720875e+00
    endloop
  endfacet
  facet normal 9.492601e-01 3.144920e-01 -1.041399e-07
    outer loop
      vertex 7.137191e+01 -4.073072e+01 7.720875e+00
      vertex 7.137191e+01 -4.073072e+01 1.960874e+00
      vertex 6.552023e+01 -2.306804e+01 1.960876e+00
    endloop
  endfacet
  facet normal 9.349741e-08 -1.193549e-08 1.000000e+00
    outer loop
      vertex 6.552023e+01 -2.306804e+01 7.720875e+00
      vertex 6.009350e+01 -2.562745e+01 7.720875e+00
      vertex 6.560436e+01 -4.238454e+01 7.720874e+00
    endloop
  endfacet
  facet normal -1.616107e-07 -1.304667e-08 1.000000e+00
    outer loop
      vertex 6.560436e+01 -4.238454e+01 7.720874e+00
      vertex 7.137191e+01 -4.073072e+01 7.720875e+00
      vertex 6.552023e+01 -2.306804e+01 7.720875e+00
    endloop
  endfacet
  facet normal -1.255476e-07 7.989173e-08 -1.000000e+00
    outer loop
      vertex 6.009350e+01 -2.562745e+01 1.960876e+00
      vertex 6.552023e+01 -2.306804e+01 1.960876e+00
      vertex 7.137191e+01 -4.073072e+01 1.960874e+00
    endloop
  endfacet
  facet normal -1.091053e-07 9.217007e-08 -1.000000e+00
    outer loop
      vertex 7.137191e+01 -4.073072e+01 1.960874e+00
      vertex 6.560436e+01 -4.238454e+01 1.960874e+00
      vertex 6.009350e+01 -2.562745e+01 1.960876e+00
    endloop
  endfacet
  facet normal -3.745763e-07 -2.968520e-07 -1.000000e+00
    outer loop
      vertex 5.196075e+01 -9.974084e+00 1.960877e+00
      vertex 5.690551e+01 -6.575651e+00 1.960874e+00
      vertex 6.552023e+01 -2.306804e+01 1.960876e+00
    endloop
  endfacet
  facet normal -8.788388e-08 3.309092e-11 -1.000000e+00
    outer loop
      vertex 6.552023e+01 -2.306804e+01 1.960876e+00
      vertex 6.009350e+01 -2.562745e+01 1.960876e+00
      vertex 5.196075e+01 -9.974084e+00 1.960877e+00
    endloop
  endfacet
  facet normal 2.010225e-08 4.090646e-08 1.000000e+00
    outer loop
      vertex 5.690551e+01 -6.575655e+00 7.720874e+00
      vertex 5.196075e+01 -9.974084e+00 7.720875e+00
      vertex 6.009350e+01 -2.562745e+01 7.720875e+00
    endloop
  endfacet
  facet normal 6.502989e-08 4.842432e-08 1.000000e+00
    outer loop
      vertex 6.009350e+01 -2.562745e+01 7.720875e+00
      vertex 6.552023e+01 -2.306804e+01 7.720875e+00
      vertex 5.690551e+01 -6.575655e+00 7.720874e+00
    endloop
  endfacet
  facet normal 8.863645e-01 4.629881e-01 3.066249e-07
    outer loop
      vertex 5.690551e+01 -6.575651e+00 1.960874e+00
      vertex 5.690551e+01 -6.575655e+00 7.720874e+00
      vertex 6.552023e+01 -2.306804e+01 7.720875e+00
    endloop
  endfacet
  facet normal 8.863645e-01 4.629880e-01 2.425502e-18
    outer loop
      vertex 6.552023e+01 -2.306804e+01 7.720875e+00
      vertex 6.552023e+01 -2.306804e+01 1.960876e+00
      vertex 5.690551e+01 -6.575651e+00 1.960874e+00
    endloop
  endfacet
  facet normal -8.873792e-01 -4.610404e-01 -2.124863e-18
    outer loop
      vertex 5.196075e+01 -9.974084e+00 7.720875e+00
      vertex 5.196075e+01 -9.974084e+00 1.960877e+00
      vertex 6.009350e+01 -2.562745e+01 1.960876e+00
    endloop
  endfacet
  facet normal -8.873792e-01 -4.610404e-01 -2.124863e-18
    outer loop
      vertex 6.009350e+01 -2.562745e+01 1.960876e+00
      vertex 6.009350e+01 -2.562745e+01 7.720875e+00
      vertex 5.196075e+01 -9.974084e+00 7.720875e+00
    endloop
  endfacet
  facet normal -8.017315e-01 -5.976843e-01 -7.916622e-07
    outer loop
      vertex 4.141760e+01 4.168452e+00 7.720874e+00
      vertex 4.141760e+01 4.168459e+00 1.960880e+00
      vertex 5.196075e+01 -9.974084e+00 1.960877e+00
    endloop
  endfacet
  facet normal -8.017313e-01 -5.976846e-01 -2.410336e-17
    outer loop
      vertex 5.196075e+01 -9.974084e+00 1.960877e+00
      vertex 5.196075e+01 -9.974084e+00 7.720875e+00
      vertex 4.141760e+01 4.168452e+00 7.720874e+00
    endloop
  endfacet
  facet normal 8.004161e-01 5.994449e-01 7.939933e-07
    outer loop
      vertex 4.575176e+01 8.317530e+00 1.960877e+00
      vertex 4.575176e+01 8.317523e+00 7.720877e+00
      vertex 5.690551e+01 -6.575655e+00 7.720874e+00
    endloop
  endfacet
  facet normal 8.004161e-01 5.994447e-01 3.969966e-07
    outer loop
      vertex 5.690551e+01 -6.575655e+00 7.720874e+00
      vertex 5.690551e+01 -6.575651e+00 1.960874e+00
      vertex 4.575176e+01 8.317530e+00 1.960877e+00
    endloop
  endfacet
  facet normal -3.719398e-07 -2.435617e-07 1.000000e+00
    outer loop
      vertex 4.575176e+01 8.317523e+00 7.720877e+00
      vertex 4.141760e+01 4.168452e+00 7.720874e+00
      vertex 5.196075e+01 -9.974084e+00 7.720875e+00
    endloop
  endfacet
  facet normal 1.044685e-07 -8.184760e-08 1.000000e+00
    outer loop
      vertex 5.196075e+01 -9.974084e+00 7.720875e+00
      vertex 5.690551e+01 -6.575655e+00 7.720874e+00
      vertex 4.575176e+01 8.317523e+00 7.720877e+00
    endloop
  endfacet
  facet normal -4.737273e-07 -1.946964e-07 -1.000000e+00
    outer loop
      vertex 4.141760e+01 4.168459e+00 1.960880e+00
      vertex 4.575176e+01 8.317530e+00 1.960877e+00
      vertex 5.690551e+01 -6.575651e+00 1.960874e+00
    endloop
  endfacet
  facet normal -4.591892e-07 -1.737393e-07 -1.000000e+00
    outer loop
      vertex 5.690551e+01 -6.575651e+00 1.960874e+00
      vertex 5.196075e+01 -9.974084e+00 1.960877e+00
      vertex 4.141760e+01 4.168459e+00 1.960880e+00
    endloop
  endfacet
  facet normal -3.228780e-07 -3.537599e-07 -1.000000e+00
    outer loop
      vertex 2.873821e+01 1.643234e+01 1.960879e+00
      vertex 3.234908e+01 2.122416e+01 1.960876e+00
      vertex 4.575176e+01 8.317530e+00 1.960877e+00
    endloop
  endfacet
  facet normal -3.224054e-07 -3.527691e-07 -1.000000e+00
    outer loop
      vertex 4.575176e+01 8.317530e+00 1.960877e+00
      vertex 4.141760e+01 4.168459e+00 1.960880e+00
      vertex 2.873821e+01 1.643234e+01 1.960879e+00
    endloop
  endfacet
  facet normal 1.087634e-07 -8.195872e-08 1.000000e+00
    outer loop
      vertex 3.234908e+01 2.122415e+01 7.720876e+00
      vertex 2.873821e+01 1.643234e+01 7.720876e+00
      vertex 4.141760e+01 4.168452e+00 7.720874e+00
    endloop
  endfacet
  facet normal -3.123153e-07 -3.058462e-07 1.000000e+00
    outer loop
      vertex 4.141760e+01 4.168452e+00 7.720874e+00
      vertex 4.575176e+01 8.317523e+00 7.720877e+00
      vertex 3.234908e+01 2.122415e+01 7.720876e+00
    endloop
  endfacet
  facet normal 6.936514e-01 7.203109e-01 9.540861e-07
    outer loop
      vertex 3.234908e+01 2.122416e+01 1.960876e+00
      vertex 3.234908e+01 2.122415e+01 7.720876e+00
      vertex 4.575176e+01 8.317523e+00 7.720877e+00
    endloop
  endfacet
  facet normal 6.936514e-01 7.203109e-01 9.540861e-07
    outer loop
      vertex 4.575176e+01 8.317523e+00 7.720877e+00
      vertex 4.575176e+01 8.317530e+00 1.960877e+00
      vertex 3.234908e+01 2.122416e+01 1.960876e+00
    endloop
  endfacet
  facet normal -6.952316e-01 -7.187858e-01 -4.545522e-17
    outer loop
      vertex 2.873821e+01 1.643234e+01 7.720876e+00
      vertex 2.873821e+01 1.643234e+01 1.960879e+00
      vertex 4.141760e+01 4.168459e+00 1.960880e+00
    endloop
  endfacet
  facet normal -6.952318e-01 -7.187856e-01 -9.520667e-07
    outer loop
      vertex 4.141760e+01 4.168459e+00 1.960880e+00
      vertex 4.141760e+01 4.168452e+00 7.720874e+00
      vertex 2.873821e+01 1.643234e+01 7.720876e+00
    endloop
  endfacet
  facet normal -5.706519e-01 -8.211921e-01 -6.562468e-17
    outer loop
      vertex 1.425237e+01 2.649865e+01 7.720874e+00
      vertex 1.425237e+01 2.649865e+01 1.960882e+00
      vertex 2.873821e+01 1.643234e+01 1.960879e+00
    endloop
  endfacet
  facet normal -5.706519e-01 -8.211921e-01 -6.562468e-17
    outer loop
      vertex 2.873821e+01 1.643234e+01 1.960879e+00
      vertex 2.873821e+01 1.643234e+01 7.720876e+00
      vertex 1.425237e+01 2.649865e+01 7.720874e+00
    endloop
  endfacet
  facet normal 5.688480e-01 8.224428e-01 -1.089365e-06
    outer loop
      vertex 1.704608e+01 3.180857e+01 1.960876e+00
      vertex 1.704608e+01 3.180858e+01 7.720874e+00
      vertex 3.234908e+01 2.122415e+01 7.720876e+00
    endloop
  endfacet
  facet normal 5.688474e-01 8.224431e-01 1.089365e-06
    outer loop
      vertex 3.234908e+01 2.122415e+01 7.720876e+00
      vertex 3.234908e+01 2.122416e+01 1.960876e+00
      vertex 1.704608e+01 3.180857e+01 1.960876e+00
    endloop
  endfacet
  facet normal -1.446276e-07 7.609258e-08 1.000000e+00
    outer loop
      vertex 1.704608e+01 3.180858e+01 7.720874e+00
      vertex 1.425237e+01 2.649865e+01 7.720874e+00
      vertex 2.873821e+01 1.643234e+01 7.720876e+00
    endloop
  endfacet
  facet normal -1.229019e-07 9.261282e-08 1.000000e+00
    outer loop
      vertex 2.873821e+01 1.643234e+01 7.720876e+00
      vertex 3.234908e+01 2.122415e+01 7.720876e+00
      vertex 1.704608e+01 3.180858e+01 7.720874e+00
    endloop
  endfacet
  facet normal -5.009359e-07 -7.242563e-07 -1.000000e+00
    outer loop
      vertex 1.425237e+01 2.649865e+01 1.960882e+00
      vertex 1.704608e+01 3.180857e+01 1.960876e+00
      vertex 3.234908e+01 2.122416e+01 1.960876e+00
    endloop
  endfacet
  facet normal -3.803319e-07 -3.104655e-07 -1.000000e+00
    outer loop
      vertex 3.234908e+01 2.122416e+01 1.960876e+00
      vertex 2.873821e+01 1.643234e+01 1.960879e+00
      vertex 1.425237e+01 2.649865e+01 1.960882e+00
    endloop
  endfacet
  facet normal -1.052234e-07 7.710877e-08 -1.000000e+00
    outer loop
      vertex -1.663153e+00 3.410557e+01 1.960879e+00
      vertex 2.406559e-01 3.979550e+01 1.960879e+00
      vertex 1.704608e+01 3.180857e+01 1.960876e+00
    endloop
  endfacet
  facet normal -2.216501e-07 -8.711964e-07 -1.000000e+00
    outer loop
      vertex 1.704608e+01 3.180857e+01 1.960876e+00
      vertex 1.425237e+01 2.649865e+01 1.960882e+00
      vertex -1.663153e+00 3.410557e+01 1.960879e+00
    endloop
  endfacet
  facet normal 9.896799e-08 -7.501576e-08 1.000000e+00
    outer loop
      vertex 2.406559e-01 3.979551e+01 7.720876e+00
      vertex -1.663153e+00 3.410558e+01 7.720876e+00
      vertex 1.425237e+01 2.649865e+01 7.720874e+00
    endloop
  endfacet
  facet normal 1.134918e-07 -5.971117e-08 1.000000e+00
    outer loop
      vertex 1.425237e+01 2.649865e+01 7.720874e+00
      vertex 1.704608e+01 3.180858e+01 7.720874e+00
      vertex 2.406559e-01 3.979551e+01 7.720876e+00
    endloop
  endfacet
  facet normal 4.292478e-01 9.031867e-01 -1.196315e-06
    outer loop
      vertex 2.406559e-01 3.979550e+01 1.960879e+00
      vertex 2.406559e-01 3.979551e+01 7.720876e+00
      vertex 1.704608e+01 3.180858e+01 7.720874e+00
    endloop
  endfacet
  facet normal 4.292478e-01 9.031867e-01 -1.196315e-06
    outer loop
      vertex 1.704608e+01 3.180858e+01 7.720874e+00
      vertex 1.704608e+01 3.180857e+01 1.960876e+00
      vertex 2.406559e-01 3.979550e+01 1.960879e+00
    endloop
  endfacet
  facet normal -4.312315e-01 -9.022413e-01 1.195062e-06
    outer loop
      vertex -1.663153e+00 3.410558e+01 7.720876e+00
      vertex -1.663153e+00 3.410557e+01 1.960879e+00
      vertex 1.425237e+01 2.649865e+01 1.960882e+00
    endloop
  endfacet
  facet normal -4.312318e-01 -9.022412e-01 -8.408734e-17
    outer loop
      vertex 1.425237e+01 2.649865e+01 1.960882e+00
      vertex 1.425237e+01 2.649865e+01 7.720874e+00
      vertex -1.663153e+00 3.410558e+01 7.720876e+00
    endloop
  endfacet
  facet normal -2.805948e-01 -9.598264e-01 1.271336e-06
    outer loop
      vertex -1.859449e+01 3.905527e+01 7.720878e+00
      vertex -1.859449e+01 3.905526e+01 1.960881e+00
      vertex -1.663153e+00 3.410557e+01 1.960879e+00
    endloop
  endfacet
  facet normal -2.805948e-01 -9.598264e-01 1.271336e-06
    outer loop
      vertex -1.663153e+00 3.410557e+01 1.960879e+00
      vertex -1.663153e+00 3.410558e+01 7.720876e+00
      vertex -1.859449e+01 3.905527e+01 7.720878e+00
    endloop
  endfacet
  facet normal 2.784859e-01 9.604403e-01 1.272150e-06
    outer loop
      vertex -1.763004e+01 4.497724e+01 1.960881e+00
      vertex -1.763004e+01 4.497724e+01 7.720878e+00
      vertex 2.406559e-01 3.979551e+01 7.720876e+00
    endloop
  endfacet
  facet normal 2.784866e-01 9.604401e-01 -1.272149e-06
    outer loop
      vertex 2.406559e-01 3.979551e+01 7.720876e+00
      vertex 2.406559e-01 3.979550e+01 1.960879e+00
      vertex -1.763004e+01 4.497724e+01 1.960881e+00
    endloop
  endfacet
  facet normal 1.231807e-07 -6.032116e-08 1.000000e+00
    outer loop
      vertex -1.763004e+01 4.497724e+01 7.720878e+00
      vertex -1.859449e+01 3.905527e+01 7.720878e+00
      vertex -1.663153e+00 3.410558e+01 7.720876e+00
    endloop
  endfacet
  facet normal 1.105392e-07 -7.888740e-08 1.000000e+00
    outer loop
      vertex -1.663153e+00 3.410558e+01 7.720876e+00
      vertex 2.406559e-01 3.979551e+01 7.720876e+00
      vertex -1.763004e+01 4.497724e+01 7.720878e+00
    endloop
  endfacet
  facet normal -1.051026e-07 9.763676e-08 -1.000000e+00
    outer loop
      vertex -1.859449e+01 3.905526e+01 1.960881e+00
      vertex -1.763004e+01 4.497724e+01 1.960881e+00
      vertex 2.406559e-01 3.979550e+01 1.960879e+00
    endloop
  endfacet
  facet normal -1.042835e-07 7.679429e-08 -1.000000e+00
    outer loop
      vertex 2.406559e-01 3.979550e+01 1.960879e+00
      vertex -1.663153e+00 3.410557e+01 1.960879e+00
      vertex -1.859449e+01 3.905526e+01 1.960881e+00
    endloop
  endfacet
  facet normal -1.065227e-07 7.947296e-08 -1.000000e+00
    outer loop
      vertex -3.610130e+01 4.121901e+01 1.960883e+00
      vertex -3.610130e+01 4.721900e+01 1.960883e+00
      vertex -1.763004e+01 4.497724e+01 1.960881e+00
    endloop
  endfacet
  facet normal -1.103937e-07 9.849845e-08 -1.000000e+00
    outer loop
      vertex -1.763004e+01 4.497724e+01 1.960881e+00
      vertex -1.859449e+01 3.905526e+01 1.960881e+00
      vertex -3.610130e+01 4.121901e+01 1.960883e+00
    endloop
  endfacet
  facet normal 9.912664e-08 -7.947276e-08 1.000000e+00
    outer loop
      vertex -3.610129e+01 4.721901e+01 7.720881e+00
      vertex -3.610129e+01 4.121900e+01 7.720880e+00
      vertex -1.859449e+01 3.905527e+01 7.720878e+00
    endloop
  endfacet
  facet normal 1.091248e-07 -5.803203e-08 1.000000e+00
    outer loop
      vertex -1.859449e+01 3.905527e+01 7.720878e+00
      vertex -1.763004e+01 4.497724e+01 7.720878e+00
      vertex -3.610129e+01 4.721901e+01 7.720881e+00
    endloop
  endfacet
  facet normal 1.204816e-01 9.927155e-01 -1.324874e-06
    outer loop
      vertex -3.610130e+01 4.721900e+01 1.960883e+00
      vertex -3.610129e+01 4.721901e+01 7.720881e+00
      vertex -1.763004e+01 4.497724e+01 7.720878e+00
    endloop
  endfacet
  facet normal 1.204808e-01 9.927157e-01 1.314900e-06
    outer loop
      vertex -1.763004e+01 4.497724e+01 7.720878e+00
      vertex -1.763004e+01 4.497724e+01 1.960881e+00
      vertex -3.610130e+01 4.721900e+01 1.960883e+00
    endloop
  endfacet
  facet normal -1.226615e-01 -9.924486e-01 -1.304392e-06
    outer loop
      vertex -3.610129e+01 4.121900e+01 7.720880e+00
      vertex -3.610130e+01 4.121901e+01 1.960883e+00
      vertex -1.859449e+01 3.905526e+01 1.960881e+00
    endloop
  endfacet
  facet normal -1.226606e-01 -9.924487e-01 1.314546e-06
    outer loop
      vertex -1.859449e+01 3.905526e+01 1.960881e+00
      vertex -1.859449e+01 3.905527e+01 7.720878e+00
      vertex -3.610129e+01 4.121900e+01 7.720880e+00
    endloop
  endfacet
  facet normal -2.251748e-07 8.892069e-08 1.000000e+00
    outer loop
      vertex -3.910117e+01 5.916934e+01 0.000000e+00
      vertex -3.910117e+01 2.699434e+01 2.861023e-06
      vertex -3.077422e+01 2.663077e+01 4.768372e-06
    endloop
  endfacet
  facet normal -3.834270e-07 4.842235e-08 1.000000e+00
    outer loop
      vertex -3.077422e+01 2.663077e+01 4.768372e-06
      vertex -2.796998e+01 5.868333e+01 4.291534e-06
      vertex -3.910117e+01 5.916934e+01 0.000000e+00
    endloop
  endfacet
  facet normal -5.114812e-07 5.962568e-08 1.000000e+00
    outer loop
      vertex -2.796998e+01 5.868333e+01 4.291534e-06
      vertex -3.077422e+01 2.663077e+01 4.768372e-06
      vertex -2.251064e+01 2.554284e+01 9.059906e-06
    endloop
  endfacet
  facet normal -3.777477e-07 8.165602e-08 1.000000e+00
    outer loop
      vertex -2.251064e+01 2.554284e+01 9.059906e-06
      vertex -1.692350e+01 5.722902e+01 8.583069e-06
      vertex -2.796998e+01 5.868333e+01 4.291534e-06
    endloop
  endfacet
  facet normal -2.223666e-07 5.425807e-08 1.000000e+00
    outer loop
      vertex -1.692350e+01 5.722902e+01 8.583069e-06
      vertex -2.251064e+01 2.554284e+01 9.059906e-06
      vertex -1.437333e+01 2.373883e+01 1.096725e-05
    endloop
  endfacet
  facet normal 6.402996e-07 1.199473e-07 1.000000e+00
    outer loop
      vertex -1.437333e+01 2.373883e+01 1.096725e-05
      vertex -6.045816e+00 5.481749e+01 1.907349e-06
      vertex -1.692350e+01 5.722902e+01 8.583069e-06
    endloop
  endfacet
  facet normal 2.506932e-07 2.243422e-07 1.000000e+00
    outer loop
      vertex -6.045816e+00 5.481749e+01 1.907349e-06
      vertex -1.437333e+01 2.373883e+01 1.096725e-05
      vertex -6.424200e+00 2.123248e+01 9.536743e-06
    endloop
  endfacet
  facet normal -2.863495e-07 2.303928e-07 1.000000e+00
    outer loop
      vertex -6.424200e+00 2.123248e+01 9.536743e-06
      vertex 4.580313e+00 5.146708e+01 5.722046e-06
      vertex -6.045816e+00 5.481749e+01 1.907349e-06
    endloop
  endfacet
  facet normal -4.388821e-07 2.859102e-07 1.000000e+00
    outer loop
      vertex 4.580313e+00 5.146708e+01 5.722046e-06
      vertex -6.424200e+00 2.123248e+01 9.536743e-06
      vertex 1.276239e+00 1.804284e+01 1.382828e-05
    endloop
  endfacet
  facet normal -2.595033e-07 2.681781e-07 1.000000e+00
    outer loop
      vertex 1.276239e+00 1.804284e+01 1.382828e-05
      vertex 1.487398e+01 4.720329e+01 9.536743e-06
      vertex 4.580313e+00 5.146708e+01 5.722046e-06
    endloop
  endfacet
  facet normal -1.459490e-07 2.152269e-07 1.000000e+00
    outer loop
      vertex 1.487398e+01 4.720329e+01 9.536743e-06
      vertex 1.276239e+00 1.804284e+01 1.382828e-05
      vertex 8.669367e+00 1.419421e+01 1.573563e-05
    endloop
  endfacet
  facet normal -2.625409e-07 2.371423e-07 1.000000e+00
    outer loop
      vertex 8.669367e+00 1.419421e+01 1.573563e-05
      vertex 2.475689e+01 4.205857e+01 1.335144e-05
      vertex 1.487398e+01 4.720329e+01 9.536743e-06
    endloop
  endfacet
  facet normal -1.089246e-07 1.484517e-07 1.000000e+00
    outer loop
      vertex 2.475689e+01 4.205857e+01 1.335144e-05
      vertex 8.669367e+00 1.419421e+01 1.573563e-05
      vertex 1.569894e+01 9.715861e+00 1.716614e-05
    endloop
  endfacet
  facet normal 1.929472e-07 6.390906e-08 1.000000e+00
    outer loop
      vertex 1.569894e+01 9.715861e+00 1.716614e-05
      vertex 3.415377e+01 3.607208e+01 1.192093e-05
      vertex 2.475689e+01 4.205857e+01 1.335144e-05
    endloop
  endfacet
  facet normal -4.138882e-08 2.279930e-07 1.000000e+00
    outer loop
      vertex 3.415377e+01 3.607208e+01 1.192093e-05
      vertex 1.569894e+01 9.715861e+00 1.716614e-05
      vertex 2.231146e+01 4.641901e+00 1.859665e-05
    endloop
  endfacet
  facet normal 2.519659e-07 1.174623e-07 1.000000e+00
    outer loop
      vertex 2.231146e+01 4.641901e+00 1.859665e-05
      vertex 4.299316e+01 2.928937e+01 1.049042e-05
      vertex 3.415377e+01 3.607208e+01 1.192093e-05
    endloop
  endfacet
  facet normal 5.213079e-07 -1.085427e-07 1.000000e+00
    outer loop
      vertex 4.299316e+01 2.928937e+01 1.049042e-05
      vertex 2.231146e+01 4.641901e+00 1.859665e-05
      vertex 2.845657e+01 -9.890800e-01 1.478195e-05
    endloop
  endfacet
  facet normal -2.323056e-07 2.532648e-07 1.000000e+00
    outer loop
      vertex 2.845657e+01 -9.890800e-01 1.478195e-05
      vertex 5.120776e+01 2.176207e+01 1.430511e-05
      vertex 4.299316e+01 2.928937e+01 1.049042e-05
    endloop
  endfacet
  facet normal -1.510309e-07 1.719899e-07 1.000000e+00
    outer loop
      vertex 5.120776e+01 2.176207e+01 1.430511e-05
      vertex 2.845657e+01 -9.890800e-01 1.478195e-05
      vertex 3.408752e+01 -7.134214e+00 1.668930e-05
    endloop
  endfacet
  facet normal -2.530958e-07 2.324605e-07 1.000000e+00
    outer loop
      vertex 3.408752e+01 -7.134214e+00 1.668930e-05
      vertex 5.873504e+01 1.354746e+01 1.811981e-05
      vertex 5.120776e+01 2.176207e+01 1.430511e-05
    endloop
  endfacet
  facet normal -1.457326e-07 1.045097e-07 1.000000e+00
    outer loop
      vertex 5.873504e+01 1.354746e+01 1.811981e-05
      vertex 3.408752e+01 -7.134214e+00 1.668930e-05
      vertex 3.916146e+01 -1.374673e+01 1.811981e-05
    endloop
  endfacet
  facet normal 1.090187e-07 -7.818098e-08 1.000000e+00
    outer loop
      vertex 3.916146e+01 -1.374673e+01 1.811981e-05
      vertex 6.551772e+01 4.708071e+00 1.668930e-05
      vertex 5.873504e+01 1.354746e+01 1.811981e-05
    endloop
  endfacet
  facet normal -1.595391e-07 3.053604e-07 1.000000e+00
    outer loop
      vertex 6.551772e+01 4.708071e+00 1.668930e-05
      vertex 3.916146e+01 -1.374673e+01 1.811981e-05
      vertex 4.363980e+01 -2.077631e+01 2.098083e-05
    endloop
  endfacet
  facet normal -1.927700e-07 3.338886e-07 1.000000e+00
    outer loop
      vertex 4.363980e+01 -2.077631e+01 2.098083e-05
      vertex 7.150421e+01 -4.688837e+00 2.098083e-05
      vertex 6.551772e+01 4.708071e+00 1.668930e-05
    endloop
  endfacet
  facet normal 1.431605e-07 -2.479621e-07 1.000000e+00
    outer loop
      vertex 7.150421e+01 -4.688837e+00 2.098083e-05
      vertex 4.363980e+01 -2.077631e+01 2.098083e-05
      vertex 4.748840e+01 -2.816945e+01 1.859665e-05
    endloop
  endfacet
  facet normal -1.283148e-07 2.970096e-08 1.000000e+00
    outer loop
      vertex 4.748840e+01 -2.816945e+01 1.859665e-05
      vertex 7.664892e+01 -1.457174e+01 2.193451e-05
      vertex 7.150421e+01 -4.688837e+00 2.098083e-05
    endloop
  endfacet
  facet normal -1.201361e-07 1.216169e-08 1.000000e+00
    outer loop
      vertex 7.664892e+01 -1.457174e+01 2.193451e-05
      vertex 4.748840e+01 -2.816945e+01 1.859665e-05
      vertex 5.067800e+01 -3.586989e+01 1.907349e-05
    endloop
  endfacet
  facet normal -2.551738e-08 -1.032162e-07 1.000000e+00
    outer loop
      vertex 5.067800e+01 -3.586989e+01 1.907349e-05
      vertex 8.091268e+01 -2.486542e+01 2.098083e-05
      vertex 7.664892e+01 -1.457174e+01 2.193451e-05
    endloop
  endfacet
  facet normal 5.912675e-08 -2.012810e-07 1.000000e+00
    outer loop
      vertex 7.847430e+01 -4.536925e+01 1.955032e-05
      vertex 6.234496e+01 -4.536925e+01 2.050400e-05
      vertex 6.375427e+01 -5.916934e+01 1.764297e-05
    endloop
  endfacet
  facet normal -2.865882e-07 1.674800e-07 1.000000e+00
    outer loop
      vertex 6.375427e+01 -5.916934e+01 1.764297e-05
      vertex 7.706500e+01 -5.916934e+01 2.145767e-05
      vertex 7.847430e+01 -4.536925e+01 1.955032e-05
    endloop
  endfacet
  facet normal -4.362043e-02 -9.990482e-01 1.589432e-06
    outer loop
      vertex -3.910117e+01 2.699436e+01 9.619109e+00
      vertex -3.910117e+01 2.699434e+01 2.861023e-06
      vertex -3.077422e+01 2.663077e+01 4.768372e-06
    endloop
  endfacet
  facet normal -4.362226e-02 -9.990481e-01 4.324877e-09
    outer loop
      vertex -3.077422e+01 2.663077e+01 4.768372e-06
      vertex -3.077422e+01 2.663077e+01 9.619105e+00
      vertex -3.910117e+01 2.699436e+01 9.619109e+00
    endloop
  endfacet
  facet normal -4.362021e-02 -9.990482e-01 4.641453e-09
    outer loop
      vertex -3.910117e+01 5.916934e+01 9.619106e+00
      vertex -3.910117e+01 5.916934e+01 0.000000e+00
      vertex -2.796998e+01 5.868333e+01 4.291534e-06
    endloop
  endfacet
  facet normal -4.362090e-02 -9.990482e-01 -7.880704e-07
    outer loop
      vertex -2.796998e+01 5.868333e+01 4.291534e-06
      vertex -2.796998e+01 5.868332e+01 9.619110e+00
      vertex -3.910117e+01 5.916934e+01 9.619106e+00
    endloop
  endfacet
  facet normal -1.305272e-01 -9.914447e-01 -7.734235e-07
    outer loop
      vertex -2.796998e+01 5.868332e+01 9.619110e+00
      vertex -2.796998e+01 5.868333e+01 4.291534e-06
      vertex -1.692350e+01 5.722902e+01 8.583069e-06
    endloop
  endfacet
  facet normal -1.305258e-01 -9.914449e-01 7.863642e-07
    outer loop
      vertex -1.692350e+01 5.722902e+01 8.583069e-06
      vertex -1.692350e+01 5.722903e+01 9.619120e+00
      vertex -2.796998e+01 5.868332e+01 9.619110e+00
    endloop
  endfacet
  facet normal -1.305271e-01 -9.914448e-01 1.294096e-08
    outer loop
      vertex -3.077422e+01 2.663077e+01 9.619105e+00
      vertex -3.077422e+01 2.663077e+01 4.768372e-06
      vertex -2.251064e+01 2.554284e+01 9.059906e-06
    endloop
  endfacet
  facet normal -1.305271e-01 -9.914448e-01 2.588189e-08
    outer loop
      vertex -2.251064e+01 2.554284e+01 9.059906e-06
      vertex -2.251064e+01 2.554284e+01 9.619115e+00
      vertex -3.077422e+01 2.663077e+01 9.619105e+00
    endloop
  endfacet
  facet normal -2.164407e-01 -9.762958e-01 4.291749e-08
    outer loop
      vertex -2.251064e+01 2.554284e+01 9.619115e+00
      vertex -2.251064e+01 2.554284e+01 9.059906e-06
      vertex -1.437333e+01 2.373883e+01 1.096725e-05
    endloop
  endfacet
  facet normal -2.164398e-01 -9.762959e-01 8.172663e-07
    outer loop
      vertex -1.437333e+01 2.373883e+01 1.096725e-05
      vertex -1.437333e+01 2.373884e+01 9.619119e+00
      vertex -2.251064e+01 2.554284e+01 9.619115e+00
    endloop
  endfacet
  facet normal -2.164401e-01 -9.762959e-01 7.743487e-07
    outer loop
      vertex -1.692350e+01 5.722903e+01 9.619120e+00
      vertex -1.692350e+01 5.722902e+01 8.583069e-06
      vertex -6.045816e+00 5.481749e+01 1.907349e-06
    endloop
  endfacet
  facet normal -2.164406e-01 -9.762958e-01 8.583491e-08
    outer loop
      vertex -6.045816e+00 5.481749e+01 1.907349e-06
      vertex -6.045813e+00 5.481749e+01 9.619112e+00
      vertex -1.692350e+01 5.722903e+01 9.619120e+00
    endloop
  endfacet
  facet normal -3.007062e-01 -9.537168e-01 1.192525e-07
    outer loop
      vertex -6.045813e+00 5.481749e+01 9.619112e+00
      vertex -6.045816e+00 5.481749e+01 1.907349e-06
      vertex 4.580313e+00 5.146708e+01 5.722046e-06
    endloop
  endfacet
  facet normal -3.007062e-01 -9.537168e-01 1.192525e-07
    outer loop
      vertex 4.580313e+00 5.146708e+01 5.722046e-06
      vertex 4.580317e+00 5.146708e+01 9.619117e+00
      vertex -6.045813e+00 5.481749e+01 9.619112e+00
    endloop
  endfacet
  facet normal -3.007063e-01 -9.537168e-01 8.160666e-07
    outer loop
      vertex -1.437333e+01 2.373884e+01 9.619119e+00
      vertex -1.437333e+01 2.373883e+01 1.096725e-05
      vertex -6.424200e+00 2.123248e+01 9.536743e-06
    endloop
  endfacet
  facet normal -3.007072e-01 -9.537165e-01 -9.838358e-17
    outer loop
      vertex -6.424200e+00 2.123248e+01 9.536743e-06
      vertex -6.424200e+00 2.123248e+01 9.619112e+00
      vertex -1.437333e+01 2.373884e+01 9.619119e+00
    endloop
  endfacet
  facet normal -3.826844e-01 -9.238791e-01 -8.970989e-17
    outer loop
      vertex -6.424200e+00 2.123248e+01 9.619112e+00
      vertex -6.424200e+00 2.123248e+01 9.536743e-06
      vertex 1.276239e+00 1.804284e+01 1.382828e-05
    endloop
  endfacet
  facet normal -3.826844e-01 -9.238791e-01 -8.970989e-17
    outer loop
      vertex 1.276239e+00 1.804284e+01 1.382828e-05
      vertex 1.276239e+00 1.804284e+01 9.619114e+00
      vertex -6.424200e+00 2.123248e+01 9.619112e+00
    endloop
  endfacet
  facet normal -3.826846e-01 -9.238790e-01 1.517631e-07
    outer loop
      vertex 4.580317e+00 5.146708e+01 9.619117e+00
      vertex 4.580313e+00 5.146708e+01 5.722046e-06
      vertex 1.487398e+01 4.720329e+01 9.536743e-06
    endloop
  endfacet
  facet normal -3.826841e-01 -9.238793e-01 8.845379e-07
    outer loop
      vertex 1.487398e+01 4.720329e+01 9.536743e-06
      vertex 1.487399e+01 4.720330e+01 9.619115e+00
      vertex 4.580317e+00 5.146708e+01 9.619117e+00
    endloop
  endfacet
  facet normal -4.617492e-01 -8.870106e-01 8.866507e-07
    outer loop
      vertex 1.487399e+01 4.720330e+01 9.619115e+00
      vertex 1.487398e+01 4.720329e+01 9.536743e-06
      vertex 2.475689e+01 4.205857e+01 1.335144e-05
    endloop
  endfacet
  facet normal -4.617492e-01 -8.870106e-01 8.866502e-07
    outer loop
      vertex 2.475689e+01 4.205857e+01 1.335144e-05
      vertex 2.475689e+01 4.205857e+01 9.619124e+00
      vertex 1.487399e+01 4.720330e+01 9.619115e+00
    endloop
  endfacet
  facet normal -4.617499e-01 -8.870101e-01 -8.035338e-17
    outer loop
      vertex 1.276239e+00 1.804284e+01 9.619114e+00
      vertex 1.276239e+00 1.804284e+01 1.382828e-05
      vertex 8.669367e+00 1.419421e+01 1.573563e-05
    endloop
  endfacet
  facet normal -4.617492e-01 -8.870105e-01 7.035331e-07
    outer loop
      vertex 8.669367e+00 1.419421e+01 1.573563e-05
      vertex 8.669367e+00 1.419422e+01 9.619113e+00
      vertex 1.276239e+00 1.804284e+01 9.619114e+00
    endloop
  endfacet
  facet normal -5.373011e-01 -8.433905e-01 6.689359e-07
    outer loop
      vertex 8.669367e+00 1.419422e+01 9.619113e+00
      vertex 8.669367e+00 1.419421e+01 1.573563e-05
      vertex 1.569894e+01 9.715861e+00 1.716614e-05
    endloop
  endfacet
  facet normal -5.373011e-01 -8.433905e-01 6.689359e-07
    outer loop
      vertex 1.569894e+01 9.715861e+00 1.716614e-05
      vertex 1.569894e+01 9.715868e+00 9.619115e+00
      vertex 8.669367e+00 1.419422e+01 9.619113e+00
    endloop
  endfacet
  facet normal -5.373004e-01 -8.433909e-01 8.820151e-07
    outer loop
      vertex 2.475689e+01 4.205857e+01 9.619124e+00
      vertex 2.475689e+01 4.205857e+01 1.335144e-05
      vertex 3.415377e+01 3.607208e+01 1.192093e-05
    endloop
  endfacet
  facet normal -5.373011e-01 -8.433905e-01 -7.038535e-17
    outer loop
      vertex 3.415377e+01 3.607208e+01 1.192093e-05
      vertex 3.415377e+01 3.607208e+01 9.619118e+00
      vertex 2.475689e+01 4.205857e+01 9.619124e+00
    endloop
  endfacet
  facet normal -6.087618e-01 -7.933530e-01 -5.988181e-17
    outer loop
      vertex 3.415377e+01 3.607208e+01 9.619118e+00
      vertex 3.415377e+01 3.607208e+01 1.192093e-05
      vertex 4.299316e+01 2.928937e+01 1.049042e-05
    endloop
  endfacet
  facet normal -6.087618e-01 -7.933530e-01 -5.988181e-17
    outer loop
      vertex 4.299316e+01 2.928937e+01 1.049042e-05
      vertex 4.299316e+01 2.928937e+01 9.619116e+00
      vertex 3.415377e+01 3.607208e+01 9.619118e+00
    endloop
  endfacet
  facet normal -6.087611e-01 -7.933536e-01 6.292490e-07
    outer loop
      vertex 1.569894e+01 9.715868e+00 9.619115e+00
      vertex 1.569894e+01 9.715861e+00 1.716614e-05
      vertex 2.231146e+01 4.641901e+00 1.859665e-05
    endloop
  endfacet
  facet normal -6.087611e-01 -7.933536e-01 6.292492e-07
    outer loop
      vertex 2.231146e+01 4.641901e+00 1.859665e-05
      vertex 2.231146e+01 4.641909e+00 9.619113e+00
      vertex 1.569894e+01 9.715868e+00 9.619115e+00
    endloop
  endfacet
  facet normal -6.755918e-01 -7.372758e-01 5.847711e-07
    outer loop
      vertex 2.231146e+01 4.641909e+00 9.619113e+00
      vertex 2.231146e+01 4.641901e+00 1.859665e-05
      vertex 2.845657e+01 -9.890800e-01 1.478195e-05
    endloop
  endfacet
  facet normal -6.755918e-01 -7.372758e-01 5.847709e-07
    outer loop
      vertex 2.845657e+01 -9.890800e-01 1.478195e-05
      vertex 2.845657e+01 -9.890723e-01 9.619112e+00
      vertex 2.231146e+01 4.641909e+00 9.619113e+00
    endloop
  endfacet
  facet normal -6.755904e-01 -7.372772e-01 -4.892243e-17
    outer loop
      vertex 4.299316e+01 2.928937e+01 9.619116e+00
      vertex 4.299316e+01 2.928937e+01 1.049042e-05
      vertex 5.120776e+01 2.176207e+01 1.430511e-05
    endloop
  endfacet
  facet normal -6.755904e-01 -7.372772e-01 -4.892243e-17
    outer loop
      vertex 5.120776e+01 2.176207e+01 1.430511e-05
      vertex 5.120776e+01 2.176207e+01 9.619123e+00
      vertex 4.299316e+01 2.928937e+01 9.619116e+00
    endloop
  endfacet
  facet normal -7.372785e-01 -6.755890e-01 -3.759050e-17
    outer loop
      vertex 5.120776e+01 2.176207e+01 9.619123e+00
      vertex 5.120776e+01 2.176207e+01 1.430511e-05
      vertex 5.873504e+01 1.354746e+01 1.811981e-05
    endloop
  endfacet
  facet normal -7.372782e-01 -6.755893e-01 5.358439e-07
    outer loop
      vertex 5.873504e+01 1.354746e+01 1.811981e-05
      vertex 5.873504e+01 1.354746e+01 9.619121e+00
      vertex 5.120776e+01 2.176207e+01 9.619123e+00
    endloop
  endfacet
  facet normal -7.372789e-01 -6.755884e-01 5.358435e-07
    outer loop
      vertex 2.845657e+01 -9.890723e-01 9.619112e+00
      vertex 2.845657e+01 -9.890800e-01 1.478195e-05
      vertex 3.408752e+01 -7.134214e+00 1.668930e-05
    endloop
  endfacet
  facet normal -7.372788e-01 -6.755887e-01 8.037657e-07
    outer loop
      vertex 3.408752e+01 -7.134214e+00 1.668930e-05
      vertex 3.408752e+01 -7.134202e+00 9.619112e+00
      vertex 2.845657e+01 -9.890723e-01 9.619112e+00
    endloop
  endfacet
  facet normal -7.933545e-01 -6.087599e-01 7.242578e-07
    outer loop
      vertex 3.408752e+01 -7.134202e+00 9.619112e+00
      vertex 3.408752e+01 -7.134214e+00 1.668930e-05
      vertex 3.916146e+01 -1.374673e+01 1.811981e-05
    endloop
  endfacet
  facet normal -7.933545e-01 -6.087599e-01 7.242578e-07
    outer loop
      vertex 3.916146e+01 -1.374673e+01 1.811981e-05
      vertex 3.916146e+01 -1.374672e+01 9.619113e+00
      vertex 3.408752e+01 -7.134202e+00 9.619112e+00
    endloop
  endfacet
  facet normal -7.933540e-01 -6.087606e-01 4.828386e-07
    outer loop
      vertex 5.873504e+01 1.354746e+01 9.619121e+00
      vertex 5.873504e+01 1.354746e+01 1.811981e-05
      vertex 6.551772e+01 4.708071e+00 1.668930e-05
    endloop
  endfacet
  facet normal -7.933543e-01 -6.087602e-01 -2.597269e-17
    outer loop
      vertex 6.551772e+01 4.708071e+00 1.668930e-05
      vertex 6.551772e+01 4.708071e+00 9.619117e+00
      vertex 5.873504e+01 1.354746e+01 9.619121e+00
    endloop
  endfacet
  facet normal -8.433918e-01 -5.372990e-01 -1.415729e-17
    outer loop
      vertex 6.551772e+01 4.708071e+00 9.619117e+00
      vertex 6.551772e+01 4.708071e+00 1.668930e-05
      vertex 7.150421e+01 -4.688837e+00 2.098083e-05
    endloop
  endfacet
  facet normal -8.433917e-01 -5.372993e-01 4.261593e-07
    outer loop
      vertex 7.150421e+01 -4.688837e+00 2.098083e-05
      vertex 7.150421e+01 -4.688829e+00 9.619118e+00
      vertex 6.551772e+01 4.708071e+00 9.619117e+00
    endloop
  endfacet
  facet normal -8.433915e-01 -5.372995e-01 6.392395e-07
    outer loop
      vertex 3.916146e+01 -1.374672e+01 9.619113e+00
      vertex 3.916146e+01 -1.374673e+01 1.811981e-05
      vertex 4.363980e+01 -2.077631e+01 2.098083e-05
    endloop
  endfacet
  facet normal -8.433916e-01 -5.372993e-01 4.261595e-07
    outer loop
      vertex 4.363980e+01 -2.077631e+01 2.098083e-05
      vertex 4.363980e+01 -2.077630e+01 9.619116e+00
      vertex 3.916146e+01 -1.374672e+01 9.619113e+00
    endloop
  endfacet
  facet normal -8.870119e-01 -4.617465e-01 3.662347e-07
    outer loop
      vertex 4.363980e+01 -2.077630e+01 9.619116e+00
      vertex 4.363980e+01 -2.077631e+01 2.098083e-05
      vertex 4.748840e+01 -2.816945e+01 1.859665e-05
    endloop
  endfacet
  facet normal -8.870119e-01 -4.617465e-01 3.662346e-07
    outer loop
      vertex 4.748840e+01 -2.816945e+01 1.859665e-05
      vertex 4.748840e+01 -2.816944e+01 9.619115e+00
      vertex 4.363980e+01 -2.077630e+01 9.619116e+00
    endloop
  endfacet
  facet normal -8.870108e-01 -4.617487e-01 3.662364e-07
    outer loop
      vertex 7.150421e+01 -4.688829e+00 9.619118e+00
      vertex 7.150421e+01 -4.688837e+00 2.098083e-05
      vertex 7.664892e+01 -1.457174e+01 2.193451e-05
    endloop
  endfacet
  facet normal -8.870108e-01 -4.617486e-01 1.831181e-07
    outer loop
      vertex 7.664892e+01 -1.457174e+01 2.193451e-05
      vertex 7.664892e+01 -1.457173e+01 9.619123e+00
      vertex 7.150421e+01 -4.688829e+00 9.619118e+00
    endloop
  endfacet
  facet normal -9.238802e-01 -3.826820e-01 1.517622e-07
    outer loop
      vertex 7.664892e+01 -1.457173e+01 9.619123e+00
      vertex 7.664892e+01 -1.457174e+01 2.193451e-05
      vertex 8.091268e+01 -2.486542e+01 2.098083e-05
    endloop
  endfacet
  facet normal -9.238802e-01 -3.826818e-01 9.706337e-18
    outer loop
      vertex 8.091268e+01 -2.486542e+01 2.098083e-05
      vertex 8.091268e+01 -2.486542e+01 9.619125e+00
      vertex 7.664892e+01 -1.457173e+01 9.619123e+00
    endloop
  endfacet
  facet normal -9.238804e-01 -3.826813e-01 3.035240e-07
    outer loop
      vertex 4.748840e+01 -2.816944e+01 9.619115e+00
      vertex 4.748840e+01 -2.816945e+01 1.859665e-05
      vertex 5.067800e+01 -3.586989e+01 1.907349e-05
    endloop
  endfacet
  facet normal -9.238804e-01 -3.826813e-01 3.035240e-07
    outer loop
      vertex 5.067800e+01 -3.586989e+01 1.907349e-05
      vertex 5.067800e+01 -3.586988e+01 9.619115e+00
      vertex 4.748840e+01 -2.816944e+01 9.619115e+00
    endloop
  endfacet
  facet normal -9.948259e-01 1.015943e-01 -6.043467e-08
    outer loop
      vertex 7.706500e+01 -5.916934e+01 2.145767e-05
      vertex 7.706500e+01 -5.916933e+01 9.619122e+00
      vertex 7.847430e+01 -4.536925e+01 9.619120e+00
    endloop
  endfacet
  facet normal -9.948259e-01 1.015943e-01 -6.043467e-08
    outer loop
      vertex 7.847430e+01 -4.536925e+01 9.619120e+00
      vertex 7.847430e+01 -4.536925e+01 1.955032e-05
      vertex 7.706500e+01 -5.916934e+01 2.145767e-05
    endloop
  endfacet
  facet normal 9.948259e-01 1.015943e-01 -9.065204e-08
    outer loop
      vertex 6.375427e+01 -5.916934e+01 9.619112e+00
      vertex 6.375427e+01 -5.916934e+01 1.764297e-05
      vertex 6.234496e+01 -4.536925e+01 2.050400e-05
    endloop
  endfacet
  facet normal 9.948259e-01 1.015943e-01 -8.057957e-08
    outer loop
      vertex 6.234496e+01 -4.536925e+01 2.050400e-05
      vertex 6.234496e+01 -4.536925e+01 9.619119e+00
      vertex 6.375427e+01 -5.916934e+01 9.619112e+00
    endloop
  endfacet
  facet normal -1.210500e-01 9.926464e-01 -7.873184e-07
    outer loop
      vertex 5.414465e+01 -4.636926e+01 1.907349e-05
      vertex 5.414465e+01 -4.636925e+01 9.619114e+00
      vertex 6.234496e+01 -4.536925e+01 9.619119e+00
    endloop
  endfacet
  facet normal -1.210500e-01 9.926464e-01 -7.873182e-07
    outer loop
      vertex 6.234496e+01 -4.536925e+01 9.619119e+00
      vertex 6.234496e+01 -4.536925e+01 2.050400e-05
      vertex 5.414465e+01 -4.636926e+01 1.907349e-05
    endloop
  endfacet
  facet normal 1.210495e-01 9.926465e-01 -3.936590e-07
    outer loop
      vertex 8.667462e+01 -4.636925e+01 9.619122e+00
      vertex 8.667462e+01 -4.636925e+01 2.193451e-05
      vertex 7.847430e+01 -4.536925e+01 1.955032e-05
    endloop
  endfacet
  facet normal 1.210498e-01 9.926465e-01 -5.904885e-07
    outer loop
      vertex 7.847430e+01 -4.536925e+01 1.955032e-05
      vertex 7.847430e+01 -4.536925e+01 9.619120e+00
      vertex 8.667462e+01 -4.636925e+01 9.619122e+00
    endloop
  endfacet
  facet normal -8.747970e-07 -8.710894e-08 1.000000e+00
    outer loop
      vertex -1.692350e+01 5.722903e+01 9.619120e+00
      vertex -2.796998e+01 5.868332e+01 9.619110e+00
      vertex -3.077422e+01 2.663077e+01 9.619105e+00
    endloop
  endfacet
  facet normal -1.203643e-06 6.174781e-08 1.000000e+00
    outer loop
      vertex -1.692350e+01 5.722903e+01 9.619120e+00
      vertex -3.077422e+01 2.663077e+01 9.619105e+00
      vertex -2.251064e+01 2.554284e+01 9.619115e+00
    endloop
  endfacet
  facet normal -3.816587e-07 8.892074e-08 1.000000e+00
    outer loop
      vertex -2.796998e+01 5.868332e+01 9.619110e+00
      vertex -3.910117e+01 5.916934e+01 9.619106e+00
      vertex -3.910117e+01 2.699436e+01 9.619109e+00
    endloop
  endfacet
  facet normal 4.492531e-07 -2.029487e-07 1.000000e+00
    outer loop
      vertex -2.796998e+01 5.868332e+01 9.619110e+00
      vertex -3.910117e+01 2.699436e+01 9.619109e+00
      vertex -3.077422e+01 2.663077e+01 9.619105e+00
    endloop
  endfacet
  facet normal 6.967205e-08 -1.672997e-07 1.000000e+00
    outer loop
      vertex 1.487399e+01 4.720330e+01 9.619115e+00
      vertex 4.580317e+00 5.146708e+01 9.619117e+00
      vertex -6.424200e+00 2.123248e+01 9.619112e+00
    endloop
  endfacet
  facet normal -2.189496e-07 6.939356e-08 1.000000e+00
    outer loop
      vertex 1.487399e+01 4.720330e+01 9.619115e+00
      vertex -6.424200e+00 2.123248e+01 9.619112e+00
      vertex 1.276239e+00 1.804284e+01 9.619114e+00
    endloop
  endfacet
  facet normal -3.099535e-07 2.978528e-07 1.000000e+00
    outer loop
      vertex 4.580317e+00 5.146708e+01 9.619117e+00
      vertex -6.045813e+00 5.481749e+01 9.619112e+00
      vertex -1.437333e+01 2.373884e+01 9.619119e+00
    endloop
  endfacet
  facet normal 7.132039e-07 -4.015266e-07 1.000000e+00
    outer loop
      vertex 4.580317e+00 5.146708e+01 9.619117e+00
      vertex -1.437333e+01 2.373884e+01 9.619119e+00
      vertex -6.424200e+00 2.123248e+01 9.619112e+00
    endloop
  endfacet
  facet normal -4.528676e-07 3.361466e-07 1.000000e+00
    outer loop
      vertex -2.251064e+01 2.554284e+01 9.619115e+00
      vertex -1.437333e+01 2.373884e+01 9.619119e+00
      vertex -6.045813e+00 5.481749e+01 9.619112e+00
    endloop
  endfacet
  facet normal 6.006995e-07 -2.564071e-07 1.000000e+00
    outer loop
      vertex -2.251064e+01 2.554284e+01 9.619115e+00
      vertex -6.045813e+00 5.481749e+01 9.619112e+00
      vertex -1.692350e+01 5.722903e+01 9.619120e+00
    endloop
  endfacet
  facet normal 8.654131e-08 -1.691491e-07 1.000000e+00
    outer loop
      vertex 1.569894e+01 9.715868e+00 9.619115e+00
      vertex 2.231146e+01 4.641909e+00 9.619113e+00
      vertex 3.415377e+01 3.607208e+01 9.619118e+00
    endloop
  endfacet
  facet normal -1.561565e-08 -4.016915e-07 1.000000e+00
    outer loop
      vertex 1.276239e+00 1.804284e+01 9.619114e+00
      vertex 8.669367e+00 1.419422e+01 9.619113e+00
      vertex 2.475689e+01 4.205857e+01 9.619124e+00
    endloop
  endfacet
  facet normal -7.513609e-07 3.176611e-07 1.000000e+00
    outer loop
      vertex 1.276239e+00 1.804284e+01 9.619114e+00
      vertex 2.475689e+01 4.205857e+01 9.619124e+00
      vertex 1.487399e+01 4.720330e+01 9.619115e+00
    endloop
  endfacet
  facet normal 4.426401e-08 -1.532198e-07 1.000000e+00
    outer loop
      vertex 4.299316e+01 2.928937e+01 9.619116e+00
      vertex 3.415377e+01 3.607208e+01 9.619118e+00
      vertex 2.231146e+01 4.641909e+00 9.619113e+00
    endloop
  endfacet
  facet normal -2.354551e-07 5.631545e-08 1.000000e+00
    outer loop
      vertex 8.669367e+00 1.419422e+01 9.619113e+00
      vertex 1.569894e+01 9.715868e+00 9.619115e+00
      vertex 3.415377e+01 3.607208e+01 9.619118e+00
    endloop
  endfacet
  facet normal 3.280915e-07 -6.001313e-07 1.000000e+00
    outer loop
      vertex 8.669367e+00 1.419422e+01 9.619113e+00
      vertex 3.415377e+01 3.607208e+01 9.619118e+00
      vertex 2.475689e+01 4.205857e+01 9.619124e+00
    endloop
  endfacet
  facet normal -1.294757e-07 -3.106593e-07 1.000000e+00
    outer loop
      vertex 2.231146e+01 4.641909e+00 9.619113e+00
      vertex 2.845657e+01 -9.890723e-01 9.619112e+00
      vertex 5.120776e+01 2.176207e+01 9.619123e+00
    endloop
  endfacet
  facet normal -4.867354e-07 2.923422e-07 1.000000e+00
    outer loop
      vertex 2.231146e+01 4.641909e+00 9.619113e+00
      vertex 5.120776e+01 2.176207e+01 9.619123e+00
      vertex 4.299316e+01 2.928937e+01 9.619116e+00
    endloop
  endfacet
  facet normal -3.096716e-07 2.097153e-07 1.000000e+00
    outer loop
      vertex 3.916146e+01 -1.374672e+01 9.619113e+00
      vertex 4.363980e+01 -2.077630e+01 9.619116e+00
      vertex 6.551772e+01 4.708071e+00 9.619117e+00
    endloop
  endfacet
  facet normal -3.734657e-07 2.398243e-07 1.000000e+00
    outer loop
      vertex 7.664892e+01 -1.457173e+01 9.619123e+00
      vertex 7.150421e+01 -4.688829e+00 9.619118e+00
      vertex 4.748840e+01 -2.816944e+01 9.619115e+00
    endloop
  endfacet
  facet normal -8.526467e-09 -1.334331e-07 1.000000e+00
    outer loop
      vertex 4.363980e+01 -2.077630e+01 9.619116e+00
      vertex 4.748840e+01 -2.816944e+01 9.619115e+00
      vertex 7.150421e+01 -4.688829e+00 9.619118e+00
    endloop
  endfacet
  facet normal -1.053931e-07 3.434542e-08 1.000000e+00
    outer loop
      vertex 4.363980e+01 -2.077630e+01 9.619116e+00
      vertex 7.150421e+01 -4.688829e+00 9.619118e+00
      vertex 6.551772e+01 4.708071e+00 9.619117e+00
    endloop
  endfacet
  facet normal -1.451217e-07 -2.881708e-07 1.000000e+00
    outer loop
      vertex 2.845657e+01 -9.890723e-01 9.619112e+00
      vertex 3.408752e+01 -7.134202e+00 9.619112e+00
      vertex 5.873504e+01 1.354746e+01 9.619121e+00
    endloop
  endfacet
  facet normal -1.388032e-07 -3.013318e-07 1.000000e+00
    outer loop
      vertex 2.845657e+01 -9.890723e-01 9.619112e+00
      vertex 5.873504e+01 1.354746e+01 9.619121e+00
      vertex 5.120776e+01 2.176207e+01 9.619123e+00
    endloop
  endfacet
  facet normal -2.936861e-07 -5.972461e-08 1.000000e+00
    outer loop
      vertex 4.748840e+01 -2.816944e+01 9.619115e+00
      vertex 5.067800e+01 -3.586988e+01 9.619115e+00
      vertex 8.091268e+01 -2.486542e+01 9.619125e+00
    endloop
  endfacet
  facet normal -3.098006e-07 1.032934e-07 1.000000e+00
    outer loop
      vertex 4.748840e+01 -2.816944e+01 9.619115e+00
      vertex 8.091268e+01 -2.486542e+01 9.619125e+00
      vertex 7.664892e+01 -1.457173e+01 9.619123e+00
    endloop
  endfacet
  facet normal 9.064696e-08 -3.620008e-07 1.000000e+00
    outer loop
      vertex 3.916146e+01 -1.374672e+01 9.619113e+00
      vertex 6.551772e+01 4.708071e+00 9.619117e+00
      vertex 5.873504e+01 1.354746e+01 9.619121e+00
    endloop
  endfacet
  facet normal -3.458022e-07 -4.900846e-08 1.000000e+00
    outer loop
      vertex 3.916146e+01 -1.374672e+01 9.619113e+00
      vertex 5.873504e+01 1.354746e+01 9.619121e+00
      vertex 3.408752e+01 -7.134202e+00 9.619112e+00
    endloop
  endfacet
  facet normal -5.912664e-08 -4.897829e-07 1.000000e+00
    outer loop
      vertex 7.847430e+01 -4.536925e+01 9.619120e+00
      vertex 6.234496e+01 -4.536925e+01 9.619119e+00
      vertex 6.375427e+01 -5.916934e+01 9.619112e+00
    endloop
  endfacet
  facet normal -7.522939e-07 2.495923e-07 1.000000e+00
    outer loop
      vertex 6.375427e+01 -5.916934e+01 9.619112e+00
      vertex 7.706500e+01 -5.916933e+01 9.619122e+00
      vertex 7.847430e+01 -4.536925e+01 9.619120e+00
    endloop
  endfacet
  facet normal 0.000000e+00 -1.000000e+00 -1.224647e-16
    outer loop
      vertex -8.667462e+01 5.916934e+01 5.245209e-06
      vertex -3.910117e+01 5.916934e+01 0.000000e+00
      vertex -3.910117e+01 5.916934e+01 9.619106e+00
    endloop
  endfacet
  facet normal -1.603709e-07 -1.000000e+00 7.931506e-07
    outer loop
      vertex -3.910117e+01 5.916934e+01 9.619106e+00
      vertex -8.667461e+01 5.916934e+01 9.619105e+00
      vertex -8.667462e+01 5.916934e+01 5.245209e-06
    endloop
  endfacet
  facet normal 1.748976e-13 -1.000000e+00 1.586300e-06
    outer loop
      vertex -8.667460e+01 2.699434e+01 8.106232e-06
      vertex -3.910117e+01 2.699434e+01 2.861023e-06
      vertex -3.910117e+01 2.699436e+01 9.619109e+00
    endloop
  endfacet
  facet normal 1.589978e-13 -1.000000e+00 1.586300e-06
    outer loop
      vertex -3.910117e+01 2.699436e+01 9.619109e+00
      vertex -8.667460e+01 2.699436e+01 9.619113e+00
      vertex -8.667460e+01 2.699434e+01 8.106232e-06
    endloop
  endfacet
  facet normal 1.176862e-07 8.892074e-08 1.000000e+00
    outer loop
      vertex -7.089094e+01 3.153047e+01 9.619112e+00
      vertex -3.910117e+01 2.699436e+01 9.619109e+00
      vertex -3.910117e+01 5.916934e+01 9.619106e+00
    endloop
  endfacet
  facet normal 2.847203e-07 -1.031991e-07 1.000000e+00
    outer loop
      vertex -3.910117e+01 5.916934e+01 9.619106e+00
      vertex -7.089094e+01 5.463323e+01 9.619114e+00
      vertex -7.089094e+01 3.153047e+01 9.619112e+00
    endloop
  endfacet
  facet normal -3.231090e-08 8.892069e-08 1.000000e+00
    outer loop
      vertex -7.089094e+01 3.153047e+01 1.430511e-06
      vertex -3.910117e+01 2.699434e+01 2.861023e-06
      vertex -3.910117e+01 5.916934e+01 0.000000e+00
    endloop
  endfacet
  facet normal 1.167784e-07 -8.255937e-08 1.000000e+00
    outer loop
      vertex -3.910117e+01 5.916934e+01 0.000000e+00
      vertex -7.089094e+01 5.463322e+01 3.337860e-06
      vertex -7.089094e+01 3.153047e+01 1.430511e-06
    endloop
  endfacet
  facet normal 2.852242e-01 9.584608e-01 -7.602029e-07
    outer loop
      vertex -8.667460e+01 3.622746e+01 3.337860e-06
      vertex -8.667460e+01 3.622747e+01 9.619114e+00
      vertex -7.089094e+01 3.153047e+01 9.619112e+00
    endloop
  endfacet
  facet normal 2.852242e-01 9.584608e-01 -8.167593e-07
    outer loop
      vertex -7.089094e+01 3.153047e+01 9.619112e+00
      vertex -7.089094e+01 3.153047e+01 1.430511e-06
      vertex -8.667460e+01 3.622746e+01 3.337860e-06
    endloop
  endfacet
  facet normal -2.852235e-01 9.584610e-01 -2.167498e-06
    outer loop
      vertex -8.667462e+01 4.993623e+01 4.291534e-06
      vertex -8.667461e+01 4.993625e+01 9.619110e+00
      vertex -7.089094e+01 5.463323e+01 9.619114e+00
    endloop
  endfacet
  facet normal -2.852239e-01 9.584609e-01 -1.520406e-06
    outer loop
      vertex -7.089094e+01 5.463323e+01 9.619114e+00
      vertex -7.089094e+01 5.463322e+01 3.337860e-06
      vertex -8.667462e+01 4.993623e+01 4.291534e-06
    endloop
  endfacet
  facet normal 1.000000e+00 -2.048087e-13 -3.965753e-07
    outer loop
      vertex -8.667462e+01 5.916934e+01 5.245209e-06
      vertex -8.667461e+01 5.916934e+01 9.619105e+00
      vertex -8.667461e+01 4.993625e+01 9.619110e+00
    endloop
  endfacet
  facet normal 1.000000e+00 4.096166e-14 -3.965750e-07
    outer loop
      vertex -8.667461e+01 4.993625e+01 9.619110e+00
      vertex -8.667462e+01 4.993623e+01 4.291534e-06
      vertex -8.667462e+01 5.916934e+01 5.245209e-06
    endloop
  endfacet
  facet normal -1.000000e+00 -7.498799e-33 6.123234e-17
    outer loop
      vertex -8.667460e+01 2.699434e+01 8.106232e-06
      vertex -8.667460e+01 2.699436e+01 9.619113e+00
      vertex -8.667460e+01 3.622747e+01 9.619114e+00
    endloop
  endfacet
  facet normal -1.000000e+00 -7.498799e-33 6.123234e-17
    outer loop
      vertex -8.667460e+01 3.622747e+01 9.619114e+00
      vertex -8.667460e+01 3.622746e+01 3.337860e-06
      vertex -8.667460e+01 2.699434e+01 8.106232e-06
    endloop
  endfacet
  facet normal 9.991989e-01 -3.304004e-09 4.001973e-02
    outer loop
      vertex -7.096947e+01 4.121901e+01 1.960886e+00
      vertex -7.089094e+01 3.153047e+01 1.430511e-06
      vertex -7.089094e+01 5.463322e+01 3.337860e-06
    endloop
  endfacet
  facet normal 9.991452e-01 8.675491e-08 -4.133891e-02
    outer loop
      vertex -7.089094e+01 3.153047e+01 9.619112e+00
      vertex -7.096947e+01 4.121901e+01 7.720878e+00
      vertex -7.089094e+01 5.463323e+01 9.619114e+00
    endloop
  endfacet
  facet normal 9.991989e-01 -3.180487e-09 4.001973e-02
    outer loop
      vertex -7.096947e+01 4.721900e+01 1.960887e+00
      vertex -7.096947e+01 4.121901e+01 1.960886e+00
      vertex -7.089094e+01 5.463322e+01 3.337860e-06
    endloop
  endfacet
  facet normal 9.991452e-01 4.106620e-08 -4.133859e-02
    outer loop
      vertex -7.089094e+01 5.463323e+01 9.619114e+00
      vertex -7.096947e+01 4.121901e+01 7.720878e+00
      vertex -7.096947e+01 4.721901e+01 7.720884e+00
    endloop
  endfacet
  facet normal -2.759018e-07 -1.000000e+00 -1.655685e-07
    outer loop
      vertex 6.834997e+01 -5.916934e+01 1.960874e+00
      vertex 6.834997e+01 -5.916934e+01 7.720873e+00
      vertex 6.375427e+01 -5.916934e+01 9.619112e+00
    endloop
  endfacet
  facet normal 1.486912e-06 -1.000000e+00 8.922949e-07
    outer loop
      vertex 6.375427e+01 -5.916934e+01 1.764297e-05
      vertex 6.834997e+01 -5.916934e+01 1.960874e+00
      vertex 6.375427e+01 -5.916934e+01 9.619112e+00
    endloop
  endfacet
  facet normal 0.000000e+00 -1.000000e+00 -1.224647e-16
    outer loop
      vertex 7.706500e+01 -5.916933e+01 9.619122e+00
      vertex 7.430834e+01 -5.916933e+01 7.720872e+00
      vertex 7.430834e+01 -5.916933e+01 1.960874e+00
    endloop
  endfacet
  facet normal -1.652587e-06 -1.000000e+00 5.948629e-07
    outer loop
      vertex 7.706500e+01 -5.916933e+01 9.619122e+00
      vertex 7.430834e+01 -5.916933e+01 1.960874e+00
      vertex 7.706500e+01 -5.916934e+01 2.145767e-05
    endloop
  endfacet
  facet normal -7.691926e-07 3.498463e-06 -1.000000e+00
    outer loop
      vertex -8.667461e+01 4.993625e+01 9.619110e+00
      vertex -7.089094e+01 5.463323e+01 9.619114e+00
      vertex -3.910117e+01 5.916934e+01 9.619106e+00
    endloop
  endfacet
  facet normal -1.002310e-08 5.164435e-07 1.000000e+00
    outer loop
      vertex -3.910117e+01 5.916934e+01 9.619106e+00
      vertex -8.667461e+01 5.916934e+01 9.619105e+00
      vertex -8.667461e+01 4.993625e+01 9.619110e+00
    endloop
  endfacet
  facet normal -6.257039e-08 2.973384e-07 -1.000000e+00
    outer loop
      vertex -3.910117e+01 2.699436e+01 9.619109e+00
      vertex -7.089094e+01 3.153047e+01 9.619112e+00
      vertex -8.667460e+01 3.622747e+01 9.619114e+00
    endloop
  endfacet
  facet normal 1.002318e-07 -1.032885e-07 1.000000e+00
    outer loop
      vertex -8.667460e+01 3.622747e+01 9.619114e+00
      vertex -8.667460e+01 2.699436e+01 9.619113e+00
      vertex -3.910117e+01 2.699436e+01 9.619109e+00
    endloop
  endfacet
  facet normal -1.460625e-07 2.877861e-07 -1.000000e+00
    outer loop
      vertex -8.667462e+01 4.993623e+01 4.291534e-06
      vertex -7.089094e+01 5.463322e+01 3.337860e-06
      vertex -3.910117e+01 5.916934e+01 0.000000e+00
    endloop
  endfacet
  facet normal 1.102550e-07 -1.032885e-07 1.000000e+00
    outer loop
      vertex -3.910117e+01 5.916934e+01 0.000000e+00
      vertex -8.667462e+01 5.916934e+01 5.245209e-06
      vertex -8.667462e+01 4.993623e+01 4.291534e-06
    endloop
  endfacet
  facet normal 1.977760e-07 1.070681e-06 -1.000000e+00
    outer loop
      vertex -3.910117e+01 2.699434e+01 2.861023e-06
      vertex -7.089094e+01 3.153047e+01 1.430511e-06
      vertex -8.667460e+01 3.622746e+01 3.337860e-06
    endloop
  endfacet
  facet normal 1.102550e-07 5.164423e-07 1.000000e+00
    outer loop
      vertex -8.667460e+01 3.622746e+01 3.337860e-06
      vertex -8.667460e+01 2.699434e+01 8.106232e-06
      vertex -3.910117e+01 2.699434e+01 2.861023e-06
    endloop
  endfacet
  facet normal 9.999672e-01 8.106066e-03 -2.047102e-07
    outer loop
      vertex -7.096947e+01 4.121901e+01 7.720878e+00
      vertex -7.089094e+01 3.153047e+01 9.619112e+00
      vertex -7.089094e+01 3.153047e+01 1.430511e-06
    endloop
  endfacet
  facet normal 9.999672e-01 8.105903e-03 -6.023764e-17
    outer loop
      vertex -7.089094e+01 3.153047e+01 1.430511e-06
      vertex -7.096947e+01 4.121901e+01 1.960886e+00
      vertex -7.096947e+01 4.121901e+01 7.720878e+00
    endloop
  endfacet
  facet normal 9.999439e-01 -1.059216e-02 1.680233e-08
    outer loop
      vertex -7.089094e+01 5.463322e+01 3.337860e-06
      vertex -7.089094e+01 5.463323e+01 9.619114e+00
      vertex -7.096947e+01 4.721901e+01 7.720884e+00
    endloop
  endfacet
  facet normal 9.999439e-01 -1.059216e-02 1.402983e-08
    outer loop
      vertex -7.096947e+01 4.721901e+01 7.720884e+00
      vertex -7.096947e+01 4.721900e+01 1.960887e+00
      vertex -7.089094e+01 5.463322e+01 3.337860e-06
    endloop
  endfacet
  facet normal 9.603370e-07 -1.000000e+00 2.827409e-06
    outer loop
      vertex 6.375427e+01 -5.916934e+01 9.619112e+00
      vertex 6.834997e+01 -5.916934e+01 7.720873e+00
      vertex 7.430834e+01 -5.916933e+01 7.720872e+00
    endloop
  endfacet
  facet normal 3.582356e-07 -1.000000e+00 -5.202324e-07
    outer loop
      vertex 7.430834e+01 -5.916933e+01 7.720872e+00
      vertex 7.706500e+01 -5.916933e+01 9.619122e+00
      vertex 6.375427e+01 -5.916934e+01 9.619112e+00
    endloop
  endfacet
  facet normal 8.002805e-07 -1.000000e+00 2.501569e-06
    outer loop
      vertex 7.430834e+01 -5.916933e+01 1.960874e+00
      vertex 6.834997e+01 -5.916934e+01 1.960874e+00
      vertex 6.375427e+01 -5.916934e+01 1.764297e-05
    endloop
  endfacet
  facet normal 5.731752e-07 -1.000000e+00 3.723937e-06
    outer loop
      vertex 6.375427e+01 -5.916934e+01 1.764297e-05
      vertex 7.706500e+01 -5.916934e+01 2.145767e-05
      vertex 7.430834e+01 -5.916933e+01 1.960874e+00
    endloop
  endfacet
  facet normal -9.553217e-01 -2.955682e-01 2.344302e-07
    outer loop
      vertex 5.067800e+01 -3.586989e+01 1.907349e-05
      vertex 5.269180e+01 -4.237878e+01 1.907349e-05
      vertex 5.269180e+01 -4.237877e+01 9.619114e+00
    endloop
  endfacet
  facet normal -9.553217e-01 -2.955682e-01 2.344302e-07
    outer loop
      vertex 5.269180e+01 -4.237877e+01 9.619114e+00
      vertex 5.067800e+01 -3.586988e+01 9.619115e+00
      vertex 5.067800e+01 -3.586989e+01 1.907349e-05
    endloop
  endfacet
  facet normal -9.461961e-01 -3.235936e-01 5.687817e-07
    outer loop
      vertex 5.269180e+01 -4.237878e+01 1.907349e-05
      vertex 5.318435e+01 -4.381901e+01 1.564274e+00
      vertex 5.318435e+01 -4.381900e+01 8.075093e+00
    endloop
  endfacet
  facet normal -9.461956e-01 -3.235952e-01 2.566598e-07
    outer loop
      vertex 5.318435e+01 -4.381900e+01 8.075093e+00
      vertex 5.269180e+01 -4.237877e+01 9.619114e+00
      vertex 5.269180e+01 -4.237878e+01 1.907349e-05
    endloop
  endfacet
  facet normal -9.556210e-01 -2.945989e-01 1.168306e-07
    outer loop
      vertex 8.091268e+01 -2.486542e+01 2.098083e-05
      vertex 8.371435e+01 -3.395347e+01 2.241135e-05
      vertex 8.371435e+01 -3.395347e+01 9.619123e+00
    endloop
  endfacet
  facet normal -9.556209e-01 -2.945990e-01 2.243693e-17
    outer loop
      vertex 8.371435e+01 -3.395347e+01 9.619123e+00
      vertex 8.091268e+01 -2.486542e+01 9.619125e+00
      vertex 8.091268e+01 -2.486542e+01 2.098083e-05
    endloop
  endfacet
  facet normal -9.418539e-01 -3.360228e-01 1.968761e-07
    outer loop
      vertex 8.371435e+01 -3.395347e+01 2.241135e-05
      vertex 8.426309e+01 -3.549155e+01 1.564276e+00
      vertex 8.426309e+01 -3.549155e+01 8.075098e+00
    endloop
  endfacet
  facet normal -9.418538e-01 -3.360231e-01 1.332584e-07
    outer loop
      vertex 8.426309e+01 -3.549155e+01 8.075098e+00
      vertex 8.371435e+01 -3.395347e+01 9.619123e+00
      vertex 8.371435e+01 -3.395347e+01 2.241135e-05
    endloop
  endfacet
  facet normal -9.833089e-01 -1.819442e-01 3.607729e-08
    outer loop
      vertex 8.426309e+01 -3.549155e+01 1.564276e+00
      vertex 8.456939e+01 -3.714696e+01 2.193451e-05
      vertex 8.456939e+01 -3.714696e+01 9.619123e+00
    endloop
  endfacet
  facet normal -9.833089e-01 -1.819439e-01 1.066011e-07
    outer loop
      vertex 8.456939e+01 -3.714696e+01 9.619123e+00
      vertex 8.426309e+01 -3.549155e+01 8.075098e+00
      vertex 8.426309e+01 -3.549155e+01 1.564276e+00
    endloop
  endfacet
  facet normal -9.749211e-01 -2.225509e-01 8.825818e-08
    outer loop
      vertex 8.456939e+01 -3.714696e+01 2.193451e-05
      vertex 8.667462e+01 -4.636925e+01 2.193451e-05
      vertex 8.667462e+01 -4.636925e+01 9.619122e+00
    endloop
  endfacet
  facet normal -9.749210e-01 -2.225509e-01 4.412909e-08
    outer loop
      vertex 8.667462e+01 -4.636925e+01 9.619122e+00
      vertex 8.456939e+01 -3.714696e+01 9.619123e+00
      vertex 8.456939e+01 -3.714696e+01 2.193451e-05
    endloop
  endfacet
  facet normal -9.358545e-01 -3.523866e-01 2.794958e-07
    outer loop
      vertex 5.318435e+01 -4.381901e+01 1.564274e+00
      vertex 5.366448e+01 -4.509413e+01 1.811981e-05
      vertex 5.366448e+01 -4.509413e+01 9.619114e+00
    endloop
  endfacet
  facet normal -9.358552e-01 -3.523847e-01 6.193879e-07
    outer loop
      vertex 5.366448e+01 -4.509413e+01 9.619114e+00
      vertex 5.318435e+01 -4.381900e+01 8.075093e+00
      vertex 5.318435e+01 -4.381901e+01 1.564274e+00
    endloop
  endfacet
  facet normal -9.358476e-01 -3.524050e-01 2.795103e-07
    outer loop
      vertex 5.366448e+01 -4.509413e+01 1.811981e-05
      vertex 5.414465e+01 -4.636926e+01 1.907349e-05
      vertex 5.414465e+01 -4.636925e+01 9.619114e+00
    endloop
  endfacet
  facet normal -9.358476e-01 -3.524050e-01 2.795103e-07
    outer loop
      vertex 5.414465e+01 -4.636925e+01 9.619114e+00
      vertex 5.366448e+01 -4.509413e+01 9.619114e+00
      vertex 5.366448e+01 -4.509413e+01 1.811981e-05
    endloop
  endfacet
  facet normal -1.868359e-01 6.879439e-01 -7.013028e-01
    outer loop
      vertex 5.318435e+01 -4.381900e+01 8.075093e+00
      vertex 5.269180e+01 -4.237877e+01 9.619114e+00
      vertex 8.371435e+01 -3.395347e+01 9.619123e+00
    endloop
  endfacet
  facet normal -1.781215e-01 6.647643e-01 -7.255076e-01
    outer loop
      vertex 8.371435e+01 -3.395347e+01 9.619123e+00
      vertex 8.426309e+01 -3.549155e+01 8.075098e+00
      vertex 5.318435e+01 -4.381900e+01 8.075093e+00
    endloop
  endfacet
  facet normal 1.752341e-01 -6.539875e-01 -7.359303e-01
    outer loop
      vertex 5.318435e+01 -4.381900e+01 8.075093e+00
      vertex 8.426309e+01 -3.549155e+01 8.075098e+00
      vertex 8.456939e+01 -3.714696e+01 9.619123e+00
    endloop
  endfacet
  facet normal 1.872161e-01 -7.280447e-01 -6.594703e-01
    outer loop
      vertex 8.456939e+01 -3.714696e+01 9.619123e+00
      vertex 5.366448e+01 -4.509413e+01 9.619114e+00
      vertex 5.318435e+01 -4.381900e+01 8.075093e+00
    endloop
  endfacet
  facet normal 1.955699e-01 -7.298822e-01 6.549996e-01
    outer loop
      vertex 8.426309e+01 -3.549155e+01 1.564276e+00
      vertex 5.318435e+01 -4.381901e+01 1.564274e+00
      vertex 5.366448e+01 -4.509413e+01 1.811981e-05
    endloop
  endfacet
  facet normal 1.697369e-01 -6.600720e-01 7.317747e-01
    outer loop
      vertex 5.366448e+01 -4.509413e+01 1.811981e-05
      vertex 8.456939e+01 -3.714696e+01 2.193451e-05
      vertex 8.426309e+01 -3.549155e+01 1.564276e+00
    endloop
  endfacet
  facet normal -1.815828e-01 6.686003e-01 7.211112e-01
    outer loop
      vertex 8.426309e+01 -3.549155e+01 1.564276e+00
      vertex 8.371435e+01 -3.395347e+01 2.241135e-05
      vertex 5.269180e+01 -4.237878e+01 1.907349e-05
    endloop
  endfacet
  facet normal -1.856988e-01 6.930422e-01 6.965691e-01
    outer loop
      vertex 5.269180e+01 -4.237878e+01 1.907349e-05
      vertex 5.318435e+01 -4.381901e+01 1.564274e+00
      vertex 8.426309e+01 -3.549155e+01 1.564276e+00
    endloop
  endfacet
  facet normal -2.355688e-07 -2.194017e-07 1.000000e+00
    outer loop
      vertex 8.091268e+01 -2.486542e+01 9.619125e+00
      vertex 5.067800e+01 -3.586988e+01 9.619115e+00
      vertex 5.269180e+01 -4.237877e+01 9.619114e+00
    endloop
  endfacet
  facet normal -1.753697e-07 -3.164059e-07 1.000000e+00
    outer loop
      vertex 5.269180e+01 -4.237877e+01 9.619114e+00
      vertex 8.371435e+01 -3.395347e+01 9.619123e+00
      vertex 8.091268e+01 -2.486542e+01 9.619125e+00
    endloop
  endfacet
  facet normal -5.439611e-07 1.691184e-07 1.000000e+00
    outer loop
      vertex 5.414465e+01 -4.636925e+01 9.619114e+00
      vertex 6.234496e+01 -4.536925e+01 9.619119e+00
      vertex 5.366448e+01 -4.509413e+01 9.619114e+00
    endloop
  endfacet
  facet normal 3.055542e-07 1.214555e-07 -1.000000e+00
    outer loop
      vertex 8.667462e+01 -4.636925e+01 9.619122e+00
      vertex 7.847430e+01 -4.536925e+01 9.619120e+00
      vertex 8.456939e+01 -3.714696e+01 9.619123e+00
    endloop
  endfacet
  facet normal -5.195193e-07 9.402886e-07 1.000000e+00
    outer loop
      vertex 8.456939e+01 -3.714696e+01 9.619123e+00
      vertex 5.366448e+01 -4.509413e+01 9.619114e+00
      vertex 6.234496e+01 -4.536925e+01 9.619119e+00
    endloop
  endfacet
  facet normal -5.912667e-08 -3.041297e-07 1.000000e+00
    outer loop
      vertex 8.456939e+01 -3.714696e+01 9.619123e+00
      vertex 6.234496e+01 -4.536925e+01 9.619119e+00
      vertex 7.847430e+01 -4.536925e+01 9.619120e+00
    endloop
  endfacet
  facet normal -9.925462e-08 -3.070851e-08 1.000000e+00
    outer loop
      vertex 5.067800e+01 -3.586989e+01 1.907349e-05
      vertex 5.269180e+01 -4.237878e+01 1.907349e-05
      vertex 8.371435e+01 -3.395347e+01 2.241135e-05
    endloop
  endfacet
  facet normal -1.082315e-07 1.240401e-07 1.000000e+00
    outer loop
      vertex 8.371435e+01 -3.395347e+01 2.241135e-05
      vertex 8.091268e+01 -2.486542e+01 2.098083e-05
      vertex 5.067800e+01 -3.586989e+01 1.907349e-05
    endloop
  endfacet
  facet normal -2.539875e-07 6.522652e-07 1.000000e+00
    outer loop
      vertex 5.414465e+01 -4.636926e+01 1.907349e-05
      vertex 6.234496e+01 -4.536925e+01 2.050400e-05
      vertex 5.366448e+01 -4.509413e+01 1.811981e-05
    endloop
  endfacet
  facet normal -2.580667e-07 5.235611e-07 1.000000e+00
    outer loop
      vertex 6.234496e+01 -4.536925e+01 2.050400e-05
      vertex 8.456939e+01 -3.714696e+01 2.193451e-05
      vertex 5.366448e+01 -4.509413e+01 1.811981e-05
    endloop
  endfacet
  facet normal 5.912678e-08 -3.337963e-07 1.000000e+00
    outer loop
      vertex 6.234496e+01 -4.536925e+01 2.050400e-05
      vertex 7.847430e+01 -4.536925e+01 1.955032e-05
      vertex 8.456939e+01 -3.714696e+01 2.193451e-05
    endloop
  endfacet
  facet normal -2.990684e-07 -6.827007e-08 1.000000e+00
    outer loop
      vertex 8.667462e+01 -4.636925e+01 2.193451e-05
      vertex 8.456939e+01 -3.714696e+01 2.193451e-05
      vertex 7.847430e+01 -4.536925e+01 1.955032e-05
    endloop
  endfacet
endsolid Default
