solid Default
  facet normal NaN NaN NaN
    outer loop
      vertex -5.536943e+01 -4.835987e-02 6.259324e-08
      vertex -5.536943e+01 9.151039e+00 6.259324e-08
      vertex -5.536943e+01 9.151039e+00 6.259324e-08
    endloop
  endfacet
  facet normal NaN NaN NaN
    outer loop
      vertex -5.536943e+01 9.151039e+00 6.259324e-08
      vertex -5.536943e+01 -4.835987e-02 6.259324e-08
      vertex -5.536943e+01 -4.835987e-02 6.259324e-08
    endloop
  endfacet
  facet normal NaN NaN NaN
    outer loop
      vertex -5.536943e+01 -9.247759e+00 6.259324e-08
      vertex -5.536943e+01 -4.835987e-02 6.259324e-08
      vertex -5.536943e+01 -4.835987e-02 6.259324e-08
    endloop
  endfacet
  facet normal NaN NaN NaN
    outer loop
      vertex -5.536943e+01 -4.835987e-02 6.259324e-08
      vertex -5.536943e+01 -9.247759e+00 6.259324e-08
      vertex -5.536943e+01 -9.247759e+00 6.259324e-08
    endloop
  endfacet
  facet normal -5.945371e-01 7.827201e-02 -8.002494e-01
    outer loop
      vertex -5.536943e+01 -9.247759e+00 6.259324e-08
      vertex -6.963054e+01 -1.533254e+01 1.000000e+01
      vertex -6.761835e+01 -4.837418e-02 1.000000e+01
    endloop
  endfacet
  facet normal -6.324098e-01 0.000000e+00 -7.746340e-01
    outer loop
      vertex -6.761835e+01 -4.837418e-02 1.000000e+01
      vertex -5.536943e+01 -4.835987e-02 6.259324e-08
      vertex -5.536943e+01 -9.247759e+00 6.259324e-08
    endloop
  endfacet
  facet normal -6.302291e-01 -8.297181e-02 -7.719630e-01
    outer loop
      vertex -5.536943e+01 -4.835987e-02 6.259324e-08
      vertex -6.761835e+01 -4.837418e-02 1.000000e+01
      vertex -6.963057e+01 1.523581e+01 1.000000e+01
    endloop
  endfacet
  facet normal -5.741253e-01 -4.761429e-07 -8.187674e-01
    outer loop
      vertex -6.963057e+01 1.523581e+01 1.000000e+01
      vertex -5.536943e+01 9.151039e+00 6.259324e-08
      vertex -5.536943e+01 -4.835987e-02 6.259324e-08
    endloop
  endfacet
  facet normal 3.924410e-01 -9.197772e-01 0.000000e+00
    outer loop
      vertex -5.536943e+01 -9.247759e+00 6.500000e+01
      vertex -6.963054e+01 -1.533254e+01 6.500000e+01
      vertex -6.963054e+01 -1.533254e+01 1.000000e+01
    endloop
  endfacet
  facet normal 3.924410e-01 -9.197772e-01 0.000000e+00
    outer loop
      vertex -6.963054e+01 -1.533254e+01 1.000000e+01
      vertex -5.536943e+01 -9.247759e+00 6.259324e-08
      vertex -5.536943e+01 -9.247759e+00 6.500000e+01
    endloop
  endfacet
  facet normal 3.924398e-01 9.197777e-01 0.000000e+00
    outer loop
      vertex -5.536943e+01 9.151039e+00 6.259324e-08
      vertex -6.963057e+01 1.523581e+01 1.000000e+01
      vertex -6.963057e+01 1.523581e+01 6.500000e+01
    endloop
  endfacet
  facet normal 3.924398e-01 9.197777e-01 0.000000e+00
    outer loop
      vertex -6.963057e+01 1.523581e+01 6.500000e+01
      vertex -5.536943e+01 9.151039e+00 6.500000e+01
      vertex -5.536943e+01 9.151039e+00 6.259324e-08
    endloop
  endfacet
  facet normal -9.914449e-01 1.305257e-01 0.000000e+00
    outer loop
      vertex -6.963054e+01 -1.533254e+01 6.500000e+01
      vertex -6.761835e+01 -4.837418e-02 6.500000e+01
      vertex -6.761835e+01 -4.837418e-02 1.000000e+01
    endloop
  endfacet
  facet normal -9.914449e-01 1.305257e-01 0.000000e+00
    outer loop
      vertex -6.761835e+01 -4.837418e-02 1.000000e+01
      vertex -6.963054e+01 -1.533254e+01 1.000000e+01
      vertex -6.963054e+01 -1.533254e+01 6.500000e+01
    endloop
  endfacet
  facet normal -9.914448e-01 -1.305271e-01 0.000000e+00
    outer loop
      vertex -6.761835e+01 -4.837418e-02 6.500000e+01
      vertex -6.963057e+01 1.523581e+01 6.500000e+01
      vertex -6.963057e+01 1.523581e+01 1.000000e+01
    endloop
  endfacet
  facet normal -9.914448e-01 -1.305271e-01 0.000000e+00
    outer loop
      vertex -6.963057e+01 1.523581e+01 1.000000e+01
      vertex -6.761835e+01 -4.837418e-02 1.000000e+01
      vertex -6.761835e+01 -4.837418e-02 6.500000e+01
    endloop
  endfacet
  facet normal -9.914449e-01 1.305257e-01 0.000000e+00
    outer loop
      vertex -6.963054e+01 -1.533254e+01 8.348420e+01
      vertex -6.761835e+01 -4.837418e-02 8.348420e+01
      vertex -6.761835e+01 -4.837418e-02 6.500000e+01
    endloop
  endfacet
  facet normal -9.914449e-01 1.305257e-01 0.000000e+00
    outer loop
      vertex -6.761835e+01 -4.837418e-02 6.500000e+01
      vertex -6.963054e+01 -1.533254e+01 6.500000e+01
      vertex -6.963054e+01 -1.533254e+01 8.348420e+01
    endloop
  endfacet
  facet normal 3.924410e-01 -9.197772e-01 0.000000e+00
    outer loop
      vertex -6.963054e+01 -1.533254e+01 8.348420e+01
      vertex -6.963054e+01 -1.533254e+01 6.500000e+01
      vertex -5.536943e+01 -9.247759e+00 6.500000e+01
    endloop
  endfacet
  facet normal 3.924398e-01 9.197777e-01 0.000000e+00
    outer loop
      vertex -5.536943e+01 9.151039e+00 6.500000e+01
      vertex -6.963057e+01 1.523581e+01 6.500000e+01
      vertex -6.963057e+01 1.523581e+01 8.348420e+01
    endloop
  endfacet
  facet normal -9.914448e-01 -1.305271e-01 0.000000e+00
    outer loop
      vertex -6.761835e+01 -4.837418e-02 8.348420e+01
      vertex -6.963057e+01 1.523581e+01 8.348420e+01
      vertex -6.963057e+01 1.523581e+01 6.500000e+01
    endloop
  endfacet
  facet normal -9.914448e-01 -1.305271e-01 0.000000e+00
    outer loop
      vertex -6.963057e+01 1.523581e+01 6.500000e+01
      vertex -6.761835e+01 -4.837418e-02 6.500000e+01
      vertex -6.761835e+01 -4.837418e-02 8.348420e+01
    endloop
  endfacet
  facet normal 8.335847e-01 6.913220e-07 5.523916e-01
    outer loop
      vertex -6.761835e+01 -4.837418e-02 8.348420e+01
      vertex -5.536943e+01 -4.835987e-02 6.500000e+01
      vertex -5.536943e+01 9.151039e+00 6.500000e+01
    endloop
  endfacet
  facet normal 8.038428e-01 1.058286e-01 5.853521e-01
    outer loop
      vertex -5.536943e+01 9.151039e+00 6.500000e+01
      vertex -6.963057e+01 1.523581e+01 8.348420e+01
      vertex -6.761835e+01 -4.837418e-02 8.348420e+01
    endloop
  endfacet
  facet normal 7.917434e-01 0.000000e+00 6.108539e-01
    outer loop
      vertex -6.963054e+01 -1.533254e+01 8.348420e+01
      vertex -5.536943e+01 -9.247759e+00 6.500000e+01
      vertex -5.536943e+01 -4.835987e-02 6.500000e+01
    endloop
  endfacet
  facet normal 8.286100e-01 -1.090882e-01 5.490949e-01
    outer loop
      vertex -5.536943e+01 -4.835987e-02 6.500000e+01
      vertex -6.761835e+01 -4.837418e-02 8.348420e+01
      vertex -6.963054e+01 -1.533254e+01 8.348420e+01
    endloop
  endfacet
  facet normal -9.796164e-01 2.008771e-01 0.000000e+00
    outer loop
      vertex -5.536943e+01 -9.247759e+00 6.259324e-08
      vertex -5.754576e+01 -1.986106e+01 0.000000e+00
      vertex -5.754576e+01 -1.986106e+01 1.000000e+01
    endloop
  endfacet
  facet normal NaN NaN NaN
    outer loop
      vertex -5.754576e+01 -1.986106e+01 1.000000e+01
      vertex -5.536943e+01 -9.247759e+00 6.259324e-08
      vertex -5.536943e+01 -9.247759e+00 6.259324e-08
    endloop
  endfacet
  facet normal -9.796164e-01 2.008771e-01 0.000000e+00
    outer loop
      vertex -5.536943e+01 -9.247759e+00 6.259324e-08
      vertex -5.754576e+01 -1.986106e+01 1.000000e+01
      vertex -5.754576e+01 -1.986106e+01 6.500000e+01
    endloop
  endfacet
  facet normal -9.796164e-01 2.008771e-01 0.000000e+00
    outer loop
      vertex -5.754576e+01 -1.986106e+01 6.500000e+01
      vertex -5.536943e+01 -9.247759e+00 6.500000e+01
      vertex -5.536943e+01 -9.247759e+00 6.259324e-08
    endloop
  endfacet
  facet normal -9.799717e-01 -1.991367e-01 0.000000e+00
    outer loop
      vertex -5.536943e+01 9.151039e+00 6.259324e-08
      vertex -5.754578e+01 1.986106e+01 1.000000e+01
      vertex -5.754578e+01 1.986106e+01 0.000000e+00
    endloop
  endfacet
  facet normal NaN NaN NaN
    outer loop
      vertex -5.754578e+01 1.986106e+01 0.000000e+00
      vertex -5.536943e+01 9.151039e+00 6.259324e-08
      vertex -5.536943e+01 9.151039e+00 6.259324e-08
    endloop
  endfacet
  facet normal -9.799717e-01 -1.991367e-01 0.000000e+00
    outer loop
      vertex -5.536943e+01 9.151039e+00 6.500000e+01
      vertex -5.754578e+01 1.986106e+01 6.500000e+01
      vertex -5.754578e+01 1.986106e+01 1.000000e+01
    endloop
  endfacet
  facet normal -9.799717e-01 -1.991367e-01 0.000000e+00
    outer loop
      vertex -5.754578e+01 1.986106e+01 1.000000e+01
      vertex -5.536943e+01 9.151039e+00 6.259324e-08
      vertex -5.536943e+01 9.151039e+00 6.500000e+01
    endloop
  endfacet
  facet normal 9.264151e-01 3.765036e-01 0.000000e+00
    outer loop
      vertex 6.745424e+01 9.930652e+00 1.500000e+01
      vertex 6.963057e+01 4.575628e+00 1.500000e+01
      vertex 6.963057e+01 4.575628e+00 6.259324e-08
    endloop
  endfacet
  facet normal 9.264151e-01 3.765036e-01 0.000000e+00
    outer loop
      vertex 6.963057e+01 4.575628e+00 6.259324e-08
      vertex 6.745424e+01 9.930652e+00 6.259324e-08
      vertex 6.745424e+01 9.930652e+00 1.500000e+01
    endloop
  endfacet
  facet normal 9.252151e-01 -3.794429e-01 0.000000e+00
    outer loop
      vertex 6.745424e+01 -9.930422e+00 1.500000e+01
      vertex 6.745424e+01 -9.930422e+00 6.259324e-08
      vertex 6.963057e+01 -4.623763e+00 6.259324e-08
    endloop
  endfacet
  facet normal 9.252151e-01 -3.794429e-01 0.000000e+00
    outer loop
      vertex 6.963057e+01 -4.623763e+00 6.259324e-08
      vertex 6.963057e+01 -4.623763e+00 1.500000e+01
      vertex 6.745424e+01 -9.930422e+00 1.500000e+01
    endloop
  endfacet
  facet normal 1.000000e+00 0.000000e+00 0.000000e+00
    outer loop
      vertex 6.963057e+01 -2.406216e-02 1.500000e+01
      vertex 6.963057e+01 -4.623763e+00 1.500000e+01
      vertex 6.963057e+01 -4.623763e+00 6.259324e-08
    endloop
  endfacet
  facet normal 1.000000e+00 0.000000e+00 0.000000e+00
    outer loop
      vertex 6.963057e+01 -4.623763e+00 6.259324e-08
      vertex 6.963057e+01 -2.406216e-02 6.259324e-08
      vertex 6.963057e+01 -2.406216e-02 1.500000e+01
    endloop
  endfacet
  facet normal 1.000000e+00 0.000000e+00 0.000000e+00
    outer loop
      vertex 6.963057e+01 -2.406216e-02 1.500000e+01
      vertex 6.963057e+01 -2.406216e-02 6.259324e-08
      vertex 6.963057e+01 4.575628e+00 6.259324e-08
    endloop
  endfacet
  facet normal 1.000000e+00 0.000000e+00 0.000000e+00
    outer loop
      vertex 6.963057e+01 4.575628e+00 6.259324e-08
      vertex 6.963057e+01 4.575628e+00 1.500000e+01
      vertex 6.963057e+01 -2.406216e-02 1.500000e+01
    endloop
  endfacet
  facet normal -9.690374e-07 1.000000e+00 0.000000e+00
    outer loop
      vertex 4.548010e+01 9.930631e+00 6.259324e-08
      vertex 4.548010e+01 9.930631e+00 1.500000e+01
      vertex 6.745424e+01 9.930652e+00 1.500000e+01
    endloop
  endfacet
  facet normal -9.690374e-07 1.000000e+00 0.000000e+00
    outer loop
      vertex 6.745424e+01 9.930652e+00 1.500000e+01
      vertex 6.745424e+01 9.930652e+00 6.259324e-08
      vertex 4.548010e+01 9.930631e+00 6.259324e-08
    endloop
  endfacet
  facet normal 6.943972e-07 -1.000000e+00 -3.814704e-07
    outer loop
      vertex 4.548010e+01 -9.930443e+00 1.500000e+01
      vertex 4.548008e+01 -9.930437e+00 6.259324e-08
      vertex 6.745424e+01 -9.930422e+00 6.259324e-08
    endloop
  endfacet
  facet normal 9.547967e-07 -1.000000e+00 0.000000e+00
    outer loop
      vertex 6.745424e+01 -9.930422e+00 6.259324e-08
      vertex 6.745424e+01 -9.930422e+00 1.500000e+01
      vertex 4.548010e+01 -9.930443e+00 1.500000e+01
    endloop
  endfacet
  facet normal 0.000000e+00 0.000000e+00 -1.000000e+00
    outer loop
      vertex 4.548008e+01 -9.930437e+00 6.259324e-08
      vertex 4.765643e+01 -4.623790e+00 6.259324e-08
      vertex 6.963057e+01 -4.623763e+00 6.259324e-08
    endloop
  endfacet
  facet normal 0.000000e+00 0.000000e+00 -1.000000e+00
    outer loop
      vertex 6.963057e+01 -4.623763e+00 6.259324e-08
      vertex 6.745424e+01 -9.930422e+00 6.259324e-08
      vertex 4.548008e+01 -9.930437e+00 6.259324e-08
    endloop
  endfacet
  facet normal 0.000000e+00 0.000000e+00 1.000000e+00
    outer loop
      vertex 4.765643e+01 -4.623784e+00 1.500000e+01
      vertex 4.548010e+01 -9.930443e+00 1.500000e+01
      vertex 6.745424e+01 -9.930422e+00 1.500000e+01
    endloop
  endfacet
  facet normal 0.000000e+00 0.000000e+00 1.000000e+00
    outer loop
      vertex 6.745424e+01 -9.930422e+00 1.500000e+01
      vertex 6.963057e+01 -4.623763e+00 1.500000e+01
      vertex 4.765643e+01 -4.623784e+00 1.500000e+01
    endloop
  endfacet
  facet normal 0.000000e+00 0.000000e+00 -1.000000e+00
    outer loop
      vertex 4.765643e+01 4.575612e+00 6.259324e-08
      vertex 4.548010e+01 9.930631e+00 6.259324e-08
      vertex 6.745424e+01 9.930652e+00 6.259324e-08
    endloop
  endfacet
  facet normal 0.000000e+00 0.000000e+00 -1.000000e+00
    outer loop
      vertex 6.745424e+01 9.930652e+00 6.259324e-08
      vertex 6.963057e+01 4.575628e+00 6.259324e-08
      vertex 4.765643e+01 4.575612e+00 6.259324e-08
    endloop
  endfacet
  facet normal 0.000000e+00 0.000000e+00 1.000000e+00
    outer loop
      vertex 4.548010e+01 9.930631e+00 1.500000e+01
      vertex 4.765643e+01 4.575612e+00 1.500000e+01
      vertex 6.963057e+01 4.575628e+00 1.500000e+01
    endloop
  endfacet
  facet normal 0.000000e+00 0.000000e+00 1.000000e+00
    outer loop
      vertex 6.963057e+01 4.575628e+00 1.500000e+01
      vertex 6.745424e+01 9.930652e+00 1.500000e+01
      vertex 4.548010e+01 9.930631e+00 1.500000e+01
    endloop
  endfacet
  facet normal 6.277472e-01 1.275623e-01 7.678941e-01
    outer loop
      vertex -5.754578e+01 1.986106e+01 6.500000e+01
      vertex -5.536943e+01 9.151039e+00 6.500000e+01
      vertex -4.342529e+01 6.863290e+00 5.561580e+01
    endloop
  endfacet
  facet normal 6.524614e-01 1.767778e-01 7.369150e-01
    outer loop
      vertex -4.342529e+01 6.863290e+00 5.561580e+01
      vertex -4.560162e+01 1.489581e+01 5.561580e+01
      vertex -5.754578e+01 1.986106e+01 6.500000e+01
    endloop
  endfacet
  facet normal 5.193131e-01 1.407026e-01 8.429215e-01
    outer loop
      vertex -4.560162e+01 1.489581e+01 5.561580e+01
      vertex -4.342529e+01 6.863290e+00 5.561580e+01
      vertex -4.663715e+00 4.575567e+00 3.211716e+01
    endloop
  endfacet
  facet normal 5.263031e-01 2.138933e-01 8.229548e-01
    outer loop
      vertex -4.663715e+00 4.575567e+00 3.211716e+01
      vertex -6.840031e+00 9.930580e+00 3.211716e+01
      vertex -4.560162e+01 1.489581e+01 5.561580e+01
    endloop
  endfacet
  facet normal 3.838586e-01 9.233919e-01 0.000000e+00
    outer loop
      vertex -4.560162e+01 1.489581e+01 5.561580e+01
      vertex -5.754578e+01 1.986106e+01 1.000000e+01
      vertex -5.754578e+01 1.986106e+01 6.500000e+01
    endloop
  endfacet
  facet normal 3.838609e-01 -9.233909e-01 0.000000e+00
    outer loop
      vertex -5.754576e+01 -1.986106e+01 6.500000e+01
      vertex -5.754576e+01 -1.986106e+01 1.000000e+01
      vertex -4.560161e+01 -1.489578e+01 5.561580e+01
    endloop
  endfacet
  facet normal 6.458160e-01 -1.324291e-01 7.519205e-01
    outer loop
      vertex -5.536943e+01 -9.247759e+00 6.500000e+01
      vertex -5.754576e+01 -1.986106e+01 6.500000e+01
      vertex -4.560161e+01 -1.489578e+01 5.561580e+01
    endloop
  endfacet
  facet normal 6.289649e-01 -1.719655e-01 7.581761e-01
    outer loop
      vertex -4.560161e+01 -1.489578e+01 5.561580e+01
      vertex -4.342527e+01 -6.935810e+00 5.561580e+01
      vertex -5.536943e+01 -9.247759e+00 6.500000e+01
    endloop
  endfacet
  facet normal 5.264304e-01 -1.439315e-01 8.379467e-01
    outer loop
      vertex -4.342527e+01 -6.935810e+00 5.561580e+01
      vertex -4.560161e+01 -1.489578e+01 5.561580e+01
      vertex -6.840046e+00 -9.930483e+00 3.211716e+01
    endloop
  endfacet
  facet normal 5.158727e-01 -2.115681e-01 8.301290e-01
    outer loop
      vertex -6.840046e+00 -9.930483e+00 3.211716e+01
      vertex -4.663700e+00 -4.623835e+00 3.211716e+01
      vertex -4.342527e+01 -6.935810e+00 5.561580e+01
    endloop
  endfacet
  facet normal 6.178016e-01 5.123652e-07 7.863340e-01
    outer loop
      vertex -5.536943e+01 9.151039e+00 6.500000e+01
      vertex -5.536943e+01 -4.835987e-02 6.500000e+01
      vertex -4.342527e+01 -3.625870e-02 5.561580e+01
    endloop
  endfacet
  facet normal 6.178020e-01 1.366308e-06 7.863338e-01
    outer loop
      vertex -4.342527e+01 -3.625870e-02 5.561580e+01
      vertex -4.342529e+01 6.863290e+00 5.561580e+01
      vertex -5.536943e+01 9.151039e+00 6.500000e+01
    endloop
  endfacet
  facet normal 6.178016e-01 0.000000e+00 7.863340e-01
    outer loop
      vertex -5.536943e+01 -4.835987e-02 6.500000e+01
      vertex -5.536943e+01 -9.247759e+00 6.500000e+01
      vertex -4.342527e+01 -6.935810e+00 5.561580e+01
    endloop
  endfacet
  facet normal 6.178016e-01 0.000000e+00 7.863340e-01
    outer loop
      vertex -4.342527e+01 -6.935810e+00 5.561580e+01
      vertex -4.342527e+01 -3.625870e-02 5.561580e+01
      vertex -5.536943e+01 -4.835987e-02 6.500000e+01
    endloop
  endfacet
  facet normal 3.838589e-01 9.233918e-01 0.000000e+00
    outer loop
      vertex -5.754578e+01 1.986106e+01 0.000000e+00
      vertex -5.754578e+01 1.986106e+01 1.000000e+01
      vertex -4.560162e+01 1.489581e+01 2.105858e+01
    endloop
  endfacet
  facet normal 3.937469e-01 9.191952e-01 -6.597822e-03
    outer loop
      vertex -4.560162e+01 1.489581e+01 2.105858e+01
      vertex -4.595449e+01 1.489581e+01 3.129662e-08
      vertex -5.754578e+01 1.986106e+01 0.000000e+00
    endloop
  endfacet
  facet normal 1.276585e-01 9.918159e-01 -2.139125e-03
    outer loop
      vertex -4.595449e+01 1.489581e+01 3.129662e-08
      vertex -4.560162e+01 1.489581e+01 2.105858e+01
      vertex -6.840031e+00 9.930580e+00 3.211716e+01
    endloop
  endfacet
  facet normal 1.282060e-01 9.917435e-01 -2.817187e-03
    outer loop
      vertex -6.840031e+00 9.930580e+00 3.211716e+01
      vertex -7.545765e+00 9.930580e+00 6.259324e-08
      vertex -4.595449e+01 1.489581e+01 3.129662e-08
    endloop
  endfacet
  facet normal 2.152536e-10 -5.800623e-09 -1.000000e+00
    outer loop
      vertex -5.536943e+01 9.151039e+00 6.259324e-08
      vertex -5.754578e+01 1.986106e+01 0.000000e+00
      vertex -4.595449e+01 1.489581e+01 3.129662e-08
    endloop
  endfacet
  facet normal -8.124389e-10 -4.116365e-09 -1.000000e+00
    outer loop
      vertex -4.595449e+01 1.489581e+01 3.129662e-08
      vertex -4.377815e+01 6.863290e+00 6.259324e-08
      vertex -5.536943e+01 9.151039e+00 6.259324e-08
    endloop
  endfacet
  facet normal 3.224445e-10 -3.808878e-09 -1.000000e+00
    outer loop
      vertex -4.377815e+01 6.863290e+00 6.259324e-08
      vertex -4.595449e+01 1.489581e+01 3.129662e-08
      vertex -7.545765e+00 9.930580e+00 6.259324e-08
    endloop
  endfacet
  facet normal 0.000000e+00 0.000000e+00 -1.000000e+00
    outer loop
      vertex -7.545765e+00 9.930580e+00 6.259324e-08
      vertex -5.369434e+00 4.575566e+00 6.259324e-08
      vertex -4.377815e+01 6.863290e+00 6.259324e-08
    endloop
  endfacet
  facet normal -1.226477e-09 6.149122e-09 -1.000000e+00
    outer loop
      vertex -5.754576e+01 -1.986106e+01 0.000000e+00
      vertex -5.536943e+01 -9.247759e+00 6.259324e-08
      vertex -4.377814e+01 -6.935812e+00 6.259324e-08
    endloop
  endfacet
  facet normal 1.150550e-09 3.617178e-09 -1.000000e+00
    outer loop
      vertex -4.377814e+01 -6.935812e+00 6.259324e-08
      vertex -4.595448e+01 -1.489578e+01 3.129662e-08
      vertex -5.754576e+01 -1.986106e+01 0.000000e+00
    endloop
  endfacet
  facet normal -2.406282e-10 3.997541e-09 -1.000000e+00
    outer loop
      vertex -4.595448e+01 -1.489578e+01 3.129662e-08
      vertex -4.377814e+01 -6.935812e+00 6.259324e-08
      vertex -5.369434e+00 -4.623836e+00 6.259324e-08
    endloop
  endfacet
  facet normal 8.604510e-10 -3.528855e-10 -1.000000e+00
    outer loop
      vertex -5.369434e+00 -4.623836e+00 6.259324e-08
      vertex -7.545780e+00 -9.930483e+00 6.259324e-08
      vertex -4.595448e+01 -1.489578e+01 3.129662e-08
    endloop
  endfacet
  facet normal 3.937573e-01 -9.192144e-01 0.000000e+00
    outer loop
      vertex -5.754576e+01 -1.986106e+01 1.000000e+01
      vertex -5.754576e+01 -1.986106e+01 0.000000e+00
      vertex -4.595448e+01 -1.489578e+01 3.129662e-08
    endloop
  endfacet
  facet normal 3.889923e-01 -9.212179e-01 -6.518048e-03
    outer loop
      vertex -4.595448e+01 -1.489578e+01 3.129662e-08
      vertex -4.560161e+01 -1.489578e+01 2.105858e+01
      vertex -5.754576e+01 -1.986106e+01 1.000000e+01
    endloop
  endfacet
  facet normal 1.282083e-01 -9.917449e-01 -2.148226e-03
    outer loop
      vertex -4.560161e+01 -1.489578e+01 2.105858e+01
      vertex -4.595448e+01 -1.489578e+01 3.129662e-08
      vertex -7.545780e+00 -9.930483e+00 6.259324e-08
    endloop
  endfacet
  facet normal 1.278483e-01 -9.917898e-01 -2.809305e-03
    outer loop
      vertex -7.545780e+00 -9.930483e+00 6.259324e-08
      vertex -6.840046e+00 -9.930483e+00 3.211716e+01
      vertex -4.560161e+01 -1.489578e+01 2.105858e+01
    endloop
  endfacet
  facet normal 0.000000e+00 0.000000e+00 -1.000000e+00
    outer loop
      vertex -5.536943e+01 -9.247759e+00 6.259324e-08
      vertex -5.536943e+01 -4.835987e-02 6.259324e-08
      vertex -4.377814e+01 -3.626156e-02 6.259324e-08
    endloop
  endfacet
  facet normal 0.000000e+00 0.000000e+00 -1.000000e+00
    outer loop
      vertex -4.377814e+01 -3.626156e-02 6.259324e-08
      vertex -4.377814e+01 -6.935812e+00 6.259324e-08
      vertex -5.536943e+01 -9.247759e+00 6.259324e-08
    endloop
  endfacet
  facet normal 0.000000e+00 0.000000e+00 -1.000000e+00
    outer loop
      vertex -5.536943e+01 -4.835987e-02 6.259324e-08
      vertex -5.536943e+01 9.151039e+00 6.259324e-08
      vertex -4.377815e+01 6.863290e+00 6.259324e-08
    endloop
  endfacet
  facet normal 0.000000e+00 0.000000e+00 -1.000000e+00
    outer loop
      vertex -4.377815e+01 6.863290e+00 6.259324e-08
      vertex -4.377814e+01 -3.626156e-02 6.259324e-08
      vertex -5.536943e+01 -4.835987e-02 6.259324e-08
    endloop
  endfacet
  facet normal 3.838590e-01 9.233917e-01 -1.401554e-07
    outer loop
      vertex -5.754578e+01 1.986106e+01 1.000000e+01
      vertex -4.560162e+01 1.489581e+01 5.561580e+01
      vertex -4.560162e+01 1.489581e+01 2.105858e+01
    endloop
  endfacet
  facet normal 1.270584e-01 9.918953e-01 -1.505531e-07
    outer loop
      vertex -4.560162e+01 1.489581e+01 2.105858e+01
      vertex -4.560162e+01 1.489581e+01 5.561580e+01
      vertex -6.840031e+00 9.930580e+00 3.211716e+01
    endloop
  endfacet
  facet normal 1.270603e-01 -9.918950e-01 5.474658e-08
    outer loop
      vertex -6.840046e+00 -9.930483e+00 3.211716e+01
      vertex -4.560161e+01 -1.489578e+01 5.561580e+01
      vertex -4.560161e+01 -1.489578e+01 2.105858e+01
    endloop
  endfacet
  facet normal 3.838608e-01 -9.233910e-01 5.096558e-08
    outer loop
      vertex -4.560161e+01 -1.489578e+01 2.105858e+01
      vertex -4.560161e+01 -1.489578e+01 5.561580e+01
      vertex -5.754576e+01 -1.986106e+01 1.000000e+01
    endloop
  endfacet
  facet normal -5.814592e-02 -9.983073e-01 1.277670e-03
    outer loop
      vertex -5.369434e+00 4.575566e+00 6.259324e-08
      vertex -4.663715e+00 4.575567e+00 3.211716e+01
      vertex -4.342529e+01 6.863290e+00 5.561580e+01
    endloop
  endfacet
  facet normal -5.945723e-02 -9.982308e-01 3.772404e-04
    outer loop
      vertex -4.342529e+01 6.863290e+00 5.561580e+01
      vertex -4.377815e+01 6.863290e+00 6.259324e-08
      vertex -5.369434e+00 4.575566e+00 6.259324e-08
    endloop
  endfacet
  facet normal -6.008531e-02 9.981931e-01 3.811907e-04
    outer loop
      vertex -5.369434e+00 -4.623836e+00 6.259324e-08
      vertex -4.377814e+01 -6.935812e+00 6.259324e-08
      vertex -4.342527e+01 -6.935810e+00 5.561580e+01
    endloop
  endfacet
  facet normal -5.876021e-02 9.982713e-01 1.291152e-03
    outer loop
      vertex -4.342527e+01 -6.935810e+00 5.561580e+01
      vertex -4.663700e+00 -4.623835e+00 3.211716e+01
      vertex -5.369434e+00 -4.623836e+00 6.259324e-08
    endloop
  endfacet
  facet normal 9.999799e-01 0.000000e+00 -6.344601e-03
    outer loop
      vertex -4.342527e+01 -6.935810e+00 5.561580e+01
      vertex -4.377814e+01 -6.935812e+00 6.259324e-08
      vertex -4.377814e+01 -3.626156e-02 6.259324e-08
    endloop
  endfacet
  facet normal 9.999799e-01 0.000000e+00 -6.344601e-03
    outer loop
      vertex -4.377814e+01 -3.626156e-02 6.259324e-08
      vertex -4.342527e+01 -3.625870e-02 5.561580e+01
      vertex -4.342527e+01 -6.935810e+00 5.561580e+01
    endloop
  endfacet
  facet normal 9.999799e-01 2.211519e-06 -6.344601e-03
    outer loop
      vertex -4.342529e+01 6.863290e+00 5.561580e+01
      vertex -4.342527e+01 -3.625870e-02 5.561580e+01
      vertex -4.377814e+01 -3.626156e-02 6.259324e-08
    endloop
  endfacet
  facet normal 9.999799e-01 1.105759e-06 -6.344463e-03
    outer loop
      vertex -4.377814e+01 -3.626156e-02 6.259324e-08
      vertex -4.377815e+01 6.863290e+00 6.259324e-08
      vertex -4.342529e+01 6.863290e+00 5.561580e+01
    endloop
  endfacet
  facet normal -1.000000e+00 0.000000e+00 0.000000e+00
    outer loop
      vertex 4.765643e+01 -2.408886e-02 6.259324e-08
      vertex 4.765643e+01 -4.623790e+00 6.259324e-08
      vertex 4.765643e+01 -4.623784e+00 1.500000e+01
    endloop
  endfacet
  facet normal -1.000000e+00 3.317344e-06 1.017251e-06
    outer loop
      vertex 4.765643e+01 -4.623784e+00 1.500000e+01
      vertex 4.765644e+01 -2.408314e-02 1.500000e+01
      vertex 4.765643e+01 -2.408886e-02 6.259324e-08
    endloop
  endfacet
  facet normal -1.000000e+00 -3.317348e-06 1.017254e-06
    outer loop
      vertex 4.765643e+01 -2.408886e-02 6.259324e-08
      vertex 4.765644e+01 -2.408314e-02 1.500000e+01
      vertex 4.765643e+01 4.575612e+00 1.500000e+01
    endloop
  endfacet
  facet normal -1.000000e+00 0.000000e+00 0.000000e+00
    outer loop
      vertex 4.765643e+01 4.575612e+00 1.500000e+01
      vertex 4.765643e+01 4.575612e+00 6.259324e-08
      vertex 4.765643e+01 -2.408886e-02 6.259324e-08
    endloop
  endfacet
  facet normal 2.404988e-07 -1.000000e+00 -5.284659e-09
    outer loop
      vertex -6.840046e+00 -9.930483e+00 3.211716e+01
      vertex -7.545780e+00 -9.930483e+00 6.259324e-08
      vertex 3.850212e-01 -9.930481e+00 6.259324e-08
    endloop
  endfacet
  facet normal 2.500618e-07 -1.000000e+00 -3.133393e-09
    outer loop
      vertex 3.850212e-01 -9.930481e+00 6.259324e-08
      vertex 7.378807e-01 -9.930481e+00 2.816010e+01
      vertex -6.840046e+00 -9.930483e+00 3.211716e+01
    endloop
  endfacet
  facet normal 9.728120e-07 -1.000000e+00 -1.218980e-08
    outer loop
      vertex 7.378807e-01 -9.930481e+00 2.816010e+01
      vertex 3.850212e-01 -9.930481e+00 6.259324e-08
      vertex 4.548008e+01 -9.930437e+00 6.259324e-08
    endloop
  endfacet
  facet normal 7.403921e-07 -1.000000e+00 -3.814705e-07
    outer loop
      vertex 4.548008e+01 -9.930437e+00 6.259324e-08
      vertex 4.548010e+01 -9.930443e+00 1.500000e+01
      vertex 7.378807e-01 -9.930481e+00 2.816010e+01
    endloop
  endfacet
  facet normal 0.000000e+00 0.000000e+00 -1.000000e+00
    outer loop
      vertex -7.545780e+00 -9.930483e+00 6.259324e-08
      vertex -5.369434e+00 -4.623836e+00 6.259324e-08
      vertex 2.561352e+00 -4.623833e+00 6.259324e-08
    endloop
  endfacet
  facet normal 0.000000e+00 0.000000e+00 -1.000000e+00
    outer loop
      vertex 2.561352e+00 -4.623833e+00 6.259324e-08
      vertex 3.850212e-01 -9.930481e+00 6.259324e-08
      vertex -7.545780e+00 -9.930483e+00 6.259324e-08
    endloop
  endfacet
  facet normal 0.000000e+00 0.000000e+00 -1.000000e+00
    outer loop
      vertex 3.850212e-01 -9.930481e+00 6.259324e-08
      vertex 2.561352e+00 -4.623833e+00 6.259324e-08
      vertex 4.765643e+01 -4.623790e+00 6.259324e-08
    endloop
  endfacet
  facet normal 0.000000e+00 0.000000e+00 -1.000000e+00
    outer loop
      vertex 4.765643e+01 -4.623790e+00 6.259324e-08
      vertex 4.548008e+01 -9.930437e+00 6.259324e-08
      vertex 3.850212e-01 -9.930481e+00 6.259324e-08
    endloop
  endfacet
  facet normal 4.547542e-01 -1.865024e-01 8.708705e-01
    outer loop
      vertex -4.663700e+00 -4.623835e+00 3.211716e+01
      vertex -6.840046e+00 -9.930483e+00 3.211716e+01
      vertex 7.378807e-01 -9.930481e+00 2.816010e+01
    endloop
  endfacet
  facet normal 4.547543e-01 -1.865022e-01 8.708705e-01
    outer loop
      vertex 7.378807e-01 -9.930481e+00 2.816010e+01
      vertex 2.914227e+00 -4.623827e+00 2.816010e+01
      vertex -4.663700e+00 -4.623835e+00 3.211716e+01
    endloop
  endfacet
  facet normal 2.803079e-01 -1.149589e-01 9.530016e-01
    outer loop
      vertex 2.914227e+00 -4.623827e+00 2.816010e+01
      vertex 7.378807e-01 -9.930481e+00 2.816010e+01
      vertex 4.548010e+01 -9.930443e+00 1.500000e+01
    endloop
  endfacet
  facet normal 2.803080e-01 -1.149580e-01 9.530016e-01
    outer loop
      vertex 4.548010e+01 -9.930443e+00 1.500000e+01
      vertex 4.765643e+01 -4.623784e+00 1.500000e+01
      vertex 2.914227e+00 -4.623827e+00 2.816010e+01
    endloop
  endfacet
  facet normal -1.015194e-06 1.000000e+00 -1.904755e-07
    outer loop
      vertex 2.561352e+00 -4.623833e+00 6.259324e-08
      vertex 2.914227e+00 -4.623827e+00 2.816010e+01
      vertex 4.765643e+01 -4.623784e+00 1.500000e+01
    endloop
  endfacet
  facet normal -9.516636e-07 1.000000e+00 -3.814697e-07
    outer loop
      vertex 4.765643e+01 -4.623784e+00 1.500000e+01
      vertex 4.765643e+01 -4.623790e+00 6.259324e-08
      vertex 2.561352e+00 -4.623833e+00 6.259324e-08
    endloop
  endfacet
  facet normal -9.694512e-07 1.000000e+00 -3.980750e-11
    outer loop
      vertex -7.545765e+00 9.930580e+00 6.259324e-08
      vertex -6.840031e+00 9.930580e+00 3.211716e+01
      vertex 7.378960e-01 9.930588e+00 2.816010e+01
    endloop
  endfacet
  facet normal -9.695110e-07 1.000000e+00 -2.221385e-11
    outer loop
      vertex 7.378960e-01 9.930588e+00 2.816010e+01
      vertex 3.850365e-01 9.930587e+00 6.259324e-08
      vertex -7.545765e+00 9.930580e+00 6.259324e-08
    endloop
  endfacet
  facet normal -9.695002e-07 1.000000e+00 -2.234921e-11
    outer loop
      vertex 3.850365e-01 9.930587e+00 6.259324e-08
      vertex 7.378960e-01 9.930588e+00 2.816010e+01
      vertex 4.548010e+01 9.930631e+00 1.500000e+01
    endloop
  endfacet
  facet normal -9.695076e-07 1.000000e+00 0.000000e+00
    outer loop
      vertex 4.548010e+01 9.930631e+00 1.500000e+01
      vertex 4.548010e+01 9.930631e+00 6.259324e-08
      vertex 3.850365e-01 9.930587e+00 6.259324e-08
    endloop
  endfacet
  facet normal 0.000000e+00 0.000000e+00 -1.000000e+00
    outer loop
      vertex -5.369434e+00 4.575566e+00 6.259324e-08
      vertex -7.545765e+00 9.930580e+00 6.259324e-08
      vertex 3.850365e-01 9.930587e+00 6.259324e-08
    endloop
  endfacet
  facet normal 0.000000e+00 0.000000e+00 -1.000000e+00
    outer loop
      vertex 3.850365e-01 9.930587e+00 6.259324e-08
      vertex 2.561352e+00 4.575569e+00 6.259324e-08
      vertex -5.369434e+00 4.575566e+00 6.259324e-08
    endloop
  endfacet
  facet normal 0.000000e+00 0.000000e+00 -1.000000e+00
    outer loop
      vertex 2.561352e+00 4.575569e+00 6.259324e-08
      vertex 3.850365e-01 9.930587e+00 6.259324e-08
      vertex 4.548010e+01 9.930631e+00 6.259324e-08
    endloop
  endfacet
  facet normal 0.000000e+00 0.000000e+00 -1.000000e+00
    outer loop
      vertex 4.548010e+01 9.930631e+00 6.259324e-08
      vertex 4.765643e+01 4.575612e+00 6.259324e-08
      vertex 2.561352e+00 4.575569e+00 6.259324e-08
    endloop
  endfacet
  facet normal 4.548959e-01 1.848729e-01 8.711439e-01
    outer loop
      vertex -6.840031e+00 9.930580e+00 3.211716e+01
      vertex -4.663715e+00 4.575567e+00 3.211716e+01
      vertex 2.914227e+00 4.575569e+00 2.816010e+01
    endloop
  endfacet
  facet normal 4.548964e-01 1.848742e-01 8.711433e-01
    outer loop
      vertex 2.914227e+00 4.575569e+00 2.816010e+01
      vertex 7.378960e-01 9.930588e+00 2.816010e+01
      vertex -6.840031e+00 9.930580e+00 3.211716e+01
    endloop
  endfacet
  facet normal 2.803411e-01 1.139333e-01 9.531149e-01
    outer loop
      vertex 7.378960e-01 9.930588e+00 2.816010e+01
      vertex 2.914227e+00 4.575569e+00 2.816010e+01
      vertex 4.765643e+01 4.575612e+00 1.500000e+01
    endloop
  endfacet
  facet normal 2.803411e-01 1.139333e-01 9.531149e-01
    outer loop
      vertex 4.765643e+01 4.575612e+00 1.500000e+01
      vertex 4.548010e+01 9.930631e+00 1.500000e+01
      vertex 7.378960e-01 9.930588e+00 2.816010e+01
    endloop
  endfacet
  facet normal 9.622377e-07 -1.000000e+00 -1.205782e-08
    outer loop
      vertex 2.914227e+00 4.575569e+00 2.816010e+01
      vertex 2.561352e+00 4.575569e+00 6.259324e-08
      vertex 4.765643e+01 4.575612e+00 6.259324e-08
    endloop
  endfacet
  facet normal 9.698267e-07 -1.000000e+00 0.000000e+00
    outer loop
      vertex 4.765643e+01 4.575612e+00 6.259324e-08
      vertex 4.765643e+01 4.575612e+00 1.500000e+01
      vertex 2.914227e+00 4.575569e+00 2.816010e+01
    endloop
  endfacet
  facet normal -9.997587e-01 -1.658272e-06 2.196844e-02
    outer loop
      vertex -5.369434e+00 -4.623836e+00 6.259324e-08
      vertex -4.663700e+00 -4.623835e+00 3.211716e+01
      vertex -4.663715e+00 4.575567e+00 3.211716e+01
    endloop
  endfacet
  facet normal -9.997587e-01 0.000000e+00 2.196796e-02
    outer loop
      vertex -4.663715e+00 4.575567e+00 3.211716e+01
      vertex -5.369434e+00 4.575566e+00 6.259324e-08
      vertex -5.369434e+00 -4.623836e+00 6.259324e-08
    endloop
  endfacet
  facet normal 9.999215e-01 0.000000e+00 -1.253004e-02
    outer loop
      vertex 2.561352e+00 -4.623833e+00 6.259324e-08
      vertex 2.561352e+00 4.575569e+00 6.259324e-08
      vertex 2.914227e+00 4.575569e+00 2.816010e+01
    endloop
  endfacet
  facet normal 9.999215e-01 0.000000e+00 -1.253004e-02
    outer loop
      vertex 2.914227e+00 4.575569e+00 2.816010e+01
      vertex 2.914227e+00 -4.623827e+00 2.816010e+01
      vertex 2.561352e+00 -4.623833e+00 6.259324e-08
    endloop
  endfacet
  facet normal 4.628755e-01 0.000000e+00 8.864233e-01
    outer loop
      vertex -4.663700e+00 -4.623835e+00 3.211716e+01
      vertex 2.914227e+00 -4.623827e+00 2.816010e+01
      vertex 2.914227e+00 4.575569e+00 2.816010e+01
    endloop
  endfacet
  facet normal 4.628748e-01 7.677575e-07 8.864236e-01
    outer loop
      vertex 2.914227e+00 4.575569e+00 2.816010e+01
      vertex -4.663715e+00 4.575567e+00 3.211716e+01
      vertex -4.663700e+00 -4.623835e+00 3.211716e+01
    endloop
  endfacet
  facet normal 0.000000e+00 0.000000e+00 -1.000000e+00
    outer loop
      vertex -5.369434e+00 -4.623836e+00 6.259324e-08
      vertex -5.369434e+00 4.575566e+00 6.259324e-08
      vertex 2.561352e+00 4.575569e+00 6.259324e-08
    endloop
  endfacet
  facet normal 0.000000e+00 0.000000e+00 -1.000000e+00
    outer loop
      vertex 2.561352e+00 4.575569e+00 6.259324e-08
      vertex 2.561352e+00 -4.623833e+00 6.259324e-08
      vertex -5.369434e+00 -4.623836e+00 6.259324e-08
    endloop
  endfacet
  facet normal 1.950978e-01 9.807838e-01 0.000000e+00
    outer loop
      vertex 5.864349e+01 2.975920e+00 5.394304e-07
      vertex 5.864349e+01 2.975920e+00 1.500000e+01
      vertex 5.979155e+01 2.747549e+00 1.500000e+01
    endloop
  endfacet
  facet normal 1.950913e-01 9.807851e-01 5.186442e-07
    outer loop
      vertex 5.979155e+01 2.747549e+00 1.500000e+01
      vertex 5.979153e+01 2.747560e+00 5.394304e-07
      vertex 5.864349e+01 2.975920e+00 5.394304e-07
    endloop
  endfacet
  facet normal 5.555662e-01 8.314723e-01 4.278010e-08
    outer loop
      vertex 5.979153e+01 2.747560e+00 5.394304e-07
      vertex 5.979155e+01 2.747549e+00 1.500000e+01
      vertex 6.076481e+01 2.097239e+00 1.500000e+01
    endloop
  endfacet
  facet normal 5.555666e-01 8.314720e-01 0.000000e+00
    outer loop
      vertex 6.076481e+01 2.097239e+00 1.500000e+01
      vertex 6.076481e+01 2.097239e+00 5.394304e-07
      vertex 5.979153e+01 2.747560e+00 5.394304e-07
    endloop
  endfacet
  facet normal 8.314665e-01 5.555749e-01 0.000000e+00
    outer loop
      vertex 6.076481e+01 2.097239e+00 5.394304e-07
      vertex 6.076481e+01 2.097239e+00 1.500000e+01
      vertex 6.141514e+01 1.123964e+00 1.500000e+01
    endloop
  endfacet
  facet normal 8.314665e-01 5.555749e-01 0.000000e+00
    outer loop
      vertex 6.141514e+01 1.123964e+00 1.500000e+01
      vertex 6.141514e+01 1.123964e+00 5.394304e-07
      vertex 6.076481e+01 2.097239e+00 5.394304e-07
    endloop
  endfacet
  facet normal 9.807848e-01 1.950926e-01 0.000000e+00
    outer loop
      vertex 6.141514e+01 1.123964e+00 5.394304e-07
      vertex 6.141514e+01 1.123964e+00 1.500000e+01
      vertex 6.164351e+01 -2.408028e-02 1.500000e+01
    endloop
  endfacet
  facet normal 9.807848e-01 1.950926e-01 0.000000e+00
    outer loop
      vertex 6.164351e+01 -2.408028e-02 1.500000e+01
      vertex 6.164351e+01 -2.408028e-02 5.394304e-07
      vertex 6.141514e+01 1.123964e+00 5.394304e-07
    endloop
  endfacet
  facet normal 9.807827e-01 -1.951033e-01 0.000000e+00
    outer loop
      vertex 6.164351e+01 -2.408028e-02 5.394304e-07
      vertex 6.164351e+01 -2.408028e-02 1.500000e+01
      vertex 6.141513e+01 -1.172136e+00 1.500000e+01
    endloop
  endfacet
  facet normal 9.807848e-01 -1.950924e-01 8.612659e-07
    outer loop
      vertex 6.141513e+01 -1.172136e+00 1.500000e+01
      vertex 6.141514e+01 -1.172126e+00 5.394304e-07
      vertex 6.164351e+01 -2.408028e-02 5.394304e-07
    endloop
  endfacet
  facet normal 8.314700e-01 -5.555696e-01 4.572712e-07
    outer loop
      vertex 6.141514e+01 -1.172126e+00 5.394304e-07
      vertex 6.141513e+01 -1.172136e+00 1.500000e+01
      vertex 6.076481e+01 -2.145402e+00 1.500000e+01
    endloop
  endfacet
  facet normal 8.314667e-01 -5.555745e-01 0.000000e+00
    outer loop
      vertex 6.076481e+01 -2.145402e+00 1.500000e+01
      vertex 6.076481e+01 -2.145402e+00 5.394304e-07
      vertex 6.141514e+01 -1.172126e+00 5.394304e-07
    endloop
  endfacet
  facet normal 5.555738e-01 -8.314673e-01 0.000000e+00
    outer loop
      vertex 6.076481e+01 -2.145402e+00 5.394304e-07
      vertex 6.076481e+01 -2.145402e+00 1.500000e+01
      vertex 5.979155e+01 -2.795724e+00 1.500000e+01
    endloop
  endfacet
  facet normal 5.555738e-01 -8.314673e-01 0.000000e+00
    outer loop
      vertex 5.979155e+01 -2.795724e+00 1.500000e+01
      vertex 5.979155e+01 -2.795724e+00 5.394304e-07
      vertex 6.076481e+01 -2.145402e+00 5.394304e-07
    endloop
  endfacet
  facet normal 1.950932e-01 -9.807847e-01 0.000000e+00
    outer loop
      vertex 5.979155e+01 -2.795724e+00 5.394304e-07
      vertex 5.979155e+01 -2.795724e+00 1.500000e+01
      vertex 5.864351e+01 -3.024087e+00 1.500000e+01
    endloop
  endfacet
  facet normal 1.950932e-01 -9.807847e-01 0.000000e+00
    outer loop
      vertex 5.864351e+01 -3.024087e+00 1.500000e+01
      vertex 5.864351e+01 -3.024087e+00 5.394304e-07
      vertex 5.979155e+01 -2.795724e+00 5.394304e-07
    endloop
  endfacet
  facet normal -1.950978e-01 -9.807838e-01 0.000000e+00
    outer loop
      vertex 5.864351e+01 -3.024087e+00 5.394304e-07
      vertex 5.864351e+01 -3.024087e+00 1.500000e+01
      vertex 5.749545e+01 -2.795715e+00 1.500000e+01
    endloop
  endfacet
  facet normal -1.950892e-01 -9.807855e-01 6.859233e-07
    outer loop
      vertex 5.749545e+01 -2.795715e+00 1.500000e+01
      vertex 5.749545e+01 -2.795726e+00 5.394304e-07
      vertex 5.864351e+01 -3.024087e+00 5.394304e-07
    endloop
  endfacet
  facet normal -5.555664e-01 -8.314722e-01 5.814994e-07
    outer loop
      vertex 5.749545e+01 -2.795726e+00 5.394304e-07
      vertex 5.749545e+01 -2.795715e+00 1.500000e+01
      vertex 5.652218e+01 -2.145406e+00 1.500000e+01
    endloop
  endfacet
  facet normal -5.555726e-01 -8.314680e-01 -0.000000e+00
    outer loop
      vertex 5.652218e+01 -2.145406e+00 1.500000e+01
      vertex 5.652218e+01 -2.145406e+00 5.394304e-07
      vertex 5.749545e+01 -2.795726e+00 5.394304e-07
    endloop
  endfacet
  facet normal -8.314663e-01 -5.555753e-01 0.000000e+00
    outer loop
      vertex 5.652218e+01 -2.145406e+00 5.394304e-07
      vertex 5.652218e+01 -2.145406e+00 1.500000e+01
      vertex 5.587185e+01 -1.172132e+00 1.500000e+01
    endloop
  endfacet
  facet normal -8.314663e-01 -5.555753e-01 -0.000000e+00
    outer loop
      vertex 5.587185e+01 -1.172132e+00 1.500000e+01
      vertex 5.587185e+01 -1.172132e+00 5.394304e-07
      vertex 5.652218e+01 -2.145406e+00 5.394304e-07
    endloop
  endfacet
  facet normal -9.807877e-01 -1.950782e-01 0.000000e+00
    outer loop
      vertex 5.587185e+01 -1.172132e+00 5.394304e-07
      vertex 5.587185e+01 -1.172132e+00 1.500000e+01
      vertex 5.564351e+01 -2.407551e-02 1.500000e+01
    endloop
  endfacet
  facet normal -9.807848e-01 -1.950924e-01 1.134146e-06
    outer loop
      vertex 5.564351e+01 -2.407551e-02 1.500000e+01
      vertex 5.564349e+01 -2.408600e-02 5.394304e-07
      vertex 5.587185e+01 -1.172132e+00 5.394304e-07
    endloop
  endfacet
  facet normal -9.807848e-01 1.950924e-01 8.612659e-07
    outer loop
      vertex 5.564349e+01 -2.408600e-02 5.394304e-07
      vertex 5.564351e+01 -2.407551e-02 1.500000e+01
      vertex 5.587187e+01 1.123970e+00 1.500000e+01
    endloop
  endfacet
  facet normal -9.807848e-01 1.950924e-01 8.612659e-07
    outer loop
      vertex 5.587187e+01 1.123970e+00 1.500000e+01
      vertex 5.587185e+01 1.123960e+00 5.394304e-07
      vertex 5.564349e+01 -2.408600e-02 5.394304e-07
    endloop
  endfacet
  facet normal -8.314728e-01 5.555655e-01 4.572769e-07
    outer loop
      vertex 5.587185e+01 1.123960e+00 5.394304e-07
      vertex 5.587187e+01 1.123970e+00 1.500000e+01
      vertex 5.652218e+01 2.097246e+00 1.500000e+01
    endloop
  endfacet
  facet normal -8.314725e-01 5.555659e-01 4.219545e-07
    outer loop
      vertex 5.652218e+01 2.097246e+00 1.500000e+01
      vertex 5.652217e+01 2.097235e+00 5.394304e-07
      vertex 5.587185e+01 1.123960e+00 5.394304e-07
    endloop
  endfacet
  facet normal -5.555673e-01 8.314716e-01 -6.921018e-08
    outer loop
      vertex 5.652217e+01 2.097235e+00 5.394304e-07
      vertex 5.652218e+01 2.097246e+00 1.500000e+01
      vertex 5.749545e+01 2.747557e+00 1.500000e+01
    endloop
  endfacet
  facet normal -5.555680e-01 8.314711e-01 0.000000e+00
    outer loop
      vertex 5.749545e+01 2.747557e+00 1.500000e+01
      vertex 5.749545e+01 2.747557e+00 5.394304e-07
      vertex 5.652217e+01 2.097235e+00 5.394304e-07
    endloop
  endfacet
  facet normal -1.950932e-01 9.807847e-01 0.000000e+00
    outer loop
      vertex 5.749545e+01 2.747557e+00 5.394304e-07
      vertex 5.749545e+01 2.747557e+00 1.500000e+01
      vertex 5.864349e+01 2.975920e+00 1.500000e+01
    endloop
  endfacet
  facet normal -1.950932e-01 9.807847e-01 0.000000e+00
    outer loop
      vertex 5.864349e+01 2.975920e+00 1.500000e+01
      vertex 5.864349e+01 2.975920e+00 5.394304e-07
      vertex 5.749545e+01 2.747557e+00 5.394304e-07
    endloop
  endfacet
  facet normal 0.000000e+00 0.000000e+00 1.000000e+00
    outer loop
      vertex 5.749545e+01 2.747557e+00 1.500000e+01
      vertex 4.765643e+01 4.575612e+00 1.500000e+01
      vertex 5.652218e+01 2.097246e+00 1.500000e+01
    endloop
  endfacet
  facet normal 0.000000e+00 0.000000e+00 1.000000e+00
    outer loop
      vertex 5.864349e+01 2.975920e+00 1.500000e+01
      vertex 4.765643e+01 4.575612e+00 1.500000e+01
      vertex 5.749545e+01 2.747557e+00 1.500000e+01
    endloop
  endfacet
  facet normal 0.000000e+00 0.000000e+00 1.000000e+00
    outer loop
      vertex 6.963057e+01 4.575628e+00 1.500000e+01
      vertex 4.765643e+01 4.575612e+00 1.500000e+01
      vertex 5.864349e+01 2.975920e+00 1.500000e+01
    endloop
  endfacet
  facet normal 0.000000e+00 0.000000e+00 1.000000e+00
    outer loop
      vertex 5.864351e+01 -3.024087e+00 1.500000e+01
      vertex 4.765643e+01 -4.623784e+00 1.500000e+01
      vertex 6.963057e+01 -4.623763e+00 1.500000e+01
    endloop
  endfacet
  facet normal 0.000000e+00 0.000000e+00 1.000000e+00
    outer loop
      vertex 5.749545e+01 -2.795715e+00 1.500000e+01
      vertex 4.765643e+01 -4.623784e+00 1.500000e+01
      vertex 5.864351e+01 -3.024087e+00 1.500000e+01
    endloop
  endfacet
  facet normal 0.000000e+00 0.000000e+00 1.000000e+00
    outer loop
      vertex 5.652218e+01 -2.145406e+00 1.500000e+01
      vertex 4.765643e+01 -4.623784e+00 1.500000e+01
      vertex 5.749545e+01 -2.795715e+00 1.500000e+01
    endloop
  endfacet
  facet normal 0.000000e+00 0.000000e+00 1.000000e+00
    outer loop
      vertex 5.587185e+01 -1.172132e+00 1.500000e+01
      vertex 4.765643e+01 -4.623784e+00 1.500000e+01
      vertex 5.652218e+01 -2.145406e+00 1.500000e+01
    endloop
  endfacet
  facet normal 0.000000e+00 0.000000e+00 1.000000e+00
    outer loop
      vertex 6.963057e+01 4.575628e+00 1.500000e+01
      vertex 5.864349e+01 2.975920e+00 1.500000e+01
      vertex 5.979155e+01 2.747549e+00 1.500000e+01
    endloop
  endfacet
  facet normal 0.000000e+00 0.000000e+00 1.000000e+00
    outer loop
      vertex 6.963057e+01 4.575628e+00 1.500000e+01
      vertex 5.979155e+01 2.747549e+00 1.500000e+01
      vertex 6.076481e+01 2.097239e+00 1.500000e+01
    endloop
  endfacet
  facet normal 0.000000e+00 0.000000e+00 1.000000e+00
    outer loop
      vertex 6.963057e+01 4.575628e+00 1.500000e+01
      vertex 6.076481e+01 2.097239e+00 1.500000e+01
      vertex 6.141514e+01 1.123964e+00 1.500000e+01
    endloop
  endfacet
  facet normal 0.000000e+00 0.000000e+00 1.000000e+00
    outer loop
      vertex 5.979155e+01 -2.795724e+00 1.500000e+01
      vertex 5.864351e+01 -3.024087e+00 1.500000e+01
      vertex 6.963057e+01 -4.623763e+00 1.500000e+01
    endloop
  endfacet
  facet normal 0.000000e+00 0.000000e+00 1.000000e+00
    outer loop
      vertex 6.076481e+01 -2.145402e+00 1.500000e+01
      vertex 5.979155e+01 -2.795724e+00 1.500000e+01
      vertex 6.963057e+01 -4.623763e+00 1.500000e+01
    endloop
  endfacet
  facet normal 0.000000e+00 0.000000e+00 1.000000e+00
    outer loop
      vertex 6.141513e+01 -1.172136e+00 1.500000e+01
      vertex 6.076481e+01 -2.145402e+00 1.500000e+01
      vertex 6.963057e+01 -4.623763e+00 1.500000e+01
    endloop
  endfacet
  facet normal 0.000000e+00 0.000000e+00 1.000000e+00
    outer loop
      vertex 4.765643e+01 4.575612e+00 1.500000e+01
      vertex 4.765644e+01 -2.408314e-02 1.500000e+01
      vertex 5.587187e+01 1.123970e+00 1.500000e+01
    endloop
  endfacet
  facet normal 0.000000e+00 0.000000e+00 1.000000e+00
    outer loop
      vertex 4.765643e+01 4.575612e+00 1.500000e+01
      vertex 5.587187e+01 1.123970e+00 1.500000e+01
      vertex 5.652218e+01 2.097246e+00 1.500000e+01
    endloop
  endfacet
  facet normal 0.000000e+00 0.000000e+00 1.000000e+00
    outer loop
      vertex 5.564351e+01 -2.407551e-02 1.500000e+01
      vertex 5.587187e+01 1.123970e+00 1.500000e+01
      vertex 4.765644e+01 -2.408314e-02 1.500000e+01
    endloop
  endfacet
  facet normal 0.000000e+00 0.000000e+00 1.000000e+00
    outer loop
      vertex 5.587185e+01 -1.172132e+00 1.500000e+01
      vertex 5.564351e+01 -2.407551e-02 1.500000e+01
      vertex 4.765644e+01 -2.408314e-02 1.500000e+01
    endloop
  endfacet
  facet normal 0.000000e+00 0.000000e+00 1.000000e+00
    outer loop
      vertex 5.587185e+01 -1.172132e+00 1.500000e+01
      vertex 4.765644e+01 -2.408314e-02 1.500000e+01
      vertex 4.765643e+01 -4.623784e+00 1.500000e+01
    endloop
  endfacet
  facet normal 0.000000e+00 0.000000e+00 1.000000e+00
    outer loop
      vertex 6.141514e+01 1.123964e+00 1.500000e+01
      vertex 6.164351e+01 -2.408028e-02 1.500000e+01
      vertex 6.963057e+01 -2.406216e-02 1.500000e+01
    endloop
  endfacet
  facet normal 0.000000e+00 0.000000e+00 1.000000e+00
    outer loop
      vertex 6.141514e+01 1.123964e+00 1.500000e+01
      vertex 6.963057e+01 -2.406216e-02 1.500000e+01
      vertex 6.963057e+01 4.575628e+00 1.500000e+01
    endloop
  endfacet
  facet normal 0.000000e+00 0.000000e+00 1.000000e+00
    outer loop
      vertex 6.141513e+01 -1.172136e+00 1.500000e+01
      vertex 6.963057e+01 -4.623763e+00 1.500000e+01
      vertex 6.963057e+01 -2.406216e-02 1.500000e+01
    endloop
  endfacet
  facet normal 0.000000e+00 0.000000e+00 1.000000e+00
    outer loop
      vertex 6.141513e+01 -1.172136e+00 1.500000e+01
      vertex 6.963057e+01 -2.406216e-02 1.500000e+01
      vertex 6.164351e+01 -2.408028e-02 1.500000e+01
    endloop
  endfacet
  facet normal -3.791972e-08 5.675119e-08 1.000000e+00
    outer loop
      vertex 5.749545e+01 2.747557e+00 5.394304e-07
      vertex 4.765643e+01 4.575612e+00 6.259324e-08
      vertex 5.652217e+01 2.097235e+00 5.394304e-07
    endloop
  endfacet
  facet normal -2.505827e-08 1.259745e-07 1.000000e+00
    outer loop
      vertex 5.864349e+01 2.975920e+00 5.394304e-07
      vertex 4.765643e+01 4.575612e+00 6.259324e-08
      vertex 5.749545e+01 2.747557e+00 5.394304e-07
    endloop
  endfacet
  facet normal -2.199220e-13 2.980791e-07 1.000000e+00
    outer loop
      vertex 6.963057e+01 4.575628e+00 6.259324e-08
      vertex 4.765643e+01 4.575612e+00 6.259324e-08
      vertex 5.864349e+01 2.975920e+00 5.394304e-07
    endloop
  endfacet
  facet normal 3.622269e-13 -2.980811e-07 1.000000e+00
    outer loop
      vertex 5.864351e+01 -3.024087e+00 5.394304e-07
      vertex 4.765643e+01 -4.623790e+00 6.259324e-08
      vertex 6.963057e+01 -4.623763e+00 6.259324e-08
    endloop
  endfacet
  facet normal -2.505795e-08 -1.259756e-07 1.000000e+00
    outer loop
      vertex 5.749545e+01 -2.795726e+00 5.394304e-07
      vertex 4.765643e+01 -4.623790e+00 6.259324e-08
      vertex 5.864351e+01 -3.024087e+00 5.394304e-07
    endloop
  endfacet
  facet normal -3.791978e-08 -5.675060e-08 1.000000e+00
    outer loop
      vertex 5.652218e+01 -2.145406e+00 5.394304e-07
      vertex 4.765643e+01 -4.623790e+00 6.259324e-08
      vertex 5.749545e+01 -2.795726e+00 5.394304e-07
    endloop
  endfacet
  facet normal -4.531907e-08 -3.028163e-08 1.000000e+00
    outer loop
      vertex 5.587185e+01 -1.172132e+00 5.394304e-07
      vertex 4.765643e+01 -4.623790e+00 6.259324e-08
      vertex 5.652218e+01 -2.145406e+00 5.394304e-07
    endloop
  endfacet
  facet normal 2.505804e-08 1.259746e-07 1.000000e+00
    outer loop
      vertex 6.963057e+01 4.575628e+00 6.259324e-08
      vertex 5.864349e+01 2.975920e+00 5.394304e-07
      vertex 5.979153e+01 2.747560e+00 5.394304e-07
    endloop
  endfacet
  facet normal 3.791958e-08 5.675119e-08 1.000000e+00
    outer loop
      vertex 6.963057e+01 4.575628e+00 6.259324e-08
      vertex 5.979153e+01 2.747560e+00 5.394304e-07
      vertex 6.076481e+01 2.097239e+00 5.394304e-07
    endloop
  endfacet
  facet normal 4.531906e-08 3.028159e-08 1.000000e+00
    outer loop
      vertex 6.963057e+01 4.575628e+00 6.259324e-08
      vertex 6.076481e+01 2.097239e+00 5.394304e-07
      vertex 6.141514e+01 1.123964e+00 5.394304e-07
    endloop
  endfacet
  facet normal 2.505838e-08 -1.259750e-07 1.000000e+00
    outer loop
      vertex 5.979155e+01 -2.795724e+00 5.394304e-07
      vertex 5.864351e+01 -3.024087e+00 5.394304e-07
      vertex 6.963057e+01 -4.623763e+00 6.259324e-08
    endloop
  endfacet
  facet normal 3.791991e-08 -5.675064e-08 1.000000e+00
    outer loop
      vertex 6.076481e+01 -2.145402e+00 5.394304e-07
      vertex 5.979155e+01 -2.795724e+00 5.394304e-07
      vertex 6.963057e+01 -4.623763e+00 6.259324e-08
    endloop
  endfacet
  facet normal 4.531914e-08 -3.028162e-08 1.000000e+00
    outer loop
      vertex 6.141514e+01 -1.172126e+00 5.394304e-07
      vertex 6.076481e+01 -2.145402e+00 5.394304e-07
      vertex 6.963057e+01 -4.623763e+00 6.259324e-08
    endloop
  endfacet
  facet normal -5.804170e-08 0.000000e+00 1.000000e+00
    outer loop
      vertex 4.765643e+01 4.575612e+00 6.259324e-08
      vertex 4.765643e+01 -2.408886e-02 6.259324e-08
      vertex 5.587185e+01 1.123960e+00 5.394304e-07
    endloop
  endfacet
  facet normal -4.531933e-08 3.028106e-08 1.000000e+00
    outer loop
      vertex 4.765643e+01 4.575612e+00 6.259324e-08
      vertex 5.587185e+01 1.123960e+00 5.394304e-07
      vertex 5.652217e+01 2.097235e+00 5.394304e-07
    endloop
  endfacet
  facet normal -5.970121e-08 1.187544e-08 1.000000e+00
    outer loop
      vertex 5.564349e+01 -2.408600e-02 5.394304e-07
      vertex 5.587185e+01 1.123960e+00 5.394304e-07
      vertex 4.765643e+01 -2.408886e-02 6.259324e-08
    endloop
  endfacet
  facet normal -5.970120e-08 -1.187544e-08 1.000000e+00
    outer loop
      vertex 5.587185e+01 -1.172132e+00 5.394304e-07
      vertex 5.564349e+01 -2.408600e-02 5.394304e-07
      vertex 4.765643e+01 -2.408886e-02 6.259324e-08
    endloop
  endfacet
  facet normal -5.804170e-08 0.000000e+00 1.000000e+00
    outer loop
      vertex 5.587185e+01 -1.172132e+00 5.394304e-07
      vertex 4.765643e+01 -2.408886e-02 6.259324e-08
      vertex 4.765643e+01 -4.623790e+00 6.259324e-08
    endloop
  endfacet
  facet normal 5.970118e-08 1.187545e-08 1.000000e+00
    outer loop
      vertex 6.141514e+01 1.123964e+00 5.394304e-07
      vertex 6.164351e+01 -2.408028e-02 5.394304e-07
      vertex 6.963057e+01 -2.406216e-02 6.259324e-08
    endloop
  endfacet
  facet normal 5.804170e-08 0.000000e+00 1.000000e+00
    outer loop
      vertex 6.141514e+01 1.123964e+00 5.394304e-07
      vertex 6.963057e+01 -2.406216e-02 6.259324e-08
      vertex 6.963057e+01 4.575628e+00 6.259324e-08
    endloop
  endfacet
  facet normal 5.804170e-08 0.000000e+00 1.000000e+00
    outer loop
      vertex 6.141514e+01 -1.172126e+00 5.394304e-07
      vertex 6.963057e+01 -4.623763e+00 6.259324e-08
      vertex 6.963057e+01 -2.406216e-02 6.259324e-08
    endloop
  endfacet
  facet normal 5.970124e-08 -1.187545e-08 1.000000e+00
    outer loop
      vertex 6.141514e+01 -1.172126e+00 5.394304e-07
      vertex 6.963057e+01 -2.406216e-02 6.259324e-08
      vertex 6.164351e+01 -2.408028e-02 5.394304e-07
    endloop
  endfacet
endsolid Default
